<svg xmlns="http://www.w3.org/2000/svg" width="28" height="28" viewBox="0 0 28 28" fill="none">
  <g opacity="0.4">
    <path d="M10.4306 24.1979C8.70056 24.2046 7.03256 23.5541 5.7639 22.3779C5.14606 21.8066 4.65307 21.1137 4.31591 20.3427C3.97874 19.5717 3.80469 18.7393 3.80469 17.8979C3.80469 17.0564 3.97874 16.224 4.31591 15.453C4.65307 14.682 5.14606 13.9891 5.7639 13.4179L14.5839 5.08786C15.491 4.25984 16.6749 3.80078 17.9031 3.80078C19.1313 3.80078 20.3151 4.25984 21.2222 5.08786C21.6952 5.52692 22.0744 6.05715 22.3371 6.64662C22.5997 7.23608 22.7404 7.8726 22.7506 8.51786C22.7537 9.07549 22.6414 9.62774 22.4205 10.1398C22.1996 10.6518 21.875 11.1125 21.4672 11.4929L12.6356 19.8345C12.1026 20.329 11.4025 20.6038 10.6756 20.6038C9.94859 20.6038 9.24848 20.329 8.71557 19.8345C8.45113 19.5909 8.24007 19.2951 8.0957 18.9657C7.95134 18.6364 7.8768 18.2808 7.8768 17.9212C7.8768 17.5616 7.95134 17.206 8.0957 16.8766C8.24007 16.5473 8.45113 16.2515 8.71557 16.0079L16.8822 8.31953C17.0463 8.15567 17.2687 8.06363 17.5006 8.06363C17.7324 8.06363 17.9548 8.15567 18.1189 8.31953C18.2828 8.48359 18.3748 8.70599 18.3748 8.93786C18.3748 9.16974 18.2828 9.39213 18.1189 9.55619L9.95223 17.2445C9.86063 17.3245 9.78721 17.4231 9.7369 17.5338C9.68659 17.6445 9.66057 17.7646 9.66057 17.8862C9.66057 18.0078 9.68659 18.1279 9.7369 18.2386C9.78721 18.3493 9.86063 18.4479 9.95223 18.5279C10.1636 18.7086 10.4325 18.8079 10.7106 18.8079C10.9886 18.8079 11.2576 18.7086 11.4689 18.5279L20.3006 10.2095C20.5253 9.98931 20.7031 9.72593 20.8234 9.43521C20.9437 9.1445 21.004 8.83246 21.0006 8.51786C20.9909 8.11236 20.8991 7.71304 20.7306 7.34406C20.5622 6.97508 20.3206 6.64412 20.0206 6.37119C19.4446 5.83739 18.6883 5.5408 17.9031 5.5408C17.1178 5.5408 16.3615 5.83739 15.7856 6.37119L7.00057 14.6895C6.55568 15.0972 6.20044 15.593 5.95742 16.1453C5.7144 16.6976 5.5889 17.2944 5.5889 17.8979C5.5889 18.5013 5.7144 19.0981 5.95742 19.6504C6.20044 20.2028 6.55568 20.6985 7.00057 21.1062C7.95083 21.9919 9.20154 22.4844 10.5006 22.4844C11.7996 22.4844 13.0503 21.9919 14.0006 21.1062L22.7389 12.8345C22.8193 12.752 22.9155 12.6864 23.0217 12.6416C23.1279 12.5968 23.242 12.5737 23.3572 12.5737C23.4725 12.5737 23.5866 12.5968 23.6928 12.6416C23.799 12.6864 23.8951 12.752 23.9756 12.8345C24.1394 12.9986 24.2315 13.221 24.2315 13.4529C24.2315 13.6847 24.1394 13.9071 23.9756 14.0712L15.1672 22.3779C13.8816 23.5718 12.1849 24.2237 10.4306 24.1979Z" fill="black"/>
  </g>
</svg>