<svg width="20" height="20" viewBox="0 0 20 20" fill="none" xmlns="http://www.w3.org/2000/svg">
<path d="M16.666 5.00033C17.1493 5.00033 17.541 5.16699 17.8493 5.49199C18.166 5.83366 18.3327 6.20866 18.3327 6.66699V15.8337C18.3327 16.292 18.166 16.667 17.8493 17.0087C17.541 17.3337 17.1493 17.5003 16.666 17.5003H3.33268C2.84935 17.5003 2.45768 17.3337 2.14935 17.0087C1.83268 16.667 1.66602 16.292 1.66602 15.8337V6.66699C1.66602 6.20866 1.83268 5.83366 2.14935 5.49199C2.45768 5.16699 2.84935 5.00033 3.33268 5.00033H6.66602V3.33366C6.66602 2.85033 6.83268 2.45866 7.14935 2.15033C7.45768 1.83366 7.84935 1.66699 8.33268 1.66699H11.666C12.1493 1.66699 12.541 1.83366 12.8493 2.15033C13.166 2.45866 13.3327 2.85033 13.3327 3.33366V5.00033H16.666ZM3.33268 6.66699V15.8337H16.666V6.66699H3.33268ZM11.666 5.00033V3.33366H8.33268V5.00033H11.666Z" fill="black"/>
</svg>
