<svg width="14" height="14" viewBox="0 0 14 14" fill="none" xmlns="http://www.w3.org/2000/svg">
<g opacity="0.5">
<path d="M9.63975 2.04199H11.0835C11.2382 2.04199 11.3866 2.10345 11.496 2.21285C11.6054 2.32224 11.6668 2.47062 11.6668 2.62533V12.2503C11.6668 12.405 11.6054 12.5534 11.496 12.6628C11.3866 12.7722 11.2382 12.8337 11.0835 12.8337H2.91683C2.76212 12.8337 2.61375 12.7722 2.50435 12.6628C2.39495 12.5534 2.3335 12.405 2.3335 12.2503V2.62533C2.3335 2.47062 2.39495 2.32224 2.50435 2.21285C2.61375 2.10345 2.76212 2.04199 2.91683 2.04199H4.9585V2.91699H9.04183V2.04199H9.63975Z" stroke="black" stroke-width="1.16667" stroke-linejoin="round"/>
<path d="M7.87516 5.54199L5.54183 7.87562H8.45966L6.12516 10.209M4.9585 1.16699H9.04183V2.91699H4.9585V1.16699Z" stroke="black" stroke-width="1.16667" stroke-linecap="round" stroke-linejoin="round"/>
</g>
</svg>
