<svg width="68" height="68" viewBox="0 0 68 68" fill="none" xmlns="http://www.w3.org/2000/svg">
<g style="mix-blend-mode:luminosity">
<path d="M60.7878 36.8096C59.0808 36.8096 57.6969 38.1935 57.6969 39.9005H10.303C10.303 38.1935 8.91908 36.8096 7.21204 36.8096C5.505 36.8096 4.12109 38.1935 4.12109 39.9005V63.8786C4.12109 65.5857 5.505 66.9696 7.21204 66.9696H60.7878C62.4948 66.9696 63.8787 65.5857 63.8787 63.8786V39.9005C63.8787 38.1935 62.4948 36.8096 60.7878 36.8096Z" fill="#AA3827"/>
<path d="M46.3651 19.5758H21.6378C19.9308 19.5758 18.5469 18.1919 18.5469 16.4849V4.12122C18.5469 2.41418 19.9308 1.03027 21.6378 1.03027H46.3651C48.0722 1.03027 49.4561 2.41418 49.4561 4.12122V16.4849C49.4561 18.1919 48.0722 19.5758 46.3651 19.5758ZM24.7288 13.3939H43.2742V7.21216H24.7288V13.3939Z" fill="#AA3827"/>
<path d="M46.3637 1.03027H34V7.21203H43.2727V13.3938H34V19.5755H46.3637C48.0707 19.5755 49.4546 18.1916 49.4546 16.4846V4.12109C49.4546 2.41418 48.0707 1.03027 46.3637 1.03027Z" fill="#672415"/>
<path d="M60.7879 36.8096C59.0808 36.8096 57.6969 38.1935 57.6969 39.9005H34V66.9694H60.7879C62.4949 66.9694 63.8788 65.5855 63.8788 63.8785V39.9005C63.8788 38.1935 62.4949 36.8096 60.7879 36.8096Z" fill="#672415"/>
<path d="M64.909 13.3936H3.09095C1.38391 13.3936 0 14.7775 0 16.4845V39.1512C0 40.6451 1.06848 41.925 2.53778 42.1922L25.2045 46.3134C26.8844 46.619 28.4932 45.5048 28.7984 43.8254C28.8321 43.6396 28.8458 43.4549 28.8462 43.2724H39.1535C39.1538 43.455 39.1673 43.6393 39.2013 43.8254C39.4725 45.3181 40.7736 46.3639 42.2386 46.3639C42.4222 46.3639 42.6082 46.3474 42.7952 46.3134L65.462 42.1922C66.9315 41.925 68 40.6451 68 39.1512V16.4845C68 14.7775 66.6161 13.3936 64.909 13.3936Z" fill="#B66D38"/>
<path d="M64.9091 13.3936H34V43.2724H39.1538C39.1541 43.455 39.1676 43.6393 39.2016 43.8254C39.4728 45.3181 40.7738 46.3639 42.2389 46.3639C42.4224 46.3639 42.6085 46.3474 42.7955 46.3134L65.4622 42.1922C66.9315 41.925 68 40.6451 68 39.1512V16.4845C68 14.7775 66.6161 13.3936 64.9091 13.3936Z" fill="#AA3827"/>
<path d="M42.2439 34H25.7589C24.0519 34 22.668 35.3839 22.668 37.0909V49.4546C22.668 51.1616 24.0519 52.5455 25.7589 52.5455H42.2437C43.9508 52.5455 45.3347 51.1616 45.3347 49.4546V37.0909C45.3347 35.3839 43.9508 34 42.2439 34Z" fill="#F4D371"/>
<path d="M42.2425 52.5455C43.9495 52.5455 45.3334 51.1616 45.3334 49.4546V37.0909C45.3334 35.3839 43.9495 34 42.2425 34H34V52.5454L42.2425 52.5455Z" fill="#E9A35F"/>
</g>
</svg>
