<svg width="24" height="24" viewBox="0 0 24 24" fill="none" xmlns="http://www.w3.org/2000/svg">
<path d="M16.9 8.3C17.6732 8.3 18.3 7.6732 18.3 6.9C18.3 6.1268 17.6732 5.5 16.9 5.5C16.1268 5.5 15.5 6.1268 15.5 6.9C15.5 7.6732 16.1268 8.3 16.9 8.3Z" fill="black"/>
<path d="M16 3C18.76 3 21 5.24 21 8V16C21 18.76 18.76 21 16 21H8C5.24 21 3 18.76 3 16V8C3 5.24 5.24 3 8 3H12H16Z" stroke="black" stroke-width="1.5" stroke-linecap="round" stroke-linejoin="round"/>
<path d="M12 8C14.21 8 16 9.79 16 12C16 14.21 14.21 16 12 16C9.79 16 8 14.21 8 12C8 9.79 9.79 8 12 8Z" stroke="black" stroke-width="1.5" stroke-linecap="round" stroke-linejoin="round"/>
</svg>
