<svg width="20" height="20" viewBox="0 0 20 20" fill="none" xmlns="http://www.w3.org/2000/svg">
<path d="M5.24427 13.575L12.1526 6.66667H7.5026C7.28159 6.66667 7.06963 6.57887 6.91335 6.42259C6.75707 6.26631 6.66927 6.05435 6.66927 5.83333C6.66927 5.61232 6.75707 5.40036 6.91335 5.24408C7.06963 5.0878 7.28159 5 7.5026 5H14.1276C14.3486 5 14.5606 5.0878 14.7169 5.24408C14.8731 5.40036 14.9609 5.61232 14.9609 5.83333V12.5C14.9609 12.721 14.8731 12.933 14.7169 13.0893C14.5606 13.2455 14.3486 13.3333 14.1276 13.3333H14.1693C13.9483 13.3333 13.7363 13.2455 13.58 13.0893C13.4237 12.933 13.3359 12.721 13.3359 12.5V7.875L6.45261 14.7583C6.37514 14.8364 6.28297 14.8984 6.18142 14.9407C6.07987 14.983 5.97095 15.0048 5.86094 15.0048C5.75093 15.0048 5.64201 14.983 5.54046 14.9407C5.43891 14.8984 5.34674 14.8364 5.26927 14.7583C5.18951 14.6825 5.12554 14.5917 5.08108 14.491C5.03661 14.3904 5.01252 14.2819 5.01019 14.1719C5.00787 14.0619 5.02736 13.9525 5.06753 13.85C5.10771 13.7476 5.16778 13.6541 5.24427 13.575Z" fill="black"/>
</svg>
