<svg width="24" height="24" viewBox="0 0 24 24" fill="none" xmlns="http://www.w3.org/2000/svg">
<path fill-rule="evenodd" clip-rule="evenodd" d="M18.2241 4.10578C18.4466 4.01212 18.6901 3.97981 18.9294 4.01223C19.1686 4.04465 19.3948 4.1406 19.5844 4.29009C19.774 4.43959 19.92 4.63717 20.0074 4.86226C20.0947 5.08736 20.1201 5.33174 20.0809 5.56998L18.0386 17.958C17.8404 19.153 16.5293 19.8383 15.4334 19.243C14.5167 18.7451 13.1552 17.9778 11.9305 17.1773C11.3182 16.7766 9.44246 15.4934 9.67299 14.5803C9.8711 13.7996 13.0228 10.8658 14.8238 9.12151C15.5307 8.43624 15.2083 8.04092 14.3736 8.67127C12.3006 10.2363 8.9724 12.6163 7.872 13.2863C6.90127 13.877 6.3952 13.9779 5.79007 13.877C4.68606 13.6933 3.66221 13.4088 2.82655 13.0621C1.69733 12.5938 1.75226 11.0414 2.82565 10.5893L18.2241 4.10578Z" fill="black"/>
</svg>
