<svg width="58" height="58" viewBox="0 0 58 58" fill="none" xmlns="http://www.w3.org/2000/svg">
<path d="M12 20.6C12 14.6612 12 11.6897 13.8129 9.8459C15.6238 8 18.5422 8 24.375 8H32.625C38.4578 8 41.3762 8 43.1871 9.8459C45 11.6897 45 14.6612 45 20.6V37.4C45 43.3388 45 46.3103 43.1871 48.1541C41.3762 50 38.4578 50 32.625 50H24.375C18.5422 50 15.6238 50 13.8129 48.1541C12 46.3103 12 43.3388 12 37.4V20.6Z" stroke="black" stroke-width="3"/>
<path d="M45 37H20.0912C18.1608 37 17.1956 37 16.4026 37.2293C15.3467 37.536 14.384 38.1383 13.6111 38.9757C12.8383 39.8132 12.2826 40.8562 12 42" stroke="black" stroke-width="3"/>
<path d="M20 18H37M20 26H30.625" stroke="black" stroke-width="3" stroke-linecap="round"/>
</svg>
