<svg width="78" height="78" viewBox="0 0 78 78" fill="none" xmlns="http://www.w3.org/2000/svg">
<g style="mix-blend-mode:luminosity">
<path d="M27.7266 7.86074L39.1219 13.6498L51.1266 7.49512L75.5625 22.0592L64.2281 28.5795V55.5748L39.1219 42.2295L14.3812 55.5748V28.5795L2.4375 21.6936L27.7266 7.86074Z" fill="white"/>
<path d="M64.2281 56.1844C64.35 56.1844 64.4719 56.1844 64.5328 56.1234C64.7156 56.0016 64.8375 55.8187 64.8375 55.575V28.8844L75.8672 22.5469C76.05 22.4859 76.1719 22.2422 76.1719 22.0594C76.1719 21.8766 76.05 21.6328 75.8672 21.5109L51.4313 6.94688C51.2484 6.825 51.0047 6.825 50.8219 6.94688L39.0609 12.9797L28.0312 7.3125C27.8484 7.19063 27.6656 7.25156 27.4828 7.3125L2.19375 21.1453C2.01093 21.2672 1.88906 21.45 1.88906 21.6937C1.88906 21.9375 2.01093 22.1203 2.19375 22.2422L13.8328 28.9453V55.6359C13.8328 55.8797 13.9547 56.0625 14.1375 56.1844C14.3203 56.3062 14.5641 56.3062 14.7469 56.1844L39.1219 42.9L63.9234 56.1234C64.0453 56.1844 64.1062 56.1844 64.2281 56.1844ZM74.3438 22.0594L63.9234 28.0312C63.7406 28.1531 63.6187 28.3359 63.6187 28.5797V54.6L39.4266 41.6813C39.2438 41.5594 39 41.5594 38.8781 41.6813L15.0516 54.6V28.5797C15.0516 28.3359 14.9297 28.1531 14.7469 28.0312L3.65625 21.6937L27.7875 8.59219L38.3906 13.9547C38.3906 14.0156 38.4516 14.0156 38.4516 14.0766C38.6344 14.3813 39 14.4422 39.3047 14.2594L39.4266 14.1375H39.4875L51.1266 8.16563L74.3438 22.0594Z" fill="#6A576D"/>
<path d="M39.1211 13.6504L14.3805 28.5801V55.5754L39.1211 42.2301V13.6504Z" fill="#121519"/>
<path d="M39.1203 13.6504L64.2266 28.5801V55.5754L39.1203 42.2301V13.6504Z" fill="#121519"/>
<path d="M14.3805 56.184C14.5023 56.184 14.5633 56.184 14.6852 56.123L39.4258 42.7168C39.6086 42.5949 39.7305 42.4121 39.7305 42.1684V13.6496C39.7305 13.4059 39.6086 13.223 39.4258 13.1012C39.243 12.9793 38.9992 12.9793 38.8164 13.1012L14.0758 28.0309C13.893 28.1527 13.7711 28.3355 13.7711 28.5793V55.6356C13.7711 55.8793 13.893 56.0621 14.0758 56.184H14.3805ZM38.5117 41.8637L14.9898 54.5996V28.884L38.5117 14.7465V41.8637Z" fill="#6A576D"/>
<path d="M64.2266 56.184C64.3484 56.184 64.4703 56.184 64.5312 56.123C64.7141 56.0012 64.8359 55.8184 64.8359 55.5746V28.5793C64.8359 28.3355 64.7141 28.1527 64.5312 28.0309L39.425 13.1012C39.2422 12.9793 38.9984 12.9793 38.8156 13.1012C38.6328 13.223 38.5109 13.4059 38.5109 13.6496V42.2293C38.5109 42.473 38.6328 42.6559 38.8156 42.7777L63.9219 56.184H64.2266ZM63.6172 28.884V54.5996L39.7297 41.8637V14.7465L63.6172 28.884Z" fill="#6A576D"/>
<path d="M39.1203 41.9248L49.6625 37.7811L64.2266 28.5186V55.5748L39.1203 70.5045L14.3797 55.5748V28.5186L25.5312 36.8061L39.1203 41.9248Z" fill="#D6AB7F"/>
<path d="M39.1203 71.1141C39.2422 71.1141 39.3641 71.1141 39.425 71.0531L64.5312 56.1234C64.7141 56.0016 64.8359 55.8187 64.8359 55.575V28.5187C64.8359 28.275 64.7141 28.0922 64.5312 27.9703C64.3484 27.8484 64.1047 27.8484 63.9219 27.9703L49.3578 37.2328L39.0594 41.3156L25.775 36.2578L14.7453 28.0312C14.5625 27.9094 14.3187 27.8484 14.1359 27.9703C13.9531 28.0922 13.8312 28.275 13.8312 28.5187V55.575C13.8312 55.8187 13.9531 56.0016 14.1359 56.1234L38.8766 71.0531C38.8766 71.0531 38.9984 71.1141 39.1203 71.1141ZM63.6172 55.2703L39.1203 69.8344L14.9891 55.2703V29.7375L25.1656 37.2937C25.2266 37.3547 25.2875 37.3547 25.2875 37.3547L38.8766 42.5344C38.9984 42.5953 39.1812 42.5953 39.3031 42.5344L49.8453 38.3906C49.9062 38.3906 49.9062 38.3297 49.9672 38.3297L63.6172 29.6766V55.2703Z" fill="#6A576D"/>
<path d="M39.1211 70.5045L14.3805 55.5748V28.5186L27.2992 37.7201L39.1211 41.9248V70.5045Z" fill="#121519"/>
<path d="M39.1211 71.1144C39.243 71.1144 39.3039 71.1144 39.4258 71.0535C39.6086 70.9316 39.7305 70.7488 39.7305 70.5051V41.9254C39.7305 41.6816 39.5477 41.4379 39.3039 41.3769L27.543 37.1723L14.7461 28.0316C14.5633 27.9098 14.3195 27.9098 14.1367 27.9707C13.9539 28.0926 13.832 28.2754 13.832 28.5191V55.5754C13.832 55.8191 13.9539 56.0019 14.1367 56.1238L38.8773 71.0535C38.8773 71.0535 38.9992 71.1144 39.1211 71.1144ZM38.5117 42.3519V69.4082L14.9898 55.2707V29.7379L26.9336 38.2082C26.9945 38.2691 27.0555 38.2691 27.0555 38.2691L38.5117 42.3519Z" fill="#6A576D"/>
<path d="M58.7422 46.0076L39.1203 57.0982V41.9248L50.3328 38.1467L64.2266 28.5186L58.7422 46.0076Z" fill="#121519"/>
<path d="M75.5625 35.0389L64.2281 28.5186L39.1219 41.9248L51.1875 48.8107L75.5625 35.0389Z" fill="white"/>
<path d="M27.7867 52.8332L14.3805 45.9473V28.5801L25.2883 36.6238L38.9383 41.8035L39.1211 41.9254L27.7867 52.8332Z" fill="#121519"/>
<path d="M39.1211 41.9254L27.7867 48.4457L2.43672 35.4051L14.3805 28.5801L39.1211 41.9254Z" fill="white"/>
<path d="M51.1875 49.4199C51.3094 49.4199 51.3703 49.4199 51.4922 49.359L75.8672 35.5871C76.05 35.4652 76.1719 35.2824 76.1719 35.0387C76.1719 34.7949 76.05 34.6121 75.8672 34.4902L64.5328 28.0309C64.35 27.909 64.1062 27.909 63.9234 28.0309L38.8172 41.4371C38.6344 41.559 38.5125 41.7418 38.5125 41.9855C38.5125 42.2293 38.6344 42.4121 38.8172 42.534L50.8828 49.359C50.9438 49.4199 51.0656 49.4199 51.1875 49.4199ZM74.3438 35.0387L51.1875 48.1402L40.4016 41.9855L64.2281 29.2496L74.3438 35.0387Z" fill="#6A576D"/>
<path d="M27.7867 49.0547C27.9086 49.0547 27.9695 49.0547 28.0914 48.9938L39.4258 42.4734C39.6086 42.3516 39.7305 42.1688 39.7305 41.925C39.7305 41.6813 39.6086 41.4984 39.4258 41.3766L14.6852 27.9703C14.5023 27.8484 14.2586 27.8484 14.0758 27.9703L2.13203 34.8562C1.94922 34.9781 1.82734 35.1609 1.82734 35.4047C1.82734 35.6484 1.94922 35.8312 2.13203 35.9531L27.482 48.9938C27.6039 49.0547 27.6648 49.0547 27.7867 49.0547ZM37.8414 41.925L27.7258 47.7141L3.65547 35.3437L14.4414 29.25L37.8414 41.925Z" fill="#6A576D"/>
</g>
</svg>
