<svg width="97" height="79" viewBox="0 0 97 79" fill="none" xmlns="http://www.w3.org/2000/svg">
<g clip-path="url(#clip0_2207_36302)">
<path d="M76.1384 32.5086C75.9747 31.6482 75.308 30.9529 74.466 30.7407L64.2795 28.195C62.7942 27.8532 61.8352 28.8196 61.5779 29.8686C61.3206 30.9057 61.7182 32.2139 63.1918 32.6147L68.6652 33.9818L58.0576 41.7486L53.2743 37.2111C52.5141 36.5629 51.4264 36.4922 50.5961 37.0461L35.3689 47.064C34.3281 47.7476 34.0357 49.1619 34.714 50.2108C35.0415 50.7176 35.5444 51.0712 36.1408 51.189C36.7256 51.3069 37.3337 51.2008 37.8366 50.8708L51.5785 41.8429L56.3384 46.3569C57.122 47.0994 58.3383 47.1819 59.2037 46.5454L75.2379 34.8068C75.9396 34.2882 76.2904 33.3925 76.1267 32.5322L76.1384 32.5086Z" fill="#E5E5E5"/>
<path d="M47.6956 27.7011C45.7659 27.0175 43.7543 26.6875 41.7311 26.6875C37.7664 26.6875 33.7783 27.9721 30.3867 30.4472C25.2759 34.1715 22.282 40.0172 22.3872 46.0869C22.3872 56.7766 31.0183 65.4745 41.6258 65.4745C47.6839 65.4745 53.4614 62.5398 57.0752 57.6251C57.812 56.6234 57.6015 55.1973 56.6074 54.443C55.6133 53.7005 54.1982 53.9126 53.4497 54.9144C49.6487 60.1119 43.2281 62.1627 37.0764 60.1237C30.9013 58.0848 26.9132 52.569 26.9016 46.0751C26.8197 41.4197 29.1119 36.9411 33.0298 34.089C36.9594 31.225 41.9065 30.4472 46.2922 31.9911C47.7307 32.4507 48.7599 31.5668 49.099 30.5414C49.4382 29.5161 49.1458 28.1843 47.7073 27.6775L47.6956 27.7011Z" fill="#E5E5E5"/>
<path d="M89.4445 53.3745C90.4907 53.3745 91.637 52.6087 91.6704 50.9241V19.3165C91.6704 14.8869 88.4317 11.2938 84.4473 11.2938H65.4602V6.25165C65.4602 2.7999 62.9338 -0.00390625 59.8286 -0.00390625H31.2144C28.1093 -0.00390625 25.5829 2.7999 25.5829 6.25165V13.7442C25.5717 14.4275 25.8277 15.099 26.2952 15.582C26.7515 16.0532 27.3302 16.2888 27.9201 16.2299H27.9423H63.1119C63.212 16.2417 63.2677 16.2417 63.3345 16.2299H84.4584C85.9832 16.2299 87.2186 17.6082 87.2186 19.2929V50.9123C87.252 52.5852 88.3983 53.3509 89.4556 53.3509L89.4445 53.3745ZM60.9973 11.2938H30.0347V6.26343C30.0347 5.54481 30.5578 4.95577 31.2033 4.95577H59.8175C60.463 4.95577 60.9861 5.54481 60.9861 6.26343V11.2938H60.9973Z" fill="#E5E5E5"/>
<path d="M91.6703 71.0343V62.1604C91.6703 60.8258 90.7087 59.737 89.5151 59.7019H89.4488C88.2219 59.7019 87.2272 60.8023 87.2272 62.1604V71.0343C87.2272 72.7201 86.0003 74.0898 84.4861 74.0898H7.17314C5.65893 74.0898 4.4321 72.7201 4.4321 71.0343V19.7342C4.4321 18.0484 5.65893 16.6786 7.17314 16.6786H18.3142C19.541 16.6786 20.5357 15.5782 20.5357 14.2085C20.5357 12.8387 19.541 11.7383 18.3142 11.7383H7.17314C3.21631 11.7383 0 15.3206 0 19.7108V71.0226C0 75.4244 3.21631 78.995 7.17314 78.995H84.4861C88.443 78.995 91.6593 75.4127 91.6593 71.0226L91.6703 71.0343Z" fill="#E5E5E5"/>
</g>
<defs>
<clipPath id="clip0_2207_36302">
<rect width="97" height="79" fill="white"/>
</clipPath>
</defs>
</svg>
