<svg width="20" height="20" viewBox="0 0 20 20" fill="none" xmlns="http://www.w3.org/2000/svg">
<path d="M10.0001 1.66699C14.6026 1.66699 18.3334 5.39783 18.3334 10.0003C18.3334 14.6028 14.6026 18.3337 10.0001 18.3337H3.33341C2.89139 18.3337 2.46746 18.1581 2.1549 17.8455C1.84234 17.5329 1.66675 17.109 1.66675 16.667V10.0003C1.66675 5.39783 5.39758 1.66699 10.0001 1.66699ZM10.0001 3.33366C8.23197 3.33366 6.53628 4.03604 5.28604 5.28628C4.03579 6.53652 3.33341 8.23222 3.33341 10.0003V16.667H10.0001C11.7682 16.667 13.4639 15.9646 14.7141 14.7144C15.9644 13.4641 16.6667 11.7684 16.6667 10.0003C16.6667 8.23222 15.9644 6.53652 14.7141 5.28628C13.4639 4.03604 11.7682 3.33366 10.0001 3.33366ZM10.0001 11.667C10.2125 11.6672 10.4168 11.7486 10.5712 11.8944C10.7257 12.0402 10.8186 12.2395 10.8311 12.4515C10.8435 12.6635 10.7745 12.8723 10.6382 13.0352C10.5019 13.1981 10.3085 13.3027 10.0976 13.3278L10.0001 13.3337H7.50008C7.28768 13.3334 7.08339 13.2521 6.92894 13.1063C6.77449 12.9605 6.68155 12.7612 6.6691 12.5492C6.65666 12.3371 6.72564 12.1283 6.86197 11.9655C6.99829 11.8026 7.19167 11.6979 7.40258 11.6728L7.50008 11.667H10.0001ZM12.5001 8.33366C12.7211 8.33366 12.9331 8.42146 13.0893 8.57774C13.2456 8.73402 13.3334 8.94598 13.3334 9.16699C13.3334 9.38801 13.2456 9.59997 13.0893 9.75625C12.9331 9.91253 12.7211 10.0003 12.5001 10.0003H7.50008C7.27907 10.0003 7.06711 9.91253 6.91083 9.75625C6.75455 9.59997 6.66675 9.38801 6.66675 9.16699C6.66675 8.94598 6.75455 8.73402 6.91083 8.57774C7.06711 8.42146 7.27907 8.33366 7.50008 8.33366H12.5001Z" fill="black"/>
</svg>
