<svg width="19" height="18" viewBox="0 0 19 18" fill="none" xmlns="http://www.w3.org/2000/svg">
<path d="M14.2213 5.33625C14.5133 5.04423 14.5133 4.57077 14.2213 4.27875C13.9292 3.98673 13.4558 3.98673 13.1638 4.27875L9.64142 7.80108C9.56332 7.87918 9.43668 7.87918 9.35858 7.80108L5.83625 4.27875C5.54423 3.98673 5.07077 3.98673 4.77875 4.27875C4.48673 4.57077 4.48673 5.04423 4.77875 5.33625L8.23037 8.78787C8.34753 8.90503 8.34753 9.09497 8.23037 9.21213L4.77875 12.6638C4.48673 12.9558 4.48673 13.4292 4.77875 13.7213C5.07077 14.0133 5.54423 14.0133 5.83625 13.7213L9.35858 10.1989C9.43668 10.1208 9.56332 10.1208 9.64142 10.1989L13.1638 13.7213C13.4558 14.0133 13.9292 14.0133 14.2213 13.7213C14.5133 13.4292 14.5133 12.9558 14.2213 12.6638L10.6989 9.14142C10.6208 9.06332 10.6208 8.93668 10.6989 8.85858L14.2213 5.33625Z" fill="#F63939"/>
</svg>
