<svg width="18" height="18" viewBox="0 0 18 18" fill="none" xmlns="http://www.w3.org/2000/svg">
<path d="M7.67564 7.67302C8.35598 6.99272 9.27179 6.59994 10.2336 6.57593C11.1954 6.55192 12.1297 6.89851 12.8431 7.54402L12.9789 7.67302L15.0999 9.79477C15.7907 10.4868 16.1838 11.4212 16.1956 12.3989C16.2074 13.3766 15.8368 14.3202 15.1629 15.0287C14.489 15.7371 13.5651 16.1543 12.588 16.1914C11.6109 16.2284 10.658 15.8824 9.93239 15.227L9.79739 15.098L8.20589 13.5065C8.07138 13.3715 7.99328 13.1904 7.98747 13C7.98165 12.8095 8.04855 12.624 8.17457 12.4811C8.3006 12.3381 8.4763 12.2485 8.66599 12.2305C8.85568 12.2124 9.04514 12.2672 9.19589 12.3838L9.26639 12.446L10.8579 14.0375C11.2704 14.4525 11.8284 14.6904 12.4135 14.7008C12.9985 14.7112 13.5646 14.4933 13.9917 14.0933C14.4187 13.6932 14.6731 13.1426 14.701 12.5581C14.7288 11.9736 14.5278 11.4013 14.1406 10.9625L14.0394 10.8553L11.9184 8.73427C11.7094 8.52529 11.4614 8.35953 11.1884 8.24643C10.9154 8.13333 10.6228 8.07512 10.3273 8.07512C10.0318 8.07512 9.73914 8.13333 9.46614 8.24643C9.19313 8.35953 8.94507 8.52529 8.73614 8.73427C8.59541 8.8749 8.40457 8.95386 8.20562 8.95379C8.00667 8.95372 7.81589 8.87462 7.67526 8.73389C7.53463 8.59316 7.45566 8.40233 7.45573 8.20338C7.4558 8.00442 7.53491 7.81365 7.67564 7.67302ZM2.90264 2.90002C3.58298 2.21972 4.49879 1.82694 5.46061 1.80293C6.42243 1.77892 7.35669 2.12551 8.07014 2.77102L8.20589 2.90002L9.79664 4.49227C9.93115 4.62723 10.0092 4.80834 10.0151 4.9988C10.0209 5.18927 9.95398 5.3748 9.82795 5.51772C9.70192 5.66065 9.52622 5.75024 9.33653 5.76832C9.14684 5.78639 8.95738 5.73157 8.80664 5.61502L8.73614 5.55277L7.14539 3.96202C6.73211 3.55143 6.1757 3.31715 5.59321 3.30845C5.01072 3.29974 4.44756 3.5173 4.02221 3.91536C3.59686 4.31341 3.34247 4.86092 3.31257 5.44271C3.28267 6.0245 3.47958 6.5952 3.86189 7.03477L3.96314 7.14277L6.08489 9.26451C6.50682 9.68633 7.07902 9.92328 7.67564 9.92328C8.27226 9.92328 8.84445 9.68633 9.26639 9.26451C9.33602 9.19483 9.4187 9.13955 9.5097 9.10182C9.60069 9.06409 9.69824 9.04465 9.79675 9.04461C9.89526 9.04458 9.99281 9.06395 10.0838 9.10161C10.1749 9.13928 10.2576 9.19451 10.3273 9.26414C10.3969 9.33377 10.4522 9.41645 10.49 9.50745C10.5277 9.59845 10.5471 9.69599 10.5472 9.7945C10.5472 9.89301 10.5278 9.99057 10.4902 10.0816C10.4525 10.1726 10.3973 10.2553 10.3276 10.325C9.64729 11.0053 8.73149 11.3981 7.76966 11.4221C6.80784 11.4461 5.87358 11.0995 5.16014 10.454L5.02364 10.325L2.90264 8.20327C2.19962 7.50004 1.80469 6.54638 1.80469 5.55202C1.80469 4.55765 2.19962 3.60324 2.90264 2.90002Z" fill="black"/>
</svg>
