<svg width="26" height="26" viewBox="0 0 26 26" fill="none" xmlns="http://www.w3.org/2000/svg">
<path d="M3 21.8516H17.877M21.8441 21.8516H22.8359" stroke="black" stroke-width="1.625" stroke-linecap="round" stroke-linejoin="round"/>
<path d="M3 17.2901V4.59508C3 4.43725 3.0627 4.28589 3.17429 4.17429C3.28589 4.0627 3.43725 4 3.59508 4H22.2409C22.3987 4 22.55 4.0627 22.6616 4.17429C22.7732 4.28589 22.8359 4.43725 22.8359 4.59508V17.2901C22.8359 17.4479 22.7732 17.5993 22.6616 17.7109C22.55 17.8225 22.3987 17.8852 22.2409 17.8852H3.59508C3.43725 17.8852 3.28589 17.8225 3.17429 17.7109C3.0627 17.5993 3 17.4479 3 17.2901Z" stroke="black" stroke-width="1.4"/>
</svg>
