<svg width="24" height="24" viewBox="0 0 24 24" fill="none" xmlns="http://www.w3.org/2000/svg">
<path d="M8.09688 10.8C9.13122 10.8 10.1232 10.3891 10.8546 9.65772C11.586 8.92632 11.9969 7.93434 11.9969 6.9C11.9969 5.86566 11.586 4.87368 10.8546 4.14228C10.1232 3.41089 9.13122 3 8.09688 3C7.06253 3 6.07055 3.41089 5.33916 4.14228C4.60777 4.87368 4.19688 5.86566 4.19688 6.9C4.19688 7.93434 4.60777 8.92632 5.33916 9.65772C6.07055 10.3891 7.06253 10.8 8.09688 10.8ZM10.7969 15C10.7968 14.3709 10.9946 13.7576 11.3622 13.247C11.7298 12.7365 12.2486 12.3544 12.8453 12.1548C12.5741 12.0524 12.2867 12 11.9969 12H4.19688C3.56036 12 2.94991 12.2529 2.49982 12.7029C2.04973 13.153 1.79688 13.7635 1.79688 14.4C1.79688 14.4 1.79688 19.2 8.09688 19.2C9.17328 19.2 10.0649 19.0596 10.8053 18.828C10.8001 18.7521 10.7973 18.6761 10.7969 18.6V15ZM20.3969 7.8C20.3969 8.59565 20.0808 9.35871 19.5182 9.92132C18.9556 10.4839 18.1925 10.8 17.3969 10.8C16.6012 10.8 15.8382 10.4839 15.2756 9.92132C14.7129 9.35871 14.3969 8.59565 14.3969 7.8C14.3969 7.00435 14.7129 6.24129 15.2756 5.67868C15.8382 5.11607 16.6012 4.8 17.3969 4.8C18.1925 4.8 18.9556 5.11607 19.5182 5.67868C20.0808 6.24129 20.3969 7.00435 20.3969 7.8ZM11.9969 15C11.9969 14.5226 12.1865 14.0648 12.5241 13.7272C12.8616 13.3896 13.3195 13.2 13.7969 13.2H20.9969C21.4743 13.2 21.9321 13.3896 22.2697 13.7272C22.6072 14.0648 22.7969 14.5226 22.7969 15V18.6C22.7969 19.0774 22.6072 19.5352 22.2697 19.8728C21.9321 20.2104 21.4743 20.4 20.9969 20.4H13.7969C13.3195 20.4 12.8616 20.2104 12.5241 19.8728C12.1865 19.5352 11.9969 19.0774 11.9969 18.6V15ZM13.1969 15V16.2C13.6743 16.2 14.1321 16.0104 14.4697 15.6728C14.8072 15.3352 14.9969 14.8774 14.9969 14.4H13.7969C13.7969 14.5591 13.7337 14.7117 13.6211 14.8243C13.5086 14.9368 13.356 15 13.1969 15ZM21.5969 16.2V15C21.4377 15 21.2851 14.9368 21.1726 14.8243C21.0601 14.7117 20.9969 14.5591 20.9969 14.4H19.7969C19.7969 14.8774 19.9865 15.3352 20.3241 15.6728C20.6616 16.0104 21.1195 16.2 21.5969 16.2ZM19.7969 19.2H20.9969C20.9969 19.0409 21.0601 18.8883 21.1726 18.7757C21.2851 18.6632 21.4377 18.6 21.5969 18.6V17.4C21.1195 17.4 20.6616 17.5896 20.3241 17.9272C19.9865 18.2648 19.7969 18.7226 19.7969 19.2ZM13.1969 17.4V18.6C13.356 18.6 13.5086 18.6632 13.6211 18.7757C13.7337 18.8883 13.7969 19.0409 13.7969 19.2H14.9969C14.9969 18.7226 14.8072 18.2648 14.4697 17.9272C14.1321 17.5896 13.6743 17.4 13.1969 17.4ZM17.3969 18.6C17.8743 18.6 18.3321 18.4104 18.6697 18.0728C19.0072 17.7352 19.1969 17.2774 19.1969 16.8C19.1969 16.3226 19.0072 15.8648 18.6697 15.5272C18.3321 15.1896 17.8743 15 17.3969 15C16.9195 15 16.4616 15.1896 16.1241 15.5272C15.7865 15.8648 15.5969 16.3226 15.5969 16.8C15.5969 17.2774 15.7865 17.7352 16.1241 18.0728C16.4616 18.4104 16.9195 18.6 17.3969 18.6Z" fill="black"/>
</svg>
