<svg width="68" height="68" viewBox="0 0 68 68" fill="none" xmlns="http://www.w3.org/2000/svg">
<g style="mix-blend-mode:luminosity" clip-path="url(#clip0_1066_15334)">
<path d="M28.7022 49.2414H39.3018C49.3246 49.2414 57.4492 41.1167 57.4492 31.0928V2.18278C57.4492 0.97753 56.4727 0.000976562 55.2674 0.000976562H12.7365C11.5313 0.000976562 10.5536 0.97753 10.5536 2.18278V31.0928C10.5536 41.1167 18.6794 49.2414 28.7022 49.2414Z" fill="#EDDE64"/>
<path d="M28.6987 45.7246H39.2983C47.5026 45.7246 53.9297 39.5449 53.9297 31.6558C53.9297 31.0087 53.4044 30.4834 52.7572 30.4834C52.1089 30.4834 51.5848 31.0087 51.5848 31.6558C51.5848 38.2294 46.1871 43.3798 39.2981 43.3798H28.6985C21.8095 43.3798 16.4131 38.2294 16.4131 31.6558C16.4131 31.0087 15.8878 30.4834 15.2406 30.4834C14.5922 30.4834 14.0682 31.0087 14.0682 31.6558C14.0684 39.5449 20.4943 45.7246 28.6987 45.7246Z" fill="#ECBA16"/>
<path d="M24.6207 60.9659H43.3789V58.5402C43.3789 57.2893 42.366 56.2764 41.115 56.2764H26.8845C25.6336 56.2764 24.6207 57.2893 24.6207 58.5402V60.9659Z" fill="#EDDE64"/>
<path d="M14.0683 67.9998H53.9297C53.9297 64.1063 50.7736 60.9502 46.8801 60.9502H21.118C17.2243 60.9502 14.0683 64.1063 14.0683 67.9998Z" fill="#ECBA16"/>
<path d="M5.68894 9.37988H10.5509V14.0694H5.68894C5.14256 14.0694 4.69832 14.6685 4.69832 15.2149V25.8497C4.69832 28.7068 6.22125 31.3952 8.6716 32.8664L10.83 34.1619C11.2791 36.7915 12.2791 39.2314 13.7305 41.3452L12.8711 40.8551L6.25764 36.8866C2.40282 34.5746 -0.000638008 30.3446 -0.000638008 25.8497V15.2149C-0.000638008 12.0823 2.55755 9.37988 5.68894 9.37988Z" fill="#ECBA16"/>
<path d="M28.7022 49.242H39.3018C39.4917 49.242 39.6758 49.2197 39.8633 49.2139V56.2763H28.1393V49.2139C28.3282 49.2197 28.5123 49.242 28.7022 49.242Z" fill="#ECBA16"/>
<path d="M12.7354 0.000976562H55.2662C56.4715 0.000976562 57.4492 0.97753 57.4492 2.18278V7.0354H10.5536V2.18291C10.5536 0.977663 11.5301 0.000976562 12.7354 0.000976562Z" fill="#ECBA16"/>
<path d="M34 12.8975L30.9177 18.7594H24.6208L29.3103 24.6214L28.1379 31.6558L33.9999 28.2336L39.8618 31.6558L38.6894 24.6214L43.3789 18.7594H37.082L34 12.8975Z" fill="#ECBA16"/>
<path d="M62.3104 9.37988H57.4485V14.0694H62.3104C62.8568 14.0694 63.301 14.6685 63.301 15.2149V25.8497C63.301 28.7068 61.7781 31.3952 59.3278 32.8664L57.1693 34.1619C56.7203 36.7915 55.7202 39.2314 54.2689 41.3452L55.1283 40.8551L61.7417 36.8866C65.5965 34.5746 68 30.3446 68 25.8497V15.2149C68 12.0823 65.4418 9.37988 62.3104 9.37988Z" fill="#ECBA16"/>
</g>
<defs>
<clipPath id="clip0_1066_15334">
<rect width="68" height="68" fill="white" transform="matrix(-1 0 0 1 68 0)"/>
</clipPath>
</defs>
</svg>
