<svg width="24" height="24" viewBox="0 0 24 24" fill="none" xmlns="http://www.w3.org/2000/svg">
<g opacity="0.5">
<path fill-rule="evenodd" clip-rule="evenodd" d="M12 2C17.5228 2 22 6.47713 22 12C22 17.5228 17.5228 22 12 22C6.47717 22 2 17.5228 2 12C2 6.47713 6.47717 2 12 2ZM12 15.25C11.3096 15.25 10.7499 15.8096 10.7499 16.5C10.7499 17.1904 11.3096 17.75 11.9999 17.75C12.6903 17.75 13.25 17.1904 13.25 16.5C13.25 15.8096 12.6903 15.25 11.9999 15.25M11.8331 6.37508C10.8597 6.37508 10.0416 6.64025 9.37972 7.16914C8.59541 7.8027 8.20358 8.73833 8.20358 9.97686H10.3299V9.96261C10.3299 9.49006 10.4294 9.10245 10.628 8.80011C10.902 8.3937 11.3465 8.19027 11.9609 8.19027C12.3391 8.19027 12.6609 8.28955 12.9252 8.48773C13.2558 8.76233 13.4217 9.17797 13.4217 9.73573C13.4217 10.0856 13.3362 10.3973 13.1662 10.6716C13.0244 10.9174 12.7976 11.1582 12.4852 11.3947C11.8236 11.8484 11.3934 12.2975 11.1952 12.742C11.025 13.1106 10.9395 13.6967 10.9395 14.5H12.9395C12.9395 13.9705 13.0098 13.5738 13.1523 13.3089C13.2655 13.0915 13.5021 12.8601 13.8613 12.6141C14.4855 12.1508 14.9294 11.7205 15.1943 11.3235C15.5155 10.851 15.6765 10.2978 15.6765 9.66425C15.6765 8.35128 15.1425 7.41997 14.0736 6.87144C13.4312 6.54064 12.6844 6.37498 11.8331 6.37498" fill="black"/>
</g>
</svg>
