<svg width="18" height="18" viewBox="0 0 18 18" fill="none" xmlns="http://www.w3.org/2000/svg">
<path fill-rule="evenodd" clip-rule="evenodd" d="M4.5 8.4447C4.5 7.50874 5.25186 6.75 6.19283 6.75H11.8072C12.7421 6.75 13.5 7.51102 13.5 8.4447V14.6279C13.5 15.869 12.5025 16.875 11.2521 16.875H6.74786C5.5064 16.875 4.5 15.8672 4.5 14.6279V8.4447ZM12.375 3.375H5.625V1.6875C5.625 1.37812 5.87812 1.125 6.1875 1.125H11.8125C12.1219 1.125 12.375 1.37812 12.375 1.6875V3.375ZM3.375 4.5C3.375 3.87868 3.88762 3.375 4.49482 3.375H13.5052C14.1236 3.375 14.625 3.87435 14.625 4.5C14.625 5.12132 14.1124 5.625 13.5052 5.625H4.49482C3.87636 5.625 3.375 5.12565 3.375 4.5ZM6.75 3.375H11.25V2.25H6.75V3.375Z" fill="black"/>
</svg>
