<svg width="101" height="100" viewBox="0 0 101 100" fill="none" xmlns="http://www.w3.org/2000/svg">
<g opacity="0.1">
<path d="M25.5035 9.82279C25.5035 9.33213 25.3686 8.8509 25.1138 8.43164C24.8589 8.01237 24.4937 7.67118 24.0581 7.44528C23.6226 7.21939 23.1333 7.11748 22.6438 7.15067C22.1542 7.18386 21.6832 7.35088 21.2821 7.63351C15.4142 11.7656 11.9357 15.3728 9.96425 18.8585C7.94639 22.4299 7.64639 25.6335 7.64639 28.5728C7.64639 32.6085 9.55711 36.1942 12.5214 38.4799C11.2461 39.6771 10.2362 41.1286 9.55711 42.7406C7.93925 46.4371 7.64282 50.9656 7.64282 54.5978C7.64282 60.5371 8.58925 69.6335 10.3214 77.2799C11.1857 81.0906 12.2785 84.7014 13.625 87.4228C14.2964 88.7764 15.1 90.0514 16.0821 91.0228C17.0714 92.0049 18.4392 92.8585 20.1535 92.8585C21.8678 92.8585 23.2321 92.0049 24.225 91.0228C25.2035 90.0514 26.0071 88.7728 26.675 87.4192C28.0214 84.7014 29.1107 81.0906 29.9714 77.2764C31.7 69.6335 32.6428 60.5371 32.6428 54.5978C32.6428 50.9656 32.3535 46.4406 30.7392 42.7406C30.0606 41.1274 29.0507 39.6746 27.775 38.4764C29.2908 37.3086 30.5183 35.8084 31.3629 34.0913C32.2075 32.3743 32.6466 30.4863 32.6464 28.5728C32.6464 24.5514 30.675 21.7621 29.0928 19.5228L28.6 18.8192C26.9428 16.4264 25.5035 14.0014 25.5035 9.82279ZM20.0535 41.0728H20.2464C21.85 41.0906 22.9428 41.5085 23.7428 42.0871C24.5833 42.6895 25.2785 43.6228 25.8285 44.8871C26.9714 47.5049 27.2857 51.0799 27.2857 54.6014C27.2857 60.1264 26.3928 68.8228 24.75 76.1014C23.9214 79.7514 22.9428 82.8871 21.875 85.0442C21.3393 86.1299 20.8464 86.8299 20.45 87.2192C20.3605 87.3131 20.2611 87.3969 20.1535 87.4692C20.0447 87.3971 19.9441 87.3133 19.8535 87.2192C19.4571 86.8264 18.9643 86.1299 18.425 85.0406C17.3535 82.8835 16.375 79.7478 15.5464 76.0978C13.9 68.8228 13 60.1264 13 54.5978C13 51.0835 13.3178 47.5085 14.4643 44.8906C15.0166 43.6287 15.7142 42.6954 16.5571 42.0906C17.3571 41.5085 18.4535 41.0906 20.0535 41.0728ZM20.2428 35.7156H20.0571C18.1776 35.6931 16.3827 34.9306 15.0617 33.5935C13.7406 32.2564 12.9998 30.4524 13 28.5728C13 26.0871 13.2464 23.9335 14.625 21.4978C15.6964 19.5978 17.5321 17.3978 20.7321 14.7621C21.5 17.7835 22.8964 19.9942 24.1892 21.8692L24.6178 22.4799C26.3 24.9014 27.2857 26.3228 27.2857 28.5728C27.2858 30.4506 26.5466 32.253 25.2278 33.5898C23.909 34.9266 22.1205 35.6903 20.2428 35.7156ZM45.1428 16.0728C40.8214 16.0728 36.8 17.3514 33.4321 19.5514C32.925 18.7371 32.4214 18.0371 32 17.4442L31.5357 16.7871C31.1502 16.2411 30.7869 15.68 30.4464 15.1049C34.3594 12.5373 38.8769 11.0397 43.5488 10.7614C48.2207 10.4831 52.884 11.4338 57.0742 13.5187C61.2643 15.6037 64.8351 18.7501 67.4306 22.6447C70.0262 26.5392 71.5561 31.0458 71.8678 35.7156H79.9642C83.5156 35.7156 86.9216 37.1262 89.4332 39.6371C91.9447 42.1479 93.3562 45.5535 93.3571 49.1049V72.3192C93.3576 74.0783 93.0115 75.8202 92.3387 77.4455C91.6658 79.0708 90.6794 80.5477 89.4357 81.7917C88.192 83.0357 86.7154 84.0226 85.0903 84.6958C83.4652 85.3691 81.7233 85.7156 79.9642 85.7156H56.75C53.198 85.7156 49.7914 84.3046 47.2798 81.793C44.7681 79.2813 43.3571 75.8748 43.3571 72.3228L43.3571 64.2299C40.7795 64.0594 38.2401 63.5169 35.8178 62.6192C35.9964 60.6192 36.1143 58.7121 36.175 56.9692C38.3892 57.9906 40.8107 58.6478 43.3571 58.8585V49.1085C43.3571 45.5565 44.7681 42.15 47.2798 39.6383C49.7914 37.1267 53.198 35.7156 56.75 35.7156H66.5C66.0521 30.3597 63.6079 25.3677 59.652 21.7293C55.6961 18.091 50.5174 16.072 45.1428 16.0728ZM71.6928 41.0728C70.9083 46.8911 68.235 52.2908 64.0836 56.4422C59.9322 60.5935 54.5325 63.2669 48.7142 64.0514L48.7142 72.3228C48.7142 74.454 49.5609 76.4979 51.0679 78.0049C52.5748 79.5119 54.6188 80.3585 56.75 80.3585H79.9642C82.0955 80.3585 84.1394 79.5119 85.6464 78.0049C87.1533 76.4979 88 74.454 88 72.3228V49.1085C88 46.9773 87.1533 44.9334 85.6464 43.4264C84.1394 41.9194 82.0955 41.0728 79.9642 41.0728H71.6928ZM66.275 41.0728H56.75C54.6188 41.0728 52.5748 41.9194 51.0679 43.4264C49.5609 44.9334 48.7142 46.9773 48.7142 49.1085V58.6335C53.1014 57.8899 57.1486 55.8 60.2951 52.6536C63.4415 49.5072 65.5313 45.4599 66.275 41.0728Z" fill="black"/>
</g>
</svg>
