<svg width="123" height="20" viewBox="0 0 123 20" fill="none" xmlns="http://www.w3.org/2000/svg">
<path d="M9.87891 16V5.91016H9.73828L2.88281 16H1.31836V3.31738H2.88281V13.4424H3.02344L9.87891 3.31738H11.4434V16H9.87891ZM15.3457 16H13.834V6.85938H15.6885L18.9404 13.9785H19.0107L22.2803 6.85938H24.0645V16H22.5439V9.51367H22.4824L19.5293 15.7363H18.3604L15.4072 9.51367H15.3457V16ZM29.4961 11.4912H31.2451V8.11621H29.4961C28.3096 8.11621 27.5537 8.7666 27.5537 9.86523C27.5537 10.8145 28.3184 11.4912 29.4961 11.4912ZM31.2451 16V12.748H29.6279L27.3076 16H25.5586L28.1074 12.4668C26.8154 12.0977 26.0332 11.1484 26.0332 9.8916C26.0332 8.01074 27.3867 6.85938 29.4873 6.85938H32.7568V16H31.2451ZM48.4893 16.2988C45.0703 16.2988 42.9609 13.9521 42.7676 10.2256H40.4297V16H38.8477V3.31738H40.4297V8.80176H42.7852C43.0752 5.22461 45.2109 3.01855 48.4893 3.01855C52.04 3.01855 54.2021 5.58496 54.2021 9.6543C54.2021 13.7061 52.0576 16.2988 48.4893 16.2988ZM48.4893 4.47754C45.958 4.47754 44.376 6.48145 44.376 9.6543C44.376 12.8008 45.9053 14.8398 48.4893 14.8398C51.0381 14.8398 52.5762 12.8008 52.5762 9.6543C52.5762 6.48145 51.0293 4.47754 48.4893 4.47754ZM59.1592 16.1582C57.1553 16.1582 55.7051 15.1738 55.5469 13.627H57.0938C57.2695 14.4268 58.0254 14.8926 59.1592 14.8926C60.4863 14.8926 61.2246 14.2598 61.2246 13.3721C61.2246 12.3438 60.5391 11.8779 59.1592 11.8779H57.7881V10.6299H59.1592C60.3193 10.6299 60.917 10.1904 60.917 9.29395C60.917 8.5293 60.3721 7.97559 59.1943 7.97559C58.1133 7.97559 57.3574 8.44141 57.2344 9.1709H55.749C55.9424 7.65918 57.2607 6.70117 59.1943 6.70117C61.2773 6.70117 62.4111 7.70312 62.4111 9.1709C62.4111 10.1025 61.8135 10.9287 60.8994 11.1396V11.21C62.1035 11.4736 62.7275 12.2471 62.7275 13.3018C62.7275 15.0068 61.3037 16.1582 59.1592 16.1582ZM68.1504 8.02832C66.7178 8.02832 65.7158 9.12695 65.6191 10.6475H70.585C70.5498 9.11816 69.5918 8.02832 68.1504 8.02832ZM70.5498 13.3809H72.0527C71.7891 14.9805 70.2422 16.1582 68.2471 16.1582C65.6279 16.1582 64.0371 14.3389 64.0371 11.4648C64.0371 8.62598 65.6543 6.70117 68.1768 6.70117C70.6465 6.70117 72.167 8.49414 72.167 11.2627V11.8428H65.6104V11.9307C65.6104 13.6797 66.6387 14.8311 68.2822 14.8311C69.4424 14.8311 70.2949 14.2422 70.5498 13.3809ZM78.3105 6.70117C80.6396 6.70117 82.2217 8.56445 82.2217 11.4297C82.2217 14.2949 80.6484 16.1582 78.3457 16.1582C77.0361 16.1582 75.9814 15.5166 75.4365 14.5146H75.4014V19.0498H73.8721V6.85938H75.3223V8.40625H75.3574C75.9199 7.37793 76.9834 6.70117 78.3105 6.70117ZM78.0117 14.8135C79.6377 14.8135 80.6572 13.5039 80.6572 11.4297C80.6572 9.36426 79.6377 8.0459 78.0117 8.0459C76.4473 8.0459 75.3926 9.39941 75.3926 11.4297C75.3926 13.4688 76.4473 14.8135 78.0117 14.8135ZM86.9414 14.8574C88.3828 14.8574 89.4902 13.8467 89.4902 12.5283V11.7812L87.0469 11.9307C85.8164 12.0098 85.1133 12.5547 85.1133 13.416C85.1133 14.2861 85.8428 14.8574 86.9414 14.8574ZM86.5986 16.1582C84.7793 16.1582 83.5576 15.0596 83.5576 13.416C83.5576 11.8516 84.7617 10.8672 86.8711 10.7441L89.4902 10.5947V9.83008C89.4902 8.71387 88.752 8.0459 87.4863 8.0459C86.3086 8.0459 85.5703 8.59961 85.377 9.49609H83.9004C84.0059 7.91406 85.3594 6.70117 87.5215 6.70117C89.666 6.70117 91.0195 7.86133 91.0195 9.68066V16H89.5693V14.4268H89.5342C88.9893 15.4727 87.8291 16.1582 86.5986 16.1582Z" fill="black"/>
<path d="M103.832 10C103.832 10.442 104.007 10.8659 104.32 11.1785C104.632 11.4911 105.056 11.6667 105.498 11.6667L110.765 11.6667L109.965 15.475C109.948 15.5583 109.94 15.65 109.94 15.7417C109.94 16.0833 110.082 16.4 110.307 16.625L111.19 17.5L116.673 12.0167C116.982 11.7083 117.165 11.2917 117.165 10.8333L117.165 2.5C117.165 2.05797 116.989 1.63405 116.677 1.32149C116.364 1.00893 115.94 0.833333 115.498 0.833333L107.998 0.833333C107.307 0.833333 106.715 1.25 106.465 1.85L103.948 7.725C103.873 7.91667 103.832 8.11667 103.832 8.33333L103.832 10ZM122.165 0.833334L118.832 0.833334L118.832 10.8333L122.165 10.8333L122.165 0.833334Z" fill="#F63939"/>
</svg>
