<svg width="12" height="14" viewBox="0 0 12 14" fill="none" xmlns="http://www.w3.org/2000/svg">
<path d="M8.64219 2.04199H10.0859C10.2406 2.04199 10.389 2.10345 10.4984 2.21285C10.6078 2.32224 10.6693 2.47062 10.6693 2.62533V12.2503C10.6693 12.405 10.6078 12.5534 10.4984 12.6628C10.389 12.7722 10.2406 12.8337 10.0859 12.8337H1.91927C1.76456 12.8337 1.61619 12.7722 1.50679 12.6628C1.3974 12.5534 1.33594 12.405 1.33594 12.2503V2.62533C1.33594 2.47062 1.3974 2.32224 1.50679 2.21285C1.61619 2.10345 1.76456 2.04199 1.91927 2.04199H3.96094V2.91699H8.04427V2.04199H8.64219Z" stroke="black" stroke-width="1.16667" stroke-linejoin="round"/>
<path d="M6.8776 5.54199L4.54427 7.87562H7.4621L5.1276 10.209M3.96094 1.16699H8.04427V2.91699H3.96094V1.16699Z" stroke="black" stroke-width="1.16667" stroke-linecap="round" stroke-linejoin="round"/>
</svg>
