<svg width="24" height="24" viewBox="0 0 24 24" fill="none" xmlns="http://www.w3.org/2000/svg">
<path d="M6.4985 9.18182V3H17.375L20 5.70455V20H14.75M16.25 3V6.86364H20M8.75 15.3636C8.45453 15.3636 8.16194 15.3037 7.88896 15.1872C7.61598 15.0707 7.36794 14.8999 7.15901 14.6847C6.95008 14.4694 6.78434 14.2138 6.67127 13.9326C6.5582 13.6513 6.5 13.3499 6.5 13.0455C6.5 12.741 6.5582 12.4396 6.67127 12.1583C6.78434 11.8771 6.95008 11.6215 7.15901 11.4063C7.36794 11.191 7.61598 11.0202 7.88896 10.9037C8.16194 10.7872 8.45453 10.7273 8.75 10.7273C9.34674 10.7273 9.91903 10.9715 10.341 11.4063C10.7629 11.841 11 12.4306 11 13.0455C11 13.6603 10.7629 14.2499 10.341 14.6847C9.91903 15.1194 9.34674 15.3636 8.75 15.3636ZM8.75 15.3636C7.25 15.3636 5 16.1364 5 19.2273V20H12.5V19.2273C12.5 16.1364 10.25 15.3636 8.75 15.3636Z" stroke="black" stroke-width="2"/>
</svg>
