<svg width="16" height="16" viewBox="0 0 16 16" fill="none" xmlns="http://www.w3.org/2000/svg">
<path fill-rule="evenodd" clip-rule="evenodd" d="M8.00065 14.6673C8.87613 14.6673 9.74304 14.4949 10.5519 14.1598C11.3607 13.8248 12.0956 13.3338 12.7147 12.7147C13.3338 12.0956 13.8248 11.3607 14.1598 10.5519C14.4949 9.74304 14.6673 8.87613 14.6673 8.00065C14.6673 7.12517 14.4949 6.25827 14.1598 5.44943C13.8248 4.64059 13.3338 3.90566 12.7147 3.28661C12.0956 2.66755 11.3607 2.17649 10.5519 1.84145C9.74304 1.50642 8.87613 1.33398 8.00065 1.33398C6.23254 1.33398 4.53685 2.03636 3.28661 3.28661C2.03636 4.53685 1.33398 6.23254 1.33398 8.00065C1.33398 9.76876 2.03636 11.4645 3.28661 12.7147C4.53685 13.9649 6.23254 14.6673 8.00065 14.6673ZM11.5325 6.2525C11.5975 6.17816 11.647 6.09157 11.6781 5.99781C11.7092 5.90406 11.7212 5.80503 11.7134 5.70657C11.7057 5.6081 11.6783 5.51218 11.6329 5.42445C11.5876 5.33672 11.5251 5.25895 11.4492 5.19572C11.3733 5.13249 11.2856 5.08507 11.1911 5.05625C11.0966 5.02744 10.9973 5.01781 10.8991 5.02793C10.8008 5.03805 10.7056 5.06772 10.619 5.11519C10.5324 5.16267 10.4561 5.22698 10.3947 5.30435L7.72954 8.50213C7.4725 8.81028 7.32806 8.98139 7.21324 9.08584L7.2088 9.09028L7.20361 9.08658C7.07917 8.9925 6.91991 8.83547 6.63695 8.55176L5.56139 7.47695C5.42169 7.34202 5.23457 7.26735 5.04035 7.26904C4.84613 7.27073 4.66035 7.34863 4.52301 7.48597C4.38567 7.62331 4.30777 7.8091 4.30608 8.00332C4.30439 8.19754 4.37905 8.38465 4.51398 8.52435L5.5888 9.59917L5.61917 9.62954C5.86139 9.87176 6.09324 10.1044 6.31028 10.2681C6.5525 10.4518 6.87028 10.6236 7.27695 10.6058C7.68436 10.5873 7.9851 10.3866 8.21028 10.1821C8.41028 9.99917 8.62139 9.74658 8.83991 9.48361L8.86732 9.45102L11.5325 6.2525Z" fill="#2E552C"/>
</svg>
