<svg width="48" height="48" viewBox="0 0 48 48" fill="none" xmlns="http://www.w3.org/2000/svg">
<rect x="0.75" y="0.75" width="46.5" height="46.5" rx="9.25" stroke="url(#paint0_linear_2165_3825)" stroke-width="1.5"/>
<path d="M16.5 18.2C16.5 17.08 16.5 16.52 16.7725 16.092C17.0122 15.7157 17.3946 15.4097 17.865 15.218C18.4 15 19.1 15 20.5 15H27.5C28.9 15 29.6 15 30.135 15.218C30.6054 15.4097 30.9878 15.7157 31.2275 16.092C31.5 16.52 31.5 17.08 31.5 18.2V31.505C31.5 31.991 31.5 32.234 31.3738 32.367C31.3192 32.4248 31.2496 32.4725 31.1697 32.5067C31.0899 32.5409 31.0017 32.5608 30.9112 32.565C30.7025 32.575 30.45 32.44 29.945 32.171L24 29L18.055 32.17C17.55 32.44 17.2975 32.575 17.0875 32.565C16.9973 32.5606 16.9093 32.5407 16.8297 32.5065C16.7501 32.4723 16.6807 32.4247 16.6262 32.367C16.5 32.234 16.5 31.991 16.5 31.505V18.2Z" fill="url(#paint1_linear_2165_3825)"/>
<defs>
<linearGradient id="paint0_linear_2165_3825" x1="24" y1="0" x2="24" y2="48" gradientUnits="userSpaceOnUse">
<stop stop-color="#543BA7"/>
<stop offset="1" stop-color="#7F78E9"/>
</linearGradient>
<linearGradient id="paint1_linear_2165_3825" x1="24" y1="15" x2="24" y2="32.5655" gradientUnits="userSpaceOnUse">
<stop stop-color="#543BA7"/>
<stop offset="1" stop-color="#7F78E9"/>
</linearGradient>
</defs>
</svg>
