<svg width="14" height="14" viewBox="0 0 14 14" fill="none" xmlns="http://www.w3.org/2000/svg">
<g opacity="0.5">
<path d="M2.84375 2.1875C2.32161 2.1875 1.82085 2.39492 1.45163 2.76413C1.08242 3.13335 0.875 3.63411 0.875 4.15625V4.8125H13.125V4.15625C13.125 3.63411 12.9176 3.13335 12.5484 2.76413C12.1792 2.39492 11.6784 2.1875 11.1562 2.1875H2.84375ZM0.875 9.84375V5.6875H13.125V9.84375C13.125 10.3659 12.9176 10.8667 12.5484 11.2359C12.1792 11.6051 11.6784 11.8125 11.1562 11.8125H2.84375C2.32161 11.8125 1.82085 11.6051 1.45163 11.2359C1.08242 10.8667 0.875 10.3659 0.875 9.84375ZM9.1875 8.3125C9.07147 8.3125 8.96019 8.35859 8.87814 8.44064C8.79609 8.52269 8.75 8.63397 8.75 8.75C8.75 8.86603 8.79609 8.97731 8.87814 9.05936C8.96019 9.14141 9.07147 9.1875 9.1875 9.1875H10.5C10.616 9.1875 10.7273 9.14141 10.8094 9.05936C10.8914 8.97731 10.9375 8.86603 10.9375 8.75C10.9375 8.63397 10.8914 8.52269 10.8094 8.44064C10.7273 8.35859 10.616 8.3125 10.5 8.3125H9.1875Z" fill="black"/>
</g>
</svg>
