<svg width="40" height="40" viewBox="0 0 40 40" fill="none" xmlns="http://www.w3.org/2000/svg">
<rect width="40" height="40" rx="12" fill="#8085E6"/>
<path d="M27.9161 13.8289C28.3086 12.7431 27.2564 11.6908 26.1705 12.0843L12.8994 16.8839C11.8099 17.2782 11.6782 18.7648 12.6804 19.3455L16.9166 21.7979L20.6994 18.0152C20.8708 17.8496 21.1003 17.7581 21.3386 17.7601C21.5768 17.7622 21.8047 17.8578 21.9732 18.0262C22.1417 18.1947 22.2372 18.4226 22.2393 18.6609C22.2414 18.8991 22.1498 19.1286 21.9843 19.3L18.2015 23.0828L20.6549 27.319C21.2346 28.3213 22.7212 28.1886 23.1156 27.1L27.9161 13.8289Z" fill="white"/>
</svg>
