<svg width="15" height="16" viewBox="0 0 15 16" fill="none" xmlns="http://www.w3.org/2000/svg">
<path d="M7.5 14.5625C3.88125 14.5625 0.9375 11.6187 0.9375 8C0.9375 4.38125 3.88125 1.4375 7.5 1.4375C11.1187 1.4375 14.0625 4.38125 14.0625 8C14.0625 11.6187 11.1187 14.5625 7.5 14.5625ZM7.5 2.375C4.39688 2.375 1.875 4.89688 1.875 8C1.875 11.1031 4.39688 13.625 7.5 13.625C10.6031 13.625 13.125 11.1031 13.125 8C13.125 4.89688 10.6031 2.375 7.5 2.375Z" fill="url(#paint0_linear_1813_26404)"/>
<path d="M7.5 11.2812C7.2375 11.2812 7.03125 11.075 7.03125 10.8125V5.1875C7.03125 4.925 7.2375 4.71875 7.5 4.71875C7.7625 4.71875 7.96875 4.925 7.96875 5.1875V10.8125C7.96875 11.075 7.7625 11.2812 7.5 11.2812Z" fill="url(#paint1_linear_1813_26404)"/>
<path d="M10.3125 8.46875H4.6875C4.425 8.46875 4.21875 8.2625 4.21875 8C4.21875 7.7375 4.425 7.53125 4.6875 7.53125H10.3125C10.575 7.53125 10.7812 7.7375 10.7812 8C10.7812 8.2625 10.575 8.46875 10.3125 8.46875Z" fill="url(#paint2_linear_1813_26404)"/>
<defs>
<linearGradient id="paint0_linear_1813_26404" x1="7.5" y1="1.4375" x2="7.5" y2="14.5625" gradientUnits="userSpaceOnUse">
<stop stop-color="#543BA7"/>
<stop offset="1" stop-color="#7F78E9"/>
</linearGradient>
<linearGradient id="paint1_linear_1813_26404" x1="7.5" y1="4.71875" x2="7.5" y2="11.2812" gradientUnits="userSpaceOnUse">
<stop stop-color="#543BA7"/>
<stop offset="1" stop-color="#7F78E9"/>
</linearGradient>
<linearGradient id="paint2_linear_1813_26404" x1="7.5" y1="7.53125" x2="7.5" y2="8.46875" gradientUnits="userSpaceOnUse">
<stop stop-color="#543BA7"/>
<stop offset="1" stop-color="#7F78E9"/>
</linearGradient>
</defs>
</svg>
