<svg width="830" height="297" viewBox="0 0 830 297" fill="none" xmlns="http://www.w3.org/2000/svg">
<rect width="830" height="297" rx="10" fill="#D9D9D9" fill-opacity="0.5"/>
<rect x="520.5" y="20.5" width="73.9812" height="23" rx="4.5" stroke="black"/>
<path fill-rule="evenodd" clip-rule="evenodd" d="M536.708 28.4672L538.418 30.6669C538.669 30.9894 538.539 31.2549 538.124 31.2549H537.001V35.7527C537.001 35.8515 536.983 35.9496 536.945 36.0411C536.908 36.1326 536.853 36.2158 536.783 36.2858C536.713 36.3558 536.63 36.4112 536.539 36.4489C536.447 36.4865 536.349 36.5055 536.251 36.5049C535.834 36.5049 535.501 36.1682 535.501 35.7527V31.2549H534.377C533.961 31.2549 533.83 30.9924 534.083 30.6669L535.793 28.4679C536.044 28.1454 536.455 28.1432 536.708 28.4679V28.4672ZM532.208 35.5292C531.955 35.8539 531.544 35.8517 531.293 35.5292L529.583 33.3302C529.33 33.0047 529.461 32.7422 529.877 32.7422H531.001V28.2444C531 28.1457 531.019 28.0479 531.057 27.9566C531.094 27.8653 531.15 27.7823 531.219 27.7124C531.289 27.6425 531.372 27.5871 531.463 27.5493C531.554 27.5115 531.652 27.4921 531.751 27.4922C532.165 27.4922 532.501 27.8207 532.501 28.2444V32.7422H533.624C534.039 32.7422 534.169 33.0069 533.918 33.3302L532.208 35.5292Z" fill="#333333"/>
<path d="M548.236 36.0586V35.2324C545.945 35.168 544.504 33.8145 544.504 31.752V31.7402C544.504 29.6543 545.945 28.3066 548.236 28.2539V27.4863H549.279V28.2539C551.57 28.3066 553.012 29.6543 553.012 31.7402V31.752C553.012 33.8145 551.57 35.168 549.279 35.2324V36.0586H548.236ZM545.582 31.752C545.582 33.252 546.59 34.2246 548.236 34.2891V29.1973C546.59 29.25 545.582 30.2285 545.582 31.7402V31.752ZM549.279 29.1973V34.2891C550.926 34.2246 551.934 33.252 551.934 31.752V31.7402C551.934 30.2285 550.926 29.25 549.279 29.1973ZM554.23 36V29.9062H555.25V34.4355H555.297L558.332 29.9062H559.34V36H558.32V31.4707H558.273L555.238 36H554.23ZM562.463 33.3164C562.334 34.998 561.941 36.0586 560.646 36.0586C560.453 36.0586 560.301 36.0293 560.219 36V35.0801C560.271 35.0977 560.383 35.1211 560.541 35.1211C561.191 35.1211 561.414 34.4121 561.496 33.293L561.736 29.9062H566.02V36H565V30.75H562.656L562.463 33.3164ZM567.461 36V29.9062H568.48V31.8516H569.623C571.018 31.8516 571.914 32.6543 571.914 33.9199V33.9316C571.914 35.1973 571.018 36 569.623 36H567.461ZM569.605 32.6953H568.48V35.1562H569.605C570.385 35.1562 570.871 34.6699 570.871 33.9316V33.9199C570.871 33.1758 570.379 32.6953 569.605 32.6953ZM576.959 29.9062V30.75H574.996V36H573.977V30.75H572.014V29.9062H576.959ZM577.908 38.0508V29.9062H578.928V30.9375H578.951C579.332 30.2285 580.012 29.7891 580.885 29.7891C582.443 29.7891 583.475 31.0312 583.475 32.9531V32.959C583.475 34.8809 582.432 36.1172 580.902 36.1172C580.041 36.1172 579.332 35.6836 578.951 34.9805H578.928V38.0508H577.908ZM580.686 35.2148C581.764 35.2148 582.432 34.3477 582.432 32.959V32.9531C582.432 31.5527 581.764 30.6914 580.686 30.6914C579.654 30.6914 578.922 31.5879 578.922 32.9531V32.959C578.922 34.3184 579.66 35.2148 580.686 35.2148Z" fill="black"/>
<path d="M25.2363 31.1641C22.3926 31.1641 20.6152 29.209 20.6152 26.0713V26.0576C20.6152 22.9268 22.3994 20.9717 25.2363 20.9717C28.0801 20.9717 29.8574 22.9336 29.8574 26.0576V26.0713C29.8574 29.2021 28.0869 31.1641 25.2363 31.1641ZM25.2363 29.8105C27.1299 29.8105 28.292 28.3477 28.292 26.0713V26.0576C28.292 23.7676 27.1094 22.3252 25.2363 22.3252C23.3701 22.3252 22.1738 23.7607 22.1738 26.0576V26.0713C22.1738 28.3682 23.3633 29.8105 25.2363 29.8105ZM34.4648 31.1436C32.2158 31.1436 31.0059 29.6738 31.0059 26.8438V26.8301C31.0059 22.8516 32.168 21.2451 34.8955 21.1426L35.5381 21.1221C36.2764 21.0947 37.0146 20.9648 37.418 20.7666V21.9902C37.1787 22.1816 36.4473 22.3389 35.6201 22.3662L34.9912 22.3936C33.1045 22.4619 32.4893 23.2959 32.209 25.2578L32.1953 25.3535H32.2295C32.6943 24.499 33.5693 24.041 34.7041 24.041C36.6455 24.041 37.8896 25.3877 37.8896 27.4863V27.5C37.8896 29.7559 36.584 31.1436 34.4648 31.1436ZM34.4512 29.9062C35.668 29.9062 36.3789 29.0449 36.3789 27.5205V27.5068C36.3789 26.0645 35.668 25.251 34.4512 25.251C33.2275 25.251 32.5166 26.0645 32.5166 27.5068V27.5205C32.5166 29.0449 33.2207 29.9062 34.4512 29.9062ZM39.168 31V23.8086H40.6445V29.8174H43.0439V23.8086H44.5273V29.8174H46.9268V23.8086H48.4033V29.8311H49.5107V32.9482H48.1709V31H39.168ZM52.6279 31.1299C51.1924 31.1299 50.2285 30.248 50.2285 28.9561V28.9424C50.2285 27.6914 51.1992 26.9258 52.9014 26.8232L54.8633 26.707V26.167C54.8633 25.374 54.3438 24.8955 53.4277 24.8955C52.5732 24.8955 52.0469 25.2988 51.9238 25.873L51.9102 25.9346H50.5156L50.5225 25.8594C50.625 24.6221 51.6982 23.6719 53.4688 23.6719C55.2256 23.6719 56.3398 24.6016 56.3398 26.0439V31H54.8633V29.8652H54.8291C54.4121 30.6377 53.585 31.1299 52.6279 31.1299ZM51.7188 28.9219C51.7188 29.5508 52.2383 29.9473 53.0312 29.9473C54.0703 29.9473 54.8633 29.2432 54.8633 28.3066V27.7461L53.0996 27.8555C52.2109 27.9102 51.7188 28.2998 51.7188 28.9082V28.9219ZM62 31V28.5322H60.8447L59.1084 31H57.4268L59.3887 28.2793C58.3906 27.9854 57.7754 27.2402 57.7754 26.2422V26.2285C57.7754 24.7383 58.8691 23.8086 60.5508 23.8086H63.4697V31H62ZM60.626 27.3906H62V24.9775H60.626C59.7852 24.9775 59.2725 25.4424 59.2725 26.2217V26.2354C59.2725 26.9121 59.792 27.3906 60.626 27.3906ZM70.0049 31.1299C68.5693 31.1299 67.6055 30.248 67.6055 28.9561V28.9424C67.6055 27.6914 68.5762 26.9258 70.2783 26.8232L72.2402 26.707V26.167C72.2402 25.374 71.7207 24.8955 70.8047 24.8955C69.9502 24.8955 69.4238 25.2988 69.3008 25.873L69.2871 25.9346H67.8926L67.8994 25.8594C68.002 24.6221 69.0752 23.6719 70.8457 23.6719C72.6025 23.6719 73.7168 24.6016 73.7168 26.0439V31H72.2402V29.8652H72.2061C71.7891 30.6377 70.9619 31.1299 70.0049 31.1299ZM69.0957 28.9219C69.0957 29.5508 69.6152 29.9473 70.4082 29.9473C71.4473 29.9473 72.2402 29.2432 72.2402 28.3066V27.7461L70.4766 27.8555C69.5879 27.9102 69.0957 28.2998 69.0957 28.9082V28.9219ZM77.0117 27.7939H76.752V31H75.2754V23.8086H76.752V26.7754H77.0117L79.6162 23.8086H81.3594L78.3311 27.1855L81.4824 31H79.6572L77.0117 27.7939ZM87.7441 23.8086V24.9844H85.4951V31H84.0117V24.9844H81.7627V23.8086H87.7441ZM88.8242 31V23.8086H90.2871V28.8398H90.3555L93.6572 23.8086H95.1133V31H93.6436V25.9482H93.582L90.2803 31H88.8242ZM96.6992 31V23.8086H99.9668C101.368 23.8086 102.216 24.5127 102.216 25.6543V25.668C102.216 26.4131 101.683 27.0898 100.992 27.2197V27.2744C101.922 27.3975 102.537 28.04 102.537 28.9219V28.9355C102.537 30.1934 101.566 31 100.008 31H96.6992ZM98.1621 26.7754H99.5088C100.343 26.7754 100.753 26.4678 100.753 25.832V25.8184C100.753 25.2236 100.37 24.9023 99.6592 24.9023H98.1621V26.7754ZM98.1621 29.9062H99.7344C100.568 29.9062 101.02 29.5576 101.02 28.874V28.8604C101.02 28.1699 100.534 27.8486 99.5635 27.8486H98.1621V29.9062ZM108.566 31V27.876H105.326V31H103.85V23.8086H105.326V26.707H108.566V23.8086H110.043V31H108.566ZM114.719 31.1436C112.654 31.1436 111.308 29.7148 111.308 27.4043V27.3906C111.308 25.0938 112.675 23.6719 114.719 23.6719C116.763 23.6719 118.13 25.0869 118.13 27.3906V27.4043C118.13 29.7217 116.776 31.1436 114.719 31.1436ZM114.726 29.9062C115.881 29.9062 116.626 28.9902 116.626 27.4043V27.3906C116.626 25.8184 115.867 24.9092 114.719 24.9092C113.577 24.9092 112.818 25.8184 112.818 27.3906V27.4043C112.818 28.9971 113.57 29.9062 114.726 29.9062ZM122.484 31.1436C120.386 31.1436 119.073 29.7012 119.073 27.3975V27.3906C119.073 25.1143 120.413 23.6719 122.471 23.6719C124.316 23.6719 125.438 24.8613 125.561 26.2148L125.567 26.2627H124.159L124.146 26.208C123.988 25.5039 123.441 24.9092 122.478 24.9092C121.329 24.9092 120.584 25.8662 120.584 27.4043V27.4111C120.584 28.9834 121.343 29.9062 122.491 29.9062C123.4 29.9062 123.975 29.3799 124.152 28.6006L124.166 28.5459H125.581L125.574 28.5938C125.417 30.0361 124.214 31.1436 122.484 31.1436ZM132.068 23.8086V24.9844H129.819V31H128.336V24.9844H126.087V23.8086H132.068ZM133.148 31V23.8086H134.625V26.0303H135.992C137.653 26.0303 138.727 26.9941 138.727 28.5049V28.5186C138.727 30.0361 137.653 31 135.992 31H133.148ZM135.849 27.1992H134.625V29.8311H135.849C136.689 29.8311 137.216 29.3115 137.216 28.5186V28.5049C137.216 27.7119 136.683 27.1992 135.849 27.1992Z" fill="black"/>
<path fill-rule="evenodd" clip-rule="evenodd" d="M153.47 23.9644C153.611 23.8278 153.801 23.7522 153.997 23.7539C154.194 23.7556 154.382 23.8345 154.521 23.9736C154.66 24.1126 154.739 24.3007 154.741 24.4974C154.743 24.694 154.667 24.8835 154.53 25.0249L151.53 28.0249C151.39 28.1655 151.199 28.2445 151 28.2445C150.801 28.2445 150.61 28.1655 150.47 28.0249L147.47 25.0249C147.333 24.8835 147.258 24.694 147.259 24.4974C147.261 24.3007 147.34 24.1126 147.479 23.9736C147.618 23.8345 147.806 23.7556 148.003 23.7539C148.199 23.7522 148.389 23.8278 148.53 23.9644L151 26.4342L153.47 23.9644Z" fill="#333333"/>
<path d="M21.75 67V64.5938L29.6875 56.6094C32.6875 53.6094 33.3594 52.4219 33.3594 50.6719V50.6406C33.3438 48.5 31.7188 46.9688 29.4375 46.9688C26.7969 46.9688 24.9062 48.75 24.875 51.0312V51.125H21.5625V51.0312C21.5625 47 24.9844 44.0781 29.3906 44.0781C33.7188 44.0781 36.8125 46.7969 36.8125 50.4375V50.4688C36.8125 53.0469 35.6094 54.875 31.5625 58.875L26.4375 63.9062V64.0469H37.1719V67H21.75ZM48.7344 67.375C44.125 67.375 39.875 64.1719 39.875 56.0625V56.0312C39.875 48.5156 43.2344 44.0781 48.875 44.0781C52.8906 44.0781 55.9062 46.375 56.625 49.7344L56.6719 49.9219H53.1562L53.1094 49.7656C52.4688 48.0781 51 47.0156 48.8438 47.0156C44.9688 47.0156 43.3906 50.75 43.25 55.2188C43.2344 55.4219 43.2344 55.625 43.2344 55.8281H43.3125C44.2031 53.7969 46.4844 52.2031 49.5469 52.2031C53.8594 52.2031 56.9688 55.3438 56.9688 59.6094V59.6406C56.9688 64.1406 53.4844 67.375 48.7344 67.375ZM43.9219 59.6562C43.9219 62.3281 46.0156 64.4375 48.6875 64.4375C51.3594 64.4375 53.4844 62.3594 53.4844 59.7344V59.7031C53.4844 56.9844 51.4844 55.0469 48.7344 55.0469C46 55.0469 43.9219 56.9688 43.9219 59.6406V59.6562ZM59.1875 71.5312L60.4688 63.5312H63.8438L61.5625 71.5312H59.1875ZM75.5156 67.375C70.125 67.375 66.9062 62.8906 66.9062 55.7344V55.7031C66.9062 48.5469 70.125 44.0781 75.5156 44.0781C80.8906 44.0781 84.125 48.5469 84.125 55.7031V55.7344C84.125 62.8906 80.8906 67.375 75.5156 67.375ZM75.5156 64.4531C78.7188 64.4531 80.5938 61.1406 80.5938 55.7344V55.7031C80.5938 50.2969 78.7188 47.0156 75.5156 47.0156C72.2969 47.0156 70.4375 50.2969 70.4375 55.7031V55.7344C70.4375 61.1406 72.2969 64.4531 75.5156 64.4531ZM97.9688 67V62.5156H86.6875V59.4688L96.2656 44.4531H101.328V59.5781H104.438V62.5156H101.328V67H97.9688ZM89.9375 59.625H98V47.2188H97.9062L89.9375 59.5312V59.625Z" fill="black"/>
<rect x="114" y="46" width="46" height="20" rx="5" fill="#323232"/>
<path fill-rule="evenodd" clip-rule="evenodd" d="M123.705 58.8394C123.868 59.0634 124.131 59.0644 124.295 58.8394L125.705 56.9009C125.868 56.6769 125.778 56.4949 125.5 56.4949L125 56.4949L125 53.9979C125 53.4439 124.556 52.9949 124 52.9949C123.448 52.9949 123 53.4384 123 53.9979L123 56.4949L122.5 56.4949C122.224 56.4949 122.131 56.6754 122.295 56.9009L123.705 58.8394Z" fill="white"/>
<path d="M130.58 53.9839C130.58 52.6304 131.676 51.6206 133.137 51.6206C134.522 51.6206 135.613 52.5605 135.613 53.7476C135.613 54.6123 135.221 55.2568 133.926 56.5942L131.966 58.6191V58.6406H135.742V59.5H130.628V58.834L133.357 55.9604C134.399 54.8647 134.646 54.4512 134.646 53.8066C134.646 53.0601 133.964 52.4639 133.11 52.4639C132.202 52.4639 131.515 53.1191 131.515 53.9839V53.9893H130.58V53.9839ZM137.477 61.0415H136.698L137.219 58.3076H138.212L137.477 61.0415ZM143.336 59.5V57.8887H139.442V57.0132C140.103 55.7886 141.011 54.376 142.842 51.7495H144.271V57.04H145.367V57.8887H144.271V59.5H143.336ZM140.398 57.0186V57.04H143.336V52.5552H143.32C141.854 54.6499 141.011 55.9443 140.398 57.0186ZM149.207 53.5811C149.207 54.752 148.562 55.5093 147.58 55.5093C146.597 55.5093 145.952 54.752 145.952 53.5811C145.952 52.4102 146.597 51.6528 147.58 51.6528C148.562 51.6528 149.207 52.4102 149.207 53.5811ZM147.58 54.854C148.052 54.854 148.348 54.3706 148.348 53.5811C148.348 52.7915 148.052 52.3081 147.58 52.3081C147.107 52.3081 146.812 52.7915 146.812 53.5811C146.812 54.3706 147.107 54.854 147.58 54.854ZM147.343 59.5H146.409L149.4 55.4126L152.081 51.7495H153.004L150.093 55.7349L147.343 59.5ZM153.466 57.6523C153.466 58.8232 152.822 59.5806 151.839 59.5806C150.856 59.5806 150.211 58.8232 150.211 57.6523C150.211 56.4814 150.856 55.7241 151.839 55.7241C152.822 55.7241 153.466 56.4814 153.466 57.6523ZM151.839 58.9253C152.312 58.9253 152.607 58.4419 152.607 57.6523C152.607 56.8628 152.312 56.3794 151.839 56.3794C151.366 56.3794 151.071 56.8628 151.071 57.6523C151.071 58.4419 151.366 58.9253 151.839 58.9253Z" fill="white"/>
<rect x="520.5" y="20.5" width="289" height="23" rx="4.5" stroke="#D2D2D2"/>
<rect x="520.5" y="20.5" width="78" height="23" rx="3.5" fill="#FAFAFA"/>
<rect x="520.5" y="20.5" width="78" height="23" rx="3.5" stroke="black"/>
<path d="M530.346 36V27.5449H533.58C535.133 27.5449 536.082 28.3594 536.082 29.6484V29.6602C536.082 30.5332 535.438 31.3301 534.623 31.4766V31.5703C535.777 31.7168 536.51 32.5078 536.51 33.6211V33.6328C536.51 35.1152 535.443 36 533.645 36H530.346ZM533.357 28.4766H531.4V31.1895H533.088C534.365 31.1895 535.016 30.7324 535.016 29.8418V29.8301C535.016 28.9746 534.406 28.4766 533.357 28.4766ZM533.387 32.0977H531.4V35.0684H533.486C534.758 35.0684 535.426 34.5527 535.426 33.5801V33.5684C535.426 32.5957 534.734 32.0977 533.387 32.0977ZM540.805 36.1113C539.035 36.1113 537.904 34.8281 537.904 32.8242V32.8125C537.904 30.8496 539.029 29.5723 540.799 29.5723C542.334 29.5723 543.254 30.457 543.441 31.582L543.447 31.6172H542.434L542.428 31.5996C542.27 30.9785 541.707 30.4746 540.799 30.4746C539.662 30.4746 538.947 31.3887 538.947 32.8125V32.8242C538.947 34.2773 539.674 35.209 540.799 35.209C541.648 35.209 542.188 34.834 542.422 34.1309L542.434 34.0957L543.441 34.0898L543.43 34.1543C543.172 35.2969 542.322 36.1113 540.805 36.1113ZM547.631 36.1113C545.826 36.1113 544.736 34.8457 544.736 32.8652V32.8594C544.736 30.9082 545.85 29.5723 547.566 29.5723C549.283 29.5723 550.326 30.8496 550.326 32.7363V33.1348H545.779C545.809 34.4414 546.529 35.2031 547.654 35.2031C548.51 35.2031 549.037 34.7988 549.207 34.418L549.23 34.3652H550.25L550.238 34.4121C550.021 35.2676 549.119 36.1113 547.631 36.1113ZM547.561 30.4805C546.623 30.4805 545.908 31.1191 545.797 32.3203H549.289C549.184 31.0723 548.492 30.4805 547.561 30.4805ZM555.395 36V29.6836H558.072C559.268 29.6836 559.965 30.334 559.965 31.3242V31.3359C559.965 31.9629 559.525 32.5547 558.934 32.6777V32.7715C559.736 32.8828 560.246 33.4453 560.246 34.1777V34.1895C560.246 35.2852 559.443 36 558.084 36H555.395ZM556.414 32.3555H557.762C558.582 32.3555 558.951 32.0391 558.951 31.4414V31.4297C558.951 30.8906 558.635 30.5273 557.926 30.5273H556.414V32.3555ZM556.414 35.1562H558.043C558.816 35.1562 559.209 34.8047 559.209 34.1719V34.1602C559.209 33.4922 558.758 33.1992 557.85 33.1992H556.414V35.1562ZM561.975 38.1094V29.6836H562.994V30.6914H563.088C563.475 29.9883 564.178 29.5723 565.057 29.5723C566.656 29.5723 567.705 30.8672 567.705 32.8359V32.8477C567.705 34.8281 566.662 36.1113 565.057 36.1113C564.189 36.1113 563.434 35.6777 563.088 35.0039H562.994V38.1094H561.975ZM564.822 35.209C565.977 35.209 566.662 34.3184 566.662 32.8477V32.8359C566.662 31.3652 565.977 30.4746 564.822 30.4746C563.674 30.4746 562.971 31.377 562.971 32.8359V32.8477C562.971 34.3066 563.674 35.209 564.822 35.209ZM571.994 36.1113C570.189 36.1113 569.1 34.8457 569.1 32.8652V32.8594C569.1 30.9082 570.213 29.5723 571.93 29.5723C573.646 29.5723 574.689 30.8496 574.689 32.7363V33.1348H570.143C570.172 34.4414 570.893 35.2031 572.018 35.2031C572.873 35.2031 573.4 34.7988 573.57 34.418L573.594 34.3652H574.613L574.602 34.4121C574.385 35.2676 573.482 36.1113 571.994 36.1113ZM571.924 30.4805C570.986 30.4805 570.271 31.1191 570.16 32.3203H573.652C573.547 31.0723 572.855 30.4805 571.924 30.4805ZM577.402 36H576.383V29.6836H577.619L579.869 34.582H579.963L582.225 29.6836H583.408V36H582.389V31.5059H582.277L580.285 35.8242H579.5L577.514 31.5059H577.402V36ZM588.77 36V33.7383H587.697L586.086 36H584.885L586.648 33.5508C585.758 33.2988 585.219 32.6426 585.219 31.7812V31.7695C585.219 30.4746 586.145 29.6836 587.592 29.6836H589.789V36H588.77ZM587.592 32.8945H588.77V30.5273H587.592C586.76 30.5273 586.262 30.9844 586.262 31.7461V31.7578C586.262 32.4199 586.766 32.8945 587.592 32.8945Z" fill="black"/>
<path d="M622.207 36.1406C620.461 36.1406 619.33 35.168 619.219 33.832L619.213 33.7617H620.227L620.232 33.8203C620.314 34.6523 621.082 35.2266 622.207 35.2266C623.314 35.2266 624.07 34.6055 624.07 33.709V33.6973C624.07 32.6602 623.326 32.0801 622.143 32.0801H621.082V31.1895H622.096C623.104 31.1895 623.807 30.5684 623.807 29.7246V29.7129C623.807 28.8281 623.227 28.3184 622.195 28.3184C621.199 28.3184 620.49 28.8457 620.402 29.7012L620.396 29.7598H619.383L619.389 29.7012C619.523 28.3242 620.613 27.4043 622.195 27.4043C623.807 27.4043 624.867 28.3008 624.867 29.584V29.5957C624.867 30.6387 624.129 31.3535 623.074 31.5762V31.5996C624.305 31.7051 625.143 32.4727 625.143 33.6738V33.6855C625.143 35.0977 623.9 36.1406 622.207 36.1406ZM629.684 36.1992C627.814 36.1992 626.701 34.4941 626.701 31.7754V31.7637C626.701 29.0449 627.814 27.3457 629.684 27.3457C631.553 27.3457 632.678 29.0449 632.678 31.7637V31.7754C632.678 34.4941 631.553 36.1992 629.684 36.1992ZM629.684 35.2793C630.896 35.2793 631.617 33.9316 631.617 31.7754V31.7637C631.617 29.6074 630.896 28.2715 629.684 28.2715C628.471 28.2715 627.762 29.6074 627.762 31.7637V31.7754C627.762 33.9316 628.471 35.2793 629.684 35.2793ZM637.992 37.6699H637.043V35.1562H637.57C638.033 34.8516 638.262 34.0547 638.32 33.2051L638.566 29.6836H642.873V35.1562H643.881V37.6699H642.932V36H637.992V37.6699ZM641.854 35.1562V30.5273H639.469L639.27 33.2285C639.211 33.9961 639.047 34.6699 638.748 35.0625V35.1562H641.854ZM649.354 36V33.1406H646.225V36H645.205V29.6836H646.225V32.2969H649.354V29.6836H650.373V36H649.354ZM654.961 36.1113C653.156 36.1113 652.066 34.8457 652.066 32.8652V32.8594C652.066 30.9082 653.18 29.5723 654.896 29.5723C656.613 29.5723 657.656 30.8496 657.656 32.7363V33.1348H653.109C653.139 34.4414 653.859 35.2031 654.984 35.2031C655.84 35.2031 656.367 34.7988 656.537 34.418L656.561 34.3652H657.58L657.568 34.4121C657.352 35.2676 656.449 36.1113 654.961 36.1113ZM654.891 30.4805C653.953 30.4805 653.238 31.1191 653.127 32.3203H656.619C656.514 31.0723 655.822 30.4805 654.891 30.4805ZM661.98 28.8047C660.773 28.8047 659.971 27.9727 659.971 26.8828H660.885C660.885 27.5215 661.301 28.1133 661.98 28.1133C662.672 28.1133 663.076 27.5215 663.076 26.8828H663.99C663.99 27.9727 663.188 28.8047 661.98 28.8047ZM659.35 36V29.6836H660.369V34.3945H660.463L663.586 29.6836H664.605V36H663.586V31.2891H663.492L660.369 36H659.35Z" fill="#191919"/>
<path d="M689.807 36L693.604 28.5703V28.4883H689.08V27.5449H694.676V28.5234L690.914 36H689.807ZM699.867 37.6699H698.918V35.1562H699.445C699.908 34.8516 700.137 34.0547 700.195 33.2051L700.441 29.6836H704.748V35.1562H705.756V37.6699H704.807V36H699.867V37.6699ZM703.729 35.1562V30.5273H701.344L701.145 33.2285C701.086 33.9961 700.922 34.6699 700.623 35.0625V35.1562H703.729ZM711.229 36V33.1406H708.1V36H707.08V29.6836H708.1V32.2969H711.229V29.6836H712.248V36H711.229ZM716.836 36.1113C715.031 36.1113 713.941 34.8457 713.941 32.8652V32.8594C713.941 30.9082 715.055 29.5723 716.771 29.5723C718.488 29.5723 719.531 30.8496 719.531 32.7363V33.1348H714.984C715.014 34.4414 715.734 35.2031 716.859 35.2031C717.715 35.2031 718.242 34.7988 718.412 34.418L718.436 34.3652H719.455L719.443 34.4121C719.227 35.2676 718.324 36.1113 716.836 36.1113ZM716.766 30.4805C715.828 30.4805 715.113 31.1191 715.002 32.3203H718.494C718.389 31.0723 717.697 30.4805 716.766 30.4805ZM723.855 28.8047C722.648 28.8047 721.846 27.9727 721.846 26.8828H722.76C722.76 27.5215 723.176 28.1133 723.855 28.1133C724.547 28.1133 724.951 27.5215 724.951 26.8828H725.865C725.865 27.9727 725.062 28.8047 723.855 28.8047ZM721.225 36V29.6836H722.244V34.3945H722.338L725.461 29.6836H726.48V36H725.461V31.2891H725.367L722.244 36H721.225Z" fill="#191919"/>
<path d="M755.297 36V35.2734L758.156 32.1797C759.234 31.0137 759.551 30.5742 759.551 29.8359V29.8242C759.551 28.9336 758.947 28.2656 757.951 28.2656C756.938 28.2656 756.264 28.9277 756.264 29.9238L756.258 29.9355L755.25 29.9297L755.238 29.9238C755.244 28.4238 756.404 27.3457 758.021 27.3457C759.498 27.3457 760.629 28.3477 760.629 29.7129V29.7246C760.629 30.6914 760.213 31.3945 758.684 32.9707L756.762 34.957V35.0508H760.77V36H755.297ZM766.225 36V34.248H762.105V33.2871C763.248 31.3711 764.543 29.3086 765.727 27.5449H767.256V33.3047H768.457V34.248H767.256V36H766.225ZM763.184 33.3105H766.23V28.5234H766.16C765.211 29.9414 764.104 31.6875 763.184 33.2402V33.3105ZM778.336 36H777.316V33.3691H777.223C776.883 33.6094 776.396 33.75 775.717 33.75C774.193 33.75 773.402 32.8359 773.402 31.4883V29.6836H774.422V31.4883C774.422 32.3203 774.855 32.8477 775.717 32.8477C776.508 32.8477 777.053 32.6426 777.316 32.3496V29.6836H778.336V36ZM782.08 36.1113C780.879 36.1113 779.971 35.3848 779.971 34.2363V34.2246C779.971 33.0996 780.803 32.4492 782.273 32.3613L784.084 32.25V31.6758C784.084 30.8965 783.609 30.4746 782.666 30.4746C781.91 30.4746 781.412 30.7559 781.248 31.248L781.242 31.2656H780.223L780.229 31.2305C780.393 30.2402 781.354 29.5723 782.701 29.5723C784.242 29.5723 785.104 30.3633 785.104 31.6758V36H784.084V35.0684H783.99C783.592 35.7422 782.93 36.1113 782.08 36.1113ZM781.014 34.2129C781.014 34.8516 781.559 35.2266 782.291 35.2266C783.328 35.2266 784.084 34.5469 784.084 33.6445V33.0703L782.396 33.1758C781.436 33.2344 781.014 33.5742 781.014 34.2012V34.2129ZM789.668 36.1113C787.898 36.1113 786.768 34.8281 786.768 32.8242V32.8125C786.768 30.8496 787.893 29.5723 789.662 29.5723C791.197 29.5723 792.117 30.457 792.305 31.582L792.311 31.6172H791.297L791.291 31.5996C791.133 30.9785 790.57 30.4746 789.662 30.4746C788.525 30.4746 787.811 31.3887 787.811 32.8125V32.8242C787.811 34.2773 788.537 35.209 789.662 35.209C790.512 35.209 791.051 34.834 791.285 34.1309L791.297 34.0957L792.305 34.0898L792.293 34.1543C792.035 35.2969 791.186 36.1113 789.668 36.1113ZM795.65 36.1113C794.449 36.1113 793.541 35.3848 793.541 34.2363V34.2246C793.541 33.0996 794.373 32.4492 795.844 32.3613L797.654 32.25V31.6758C797.654 30.8965 797.18 30.4746 796.236 30.4746C795.48 30.4746 794.982 30.7559 794.818 31.248L794.812 31.2656H793.793L793.799 31.2305C793.963 30.2402 794.924 29.5723 796.271 29.5723C797.812 29.5723 798.674 30.3633 798.674 31.6758V36H797.654V35.0684H797.561C797.162 35.7422 796.5 36.1113 795.65 36.1113ZM794.584 34.2129C794.584 34.8516 795.129 35.2266 795.861 35.2266C796.898 35.2266 797.654 34.5469 797.654 33.6445V33.0703L795.967 33.1758C795.006 33.2344 794.584 33.5742 794.584 34.2012V34.2129Z" fill="#191919"/>
<path d="M808.13 207L788.573 198.796L776.5 206L764.427 200.131L752.354 196.511L740.281 193.145L728.208 191.018L716.135 188.223L704.062 185.098L691.989 182.698L679.916 181.597L667.842 179.76L655.769 178.366L643.696 173.071L631.623 173.019L619.55 177.098L607.477 179.059L595.404 185.93L583.331 182.536L571.258 184.476L559.185 182.619L547.112 178.199L535.039 173.332L522.966 169.942L510.892 170.726L498.819 174.805L486.746 173.11L474.673 167.423L462.6 163.527L450.527 170.572L438.454 165.657L426.381 166.362L414.308 166.631L402.235 159L390.162 163.626L378.089 172.437L366.016 167.815L353.942 166.564L341.869 169.784L329.796 165.57L317.723 161.697L303.238 172.116L291.165 176.155L279.092 176.892L267.019 172.959L254.946 170.698L242.873 169.066L230.8 165.68L218.727 170.817L206.654 166.278L194.581 167.423L182.508 167.26L170.435 167.419L158.362 160.041L146.289 160.599L134.215 159.839L122.142 159.886L114.044 174.575L101.971 172.697L89.898 176.891L77.8249 172.187L65.7517 168.02L53.6787 167.664L41.6056 163.197L29.5326 167.323L17.4595 162.401L3.12361 163.197" stroke="black" stroke-linecap="round" stroke-linejoin="round" stroke-dasharray="1 4"/>
<path opacity="0.1" d="M3.12427 86H808.131" stroke="black"/>
<path opacity="0.1" d="M3.12427 117H808.131" stroke="black"/>
<path opacity="0.1" d="M3.12427 147H808.131" stroke="black"/>
<path opacity="0.1" d="M3.12427 177H808.131" stroke="black"/>
<path opacity="0.1" d="M3.12427 207H808.131" stroke="black"/>
<path opacity="0.1" d="M3.12427 237H808.131" stroke="black"/>
<path d="M3.12427 199.507L15.221 187.164L27.3177 193.681L39.4144 204.761L51.5112 223L63.6079 208.14L75.7046 198.975L87.8013 190.452L99.898 185.068L111.995 177.989L124.091 170.078L136.188 164.001L148.285 161.214L160.382 156.561L172.478 153.032L184.575 139.626L196.672 139.495L208.769 149.823L220.865 154.787L232.962 172.183L245.059 163.59L257.155 168.503L269.252 163.801L281.349 152.611L293.446 140.288L305.542 131.704L317.639 133.69L329.736 144.018L341.832 139.726L353.929 125.327L366.026 115.461L378.123 133.299L390.219 120.855L402.316 122.64L414.413 123.322L426.51 104L438.606 115.711L450.703 138.021L462.8 126.32L474.896 123.151L486.993 131.303L499.09 120.635L511.187 110.828L525.7 137.207L537.796 147.435L549.893 149.3L561.99 139.343L574.087 133.618L586.183 129.487L598.28 120.914L610.377 133.919L622.473 122.428L634.57 125.326L646.667 124.914L658.764 125.315L670.86 106.635L682.957 108.049L695.054 106.124L707.151 106.244L715.265 143.434L727.361 138.681L739.458 149.299L751.555 137.387L763.652 126.839L775.748 125.937L787.845 114.626L799.942 125.074L808.131 112.523" stroke="black" stroke-linecap="round" stroke-linejoin="round"/>
</svg>
