<svg width="14" height="14" viewBox="0 0 14 14" fill="none" xmlns="http://www.w3.org/2000/svg">
<g opacity="0.5" clip-path="url(#clip0_1958_21751)">
<path d="M7.0026 1.74967C6.31316 1.74967 5.63048 1.88547 4.99352 2.14931C4.35656 2.41314 3.7778 2.79986 3.29029 3.28736C2.80279 3.77487 2.41607 4.35363 2.15224 4.99059C1.8884 5.62755 1.7526 6.31023 1.7526 6.99967C1.7526 7.68911 1.8884 8.3718 2.15224 9.00876C2.41607 9.64572 2.80279 10.2245 3.29029 10.712C3.7778 11.1995 4.35656 11.5862 4.99352 11.85C5.63048 12.1139 6.31316 12.2497 7.0026 12.2497C8.39499 12.2497 9.73035 11.6966 10.7149 10.712C11.6995 9.72742 12.2526 8.39206 12.2526 6.99967C12.2526 5.60729 11.6995 4.27193 10.7149 3.28736C9.73035 2.3028 8.39499 1.74967 7.0026 1.74967ZM0.585938 6.99967C0.585938 3.45592 3.45885 0.583008 7.0026 0.583008C10.5464 0.583008 13.4193 3.45592 13.4193 6.99967C13.4193 10.5434 10.5464 13.4163 7.0026 13.4163C3.45885 13.4163 0.585938 10.5434 0.585938 6.99967ZM5.2526 4.66634V6.99967H4.08594V4.66634H5.2526ZM9.91927 4.66634V6.99967H8.7526V4.66634H9.91927ZM4.08594 7.58301H9.91927V8.16634C9.91927 8.93989 9.61198 9.68175 9.065 10.2287C8.51802 10.7757 7.77615 11.083 7.0026 11.083C6.22906 11.083 5.48719 10.7757 4.94021 10.2287C4.39323 9.68175 4.08594 8.93989 4.08594 8.16634V7.58301ZM5.35177 8.74967C5.47229 9.09124 5.69579 9.387 5.99145 9.59621C6.28712 9.80542 6.6404 9.91777 7.0026 9.91777C7.3648 9.91777 7.71809 9.80542 8.01375 9.59621C8.30942 9.387 8.53292 9.09124 8.65344 8.74967H5.35177Z" fill="black"/>
</g>
<defs>
<clipPath id="clip0_1958_21751">
<rect width="14" height="14" fill="white"/>
</clipPath>
</defs>
</svg>
