<svg width="12" height="12" viewBox="0 0 12 12" fill="none" xmlns="http://www.w3.org/2000/svg">
<path d="M5.99988 6.24C7.7202 6.24 9.11988 4.84032 9.11988 3.12C9.11988 1.39968 7.7202 0 5.99988 0C4.27956 0 2.87988 1.39968 2.87988 3.12C2.87988 4.84032 4.27956 6.24 5.99988 6.24Z" fill="#393939"/>
<path d="M9.14136 6.64704C9.05496 6.59376 8.94432 6.60072 8.86464 6.6648C8.04432 7.3284 7.0536 7.67928 6 7.67928C4.9464 7.67928 3.95592 7.3284 3.1356 6.6648C3.05664 6.60072 2.94552 6.59352 2.85888 6.64704C1.06872 7.74936 0 9.66048 0 11.7593C0 11.892 0.10752 11.9993 0.24 11.9993H11.76C11.8927 11.9993 12 11.892 12 11.7593C12 9.66048 10.9313 7.74936 9.14136 6.64704Z" fill="#393939"/>
</svg>
