<svg width="46" height="46" viewBox="0 0 46 46" fill="none" xmlns="http://www.w3.org/2000/svg">
<path d="M34.5 43.125L31.4812 41.6875C29.0375 40.5375 27.3125 37.95 27.3125 35.2188V25.875H41.6875V35.2188C41.6875 37.95 40.1063 40.5375 37.5188 41.6875L34.5 43.125ZM30.1875 28.75V35.2188C30.1875 36.9438 31.1938 38.3813 32.6313 39.1L34.5 39.9625L36.3687 39.1C37.8062 38.3813 38.8125 36.8 38.8125 35.2188V28.75H30.1875Z" fill="black"/>
<path d="M14.375 34.5C15.1689 34.5 15.8125 33.8564 15.8125 33.0625C15.8125 32.2686 15.1689 31.625 14.375 31.625C13.5811 31.625 12.9375 32.2686 12.9375 33.0625C12.9375 33.8564 13.5811 34.5 14.375 34.5Z" fill="black"/>
<path d="M14.375 23C15.1689 23 15.8125 22.3564 15.8125 21.5625C15.8125 20.7686 15.1689 20.125 14.375 20.125C13.5811 20.125 12.9375 20.7686 12.9375 21.5625C12.9375 22.3564 13.5811 23 14.375 23Z" fill="black"/>
<path d="M14.375 11.5C15.1689 11.5 15.8125 10.8564 15.8125 10.0625C15.8125 9.26859 15.1689 8.625 14.375 8.625C13.5811 8.625 12.9375 9.26859 12.9375 10.0625C12.9375 10.8564 13.5811 11.5 14.375 11.5Z" fill="black"/>
<path d="M33.0625 2.875H10.0625C8.48125 2.875 7.1875 4.16875 7.1875 5.75V37.375C7.1875 38.9562 8.48125 40.25 10.0625 40.25H23V37.375H10.0625V28.75H23V25.875H10.0625V17.25H33.0625V21.5625H35.9375V5.75C35.9375 4.16875 34.6437 2.875 33.0625 2.875ZM10.0625 14.375V5.75H33.0625V14.375H10.0625Z" fill="black"/>
</svg>
