<svg width="20" height="20" viewBox="0 0 20 20" fill="none" xmlns="http://www.w3.org/2000/svg">
<path d="M9.99997 10.625C13.285 10.625 16.6558 12.7608 16.8741 17.0517C16.8825 17.2171 16.8249 17.379 16.714 17.502C16.6031 17.625 16.4479 17.6989 16.2825 17.7075C14.5491 17.7958 6.52164 17.85 3.7183 17.7075C3.55277 17.6991 3.39735 17.6253 3.28623 17.5023C3.17512 17.3793 3.11741 17.2172 3.1258 17.0517C3.34414 12.7617 6.71497 10.625 9.99997 10.625ZM9.99997 3.125C9.17117 3.125 8.37631 3.45424 7.79026 4.04029C7.20421 4.62634 6.87497 5.4212 6.87497 6.25C6.87497 7.0788 7.20421 7.87366 7.79026 8.45971C8.37631 9.04576 9.17117 9.375 9.99997 9.375C10.8288 9.375 11.6236 9.04576 12.2097 8.45971C12.7957 7.87366 13.125 7.0788 13.125 6.25C13.125 5.4212 12.7957 4.62634 12.2097 4.04029C11.6236 3.45424 10.8288 3.125 9.99997 3.125Z" fill="black"/>
</svg>
