<svg width="16" height="16" viewBox="0 0 16 16" fill="none" xmlns="http://www.w3.org/2000/svg">
<path d="M7.58793 11.7845C7.6338 11.8511 7.69518 11.9056 7.76678 11.9432C7.83837 11.9809 7.91805 12.0005 7.99893 12.0005C8.07982 12.0005 8.15949 11.9809 8.23109 11.9432C8.30268 11.9056 8.36406 11.8511 8.40993 11.7845L12.9099 5.2845C12.962 5.20953 12.9926 5.12172 12.9982 5.0306C13.0039 4.93949 12.9845 4.84856 12.9422 4.7677C12.8998 4.68683 12.8361 4.61912 12.7579 4.57193C12.6798 4.52473 12.5902 4.49986 12.4989 4.5H3.49893C3.40785 4.50038 3.3186 4.52557 3.24077 4.57288C3.16294 4.62019 3.09948 4.68782 3.05722 4.7685C3.01495 4.84917 2.99547 4.93985 3.00089 5.03077C3.0063 5.12168 3.03639 5.20941 3.08793 5.2845L7.58793 11.7845Z" fill="black"/>
</svg>
