<svg width="78" height="78" viewBox="0 0 78 78" fill="none" xmlns="http://www.w3.org/2000/svg">
<g clip-path="url(#clip0_2207_36308)">
<path d="M19.5 14.625C18.2 14.625 16.965 15.145 16.055 16.055C15.145 16.965 14.625 18.2 14.625 19.5V58.5C14.625 59.8 15.145 61.035 16.055 61.945C16.965 62.855 18.2 63.375 19.5 63.375H58.5C59.8 63.375 61.035 62.855 61.945 61.945C62.855 61.035 63.375 59.8 63.375 58.5V19.5C63.375 18.2 62.855 16.965 61.945 16.055C61.035 15.145 59.8 14.625 58.5 14.625H19.5ZM68.9 53.625C68.5425 53.625 68.25 53.9175 68.25 54.275V58.5C68.25 61.1 67.21 63.57 65.39 65.39C63.57 67.21 61.1 68.25 58.5 68.25H54.275C53.9175 68.25 53.625 68.5425 53.625 68.9V75.5625C53.625 76.895 52.52 78 51.1875 78C49.855 78 48.75 76.895 48.75 75.5625V68.9C48.75 68.5425 48.4575 68.25 48.1 68.25H42.0875C41.73 68.25 41.4375 68.5425 41.4375 68.9V75.5625C41.4375 76.895 40.3325 78 39 78C37.6675 78 36.5625 76.895 36.5625 75.5625V68.9C36.5625 68.5425 36.27 68.25 35.9125 68.25H29.9C29.5425 68.25 29.25 68.5425 29.25 68.9V75.5625C29.25 76.895 28.145 78 26.8125 78C25.48 78 24.375 76.895 24.375 75.5625V68.9C24.375 68.5425 24.0825 68.25 23.725 68.25H19.5C16.9 68.25 14.43 67.21 12.61 65.39C10.79 63.57 9.75 61.1 9.75 58.5V54.275C9.75 53.9175 9.4575 53.625 9.1 53.625H2.4375C1.105 53.625 0 52.52 0 51.1875C0 49.855 1.105 48.75 2.4375 48.75H9.1C9.4575 48.75 9.75 48.4575 9.75 48.1V42.0875C9.75 41.73 9.4575 41.4375 9.1 41.4375H2.4375C1.105 41.4375 0 40.3325 0 39C0 37.6675 1.105 36.5625 2.4375 36.5625H9.1C9.4575 36.5625 9.75 36.27 9.75 35.9125V29.9C9.75 29.5425 9.4575 29.25 9.1 29.25H2.4375C1.105 29.25 0 28.145 0 26.8125C0 25.48 1.105 24.375 2.4375 24.375H9.1C9.4575 24.375 9.75 24.0825 9.75 23.725V19.5C9.75 16.9 10.79 14.43 12.61 12.61C14.43 10.79 16.9 9.75 19.5 9.75H23.725C24.0825 9.75 24.375 9.4575 24.375 9.1V2.4375C24.375 1.105 25.48 0 26.8125 0C28.145 0 29.25 1.105 29.25 2.4375V9.1C29.25 9.4575 29.5425 9.75 29.9 9.75H35.9125C36.27 9.75 36.5625 9.4575 36.5625 9.1V2.4375C36.5625 1.105 37.6675 0 39 0C40.3325 0 41.4375 1.105 41.4375 2.4375V9.1C41.4375 9.4575 41.73 9.75 42.0875 9.75H48.1C48.4575 9.75 48.75 9.4575 48.75 9.1V2.4375C48.75 1.105 49.855 0 51.1875 0C52.52 0 53.625 1.105 53.625 2.4375V9.1C53.625 9.4575 53.9175 9.75 54.275 9.75H58.5C61.1 9.75 63.57 10.79 65.39 12.61C67.21 14.43 68.25 16.9 68.25 19.5V23.725C68.25 24.0825 68.5425 24.375 68.9 24.375H75.5625C76.895 24.375 78 25.48 78 26.8125C78 28.145 76.895 29.25 75.5625 29.25H68.9C68.5425 29.25 68.25 29.5425 68.25 29.9V35.9125C68.25 36.27 68.5425 36.5625 68.9 36.5625H75.5625C76.895 36.5625 78 37.6675 78 39C78 40.3325 76.895 41.4375 75.5625 41.4375H68.9C68.5425 41.4375 68.25 41.73 68.25 42.0875V48.1C68.25 48.4575 68.5425 48.75 68.9 48.75H75.5625C76.895 48.75 78 49.855 78 51.1875C78 52.52 76.895 53.625 75.5625 53.625H68.9Z" fill="#E5E5E5"/>
<path fill-rule="evenodd" clip-rule="evenodd" d="M47.6125 29.25H30.3875C29.77 29.25 29.25 29.77 29.25 30.3875V47.6125C29.25 48.23 29.77 48.75 30.3875 48.75H47.6125C48.23 48.75 48.75 48.23 48.75 47.6125V30.3875C48.75 29.77 48.23 29.25 47.6125 29.25ZM30.3875 24.375H47.6125C50.9275 24.375 53.625 27.0725 53.625 30.3875V47.6125C53.625 50.9275 50.9275 53.625 47.6125 53.625H30.3875C27.0725 53.625 24.375 50.9275 24.375 47.6125V30.3875C24.375 27.0725 27.0725 24.375 30.3875 24.375Z" fill="#E5E5E5"/>
</g>
<defs>
<clipPath id="clip0_2207_36308">
<rect width="78" height="78" fill="white"/>
</clipPath>
</defs>
</svg>
