<svg width="46" height="46" viewBox="0 0 46 46" fill="none" xmlns="http://www.w3.org/2000/svg">
<path d="M29.6872 40.7672L22.8677 33.9477L24.2247 32.5907L29.6872 38.0532L40.5892 27.1512L41.9462 28.5063L29.6872 40.7672ZM23 21.083L37.743 11.4997H8.257L23 21.083ZM23 23.222L7.66667 13.1959V33.3209C7.66667 33.6646 7.77719 33.947 7.99825 34.1681C8.21931 34.3891 8.50233 34.4997 8.84733 34.4997H18.0167L19.9333 36.4163H8.84733C7.96439 36.4163 7.22775 36.1212 6.63742 35.5308C6.04708 34.9405 5.75128 34.2032 5.75 33.319V12.6803C5.75 11.7974 6.04581 11.0608 6.63742 10.4704C7.22903 9.88009 7.96503 9.58429 8.84542 9.58301H37.1546C38.0362 9.58301 38.7722 9.87881 39.3626 10.4704C39.9529 11.062 40.2487 11.7987 40.25 12.6803V22.1218L38.3333 24.0385V13.1959L23 23.222Z" fill="#FEBA27"/>
</svg>
