<svg width="16" height="16" viewBox="0 0 16 16" fill="none" xmlns="http://www.w3.org/2000/svg">
<path d="M15.3337 6.66602C15.3337 6.31239 15.1932 5.97326 14.9431 5.72321C14.6931 5.47316 14.3539 5.33268 14.0003 5.33268H9.78699L10.427 2.28602C10.4403 2.21935 10.447 2.14602 10.447 2.07268C10.447 1.79935 10.3337 1.54602 10.1537 1.36602L9.44699 0.666016L5.06033 5.05268C4.81366 5.29935 4.66699 5.63268 4.66699 5.99935V12.666C4.66699 13.0196 4.80747 13.3588 5.05752 13.6088C5.30756 13.8589 5.6467 13.9993 6.00033 13.9993H12.0003C12.5537 13.9993 13.027 13.666 13.227 13.186L15.2403 8.48601C15.3003 8.33268 15.3337 8.17268 15.3337 7.99935V6.66602ZM0.666992 13.9993H3.33366V5.99935H0.666992V13.9993Z" fill="url(#paint0_linear_2119_5486)"/>
<defs>
<linearGradient id="paint0_linear_2119_5486" x1="8.00033" y1="0.666016" x2="8.00033" y2="13.9993" gradientUnits="userSpaceOnUse">
<stop stop-color="#543BA7"/>
<stop offset="1" stop-color="#7F78E9"/>
</linearGradient>
</defs>
</svg>
