<svg width="25" height="24" viewBox="0 0 25 24" fill="none" xmlns="http://www.w3.org/2000/svg">
<g opacity="0.8">
<path d="M20.75 5.39932C20.75 5.04587 20.6096 4.7069 20.3597 4.45697C20.1097 4.20704 19.7708 4.06663 19.4173 4.06663L8.7558 4C8.40234 4 8.06337 4.14041 7.81344 4.39034C7.56351 4.64026 7.42311 4.97924 7.42311 5.33269C7.42311 5.68614 7.56351 6.02512 7.81344 6.27504C8.06337 6.52497 8.40234 6.66538 8.7558 6.66538H16.1655L5.14421 17.7134C5.0193 17.8373 4.92015 17.9847 4.85249 18.1471C4.78483 18.3095 4.75 18.4837 4.75 18.6596C4.75 18.8355 4.78483 19.0097 4.85249 19.1721C4.92015 19.3345 5.0193 19.4819 5.14421 19.6058C5.2681 19.7307 5.41549 19.8298 5.5779 19.8975C5.7403 19.9652 5.91449 20 6.09042 20C6.26635 20 6.44054 19.9652 6.60294 19.8975C6.76534 19.8298 6.91274 19.7307 7.03663 19.6058L18.0846 8.5578V15.9942C18.0846 16.3477 18.225 16.6866 18.475 16.9366C18.7249 17.1865 19.0639 17.3269 19.4173 17.3269C19.7708 17.3269 20.1097 17.1865 20.3597 16.9366C20.6096 16.6866 20.75 16.3477 20.75 15.9942V5.39932Z" fill="black"/>
</g>
</svg>
