<svg width="18" height="18" viewBox="0 0 18 18" fill="none" xmlns="http://www.w3.org/2000/svg">
<path d="M7.67564 7.67399C8.35598 6.99369 9.27179 6.60091 10.2336 6.5769C11.1954 6.55289 12.1297 6.89949 12.8431 7.54499L12.9789 7.67399L15.0999 9.79574C15.7907 10.4877 16.1838 11.4222 16.1956 12.3999C16.2074 13.3776 15.8368 14.3212 15.1629 15.0297C14.489 15.7381 13.5651 16.1553 12.588 16.1923C11.6109 16.2294 10.658 15.8834 9.93239 15.228L9.79739 15.099L8.20589 13.5075C8.07138 13.3725 7.99328 13.1914 7.98747 13.001C7.98165 12.8105 8.04855 12.625 8.17457 12.482C8.3006 12.3391 8.4763 12.2495 8.66599 12.2314C8.85568 12.2134 9.04514 12.2682 9.19589 12.3847L9.26639 12.447L10.8579 14.0385C11.2704 14.4535 11.8284 14.6914 12.4135 14.7018C12.9985 14.7122 13.5646 14.4943 13.9917 14.0942C14.4187 13.6942 14.6731 13.1436 14.701 12.5591C14.7288 11.9746 14.5278 11.4023 14.1406 10.9635L14.0394 10.8562L11.9184 8.73524C11.7094 8.52627 11.4614 8.3605 11.1884 8.24741C10.9154 8.13431 10.6228 8.0761 10.3273 8.0761C10.0318 8.0761 9.73914 8.13431 9.46614 8.24741C9.19313 8.3605 8.94507 8.52627 8.73614 8.73524C8.59541 8.87587 8.40457 8.95484 8.20562 8.95477C8.00667 8.9547 7.81589 8.8756 7.67526 8.73487C7.53463 8.59414 7.45566 8.4033 7.45573 8.20435C7.4558 8.0054 7.53491 7.81462 7.67564 7.67399ZM2.90264 2.90099C3.58298 2.22069 4.49879 1.82791 5.46061 1.8039C6.42243 1.77989 7.35669 2.12649 8.07014 2.77199L8.20589 2.90099L9.79664 4.49324C9.93115 4.62821 10.0092 4.80932 10.0151 4.99978C10.0209 5.19024 9.95398 5.37578 9.82795 5.5187C9.70192 5.66163 9.52622 5.75122 9.33653 5.76929C9.14684 5.78736 8.95738 5.73255 8.80664 5.61599L8.73614 5.55374L7.14539 3.96299C6.73211 3.55241 6.1757 3.31813 5.59321 3.30942C5.01072 3.30072 4.44756 3.51828 4.02221 3.91633C3.59686 4.31438 3.34247 4.8619 3.31257 5.44369C3.28267 6.02547 3.47958 6.59618 3.86189 7.03574L3.96314 7.14374L6.08489 9.26549C6.50682 9.6873 7.07902 9.92426 7.67564 9.92426C8.27226 9.92426 8.84445 9.6873 9.26639 9.26549C9.33602 9.19581 9.4187 9.14052 9.5097 9.10279C9.60069 9.06506 9.69824 9.04562 9.79675 9.04559C9.89526 9.04556 9.99281 9.06492 10.0838 9.10259C10.1749 9.14026 10.2576 9.19548 10.3273 9.26512C10.3969 9.33475 10.4522 9.41743 10.49 9.50843C10.5277 9.59943 10.5471 9.69697 10.5472 9.79548C10.5472 9.89399 10.5278 9.99154 10.4902 10.0826C10.4525 10.1736 10.3973 10.2563 10.3276 10.326C9.64729 11.0063 8.73149 11.3991 7.76966 11.4231C6.80784 11.4471 5.87358 11.1005 5.16014 10.455L5.02364 10.326L2.90264 8.20424C2.19962 7.50101 1.80469 6.54736 1.80469 5.55299C1.80469 4.55863 2.19962 3.60422 2.90264 2.90099Z" fill="black"/>
</svg>
