<?xml version="1.0" encoding="UTF-8"?>
<svg id="Layer_2" xmlns="http://www.w3.org/2000/svg" viewBox="0 0 502.69 164.62">
  <defs>
    <style>
      .cls-1 {
        fill: #231f20;
      }
    </style>
  </defs>
  <g id="Layer_1-2" data-name="Layer_1">
    <g>
      <g>
        <rect class="cls-1" x="304.89" y="0" width="19.83" height="19.24" rx="1.2" ry="1.2"/>
        <path class="cls-1" d="M306.19,131.01h17.23c.66,0,1.2-.54,1.2-1.2V34.03c0-.67-.54-1.21-1.21-1.21h-17.22c-.67,0-1.21.54-1.21,1.21v95.77c0,.67.54,1.21,1.21,1.21Z"/>
      </g>
      <path class="cls-1" d="M481.12,33.85l-22.79,62.83c-.51,1.41-2.5,1.4-3.01,0l-22.2-62.05c-.39-1.08-1.41-1.81-2.56-1.81h-17.44c-.91,0-1.54.9-1.23,1.75l33.98,93.11c.39,1.06.38,2.21,0,3.27l-4.26,11.56s-.03.07-.05.11c-1.97,3.62-2.68,4.12-5.61,4.12h-13.99c-.66,0-1.19.53-1.19,1.19v15.48c0,.66.54,1.2,1.2,1.2h20.11c9.36,0,13.21-5.37,15.78-10.74,0-.02.02-.04.03-.06l44.74-119.26c.32-.84-.31-1.74-1.21-1.74h-18.81c-.66,0-1.25.41-1.47,1.03Z"/>
      <path class="cls-1" d="M142.67,32.23c-29.03,0-46.36,18.88-46.36,50.51s17.33,50.68,46.36,50.68,45.85-18.95,45.85-50.68-17.14-50.51-45.85-50.51ZM142.67,115.55c-17.28,0-27.2-11.96-27.2-32.82s9.91-32.64,27.2-32.64,26.68,11.9,26.68,32.64-9.72,32.82-26.68,32.82Z"/>
      <path class="cls-1" d="M244.59,31.42c-8.35,0-17.08,3.33-22.65,8.33-.42.38-1.09.07-1.09-.5V5.74c0-.72-.59-1.31-1.31-1.31h-16.54c-.72,0-1.31.59-1.31,1.31v124.78c0,.66.54,1.2,1.2,1.2h16.2c.67,0,1.21-.55,1.2-1.22l-.12-9.06c0-.61.72-.94,1.17-.53l10.53,9.39c1.35,1.2,2.95,2.09,4.69,2.52,2.68.66,5.41,1.03,8.04,1.03,29.03,0,46.36-19.15,46.36-51.22s-17.33-51.22-46.36-51.22ZM244.07,115.99c-16.92,0-27.02-12.47-27.02-33.35s10.1-33.35,27.02-33.35,27.71,12.47,27.71,33.35-10.36,33.35-27.71,33.35Z"/>
      <path class="cls-1" d="M0,93.6h0c.27,23.3,17.6,39.53,42.36,39.53,27.29,0,42.02-19.92,42.02-38.65v-18.93h0c0-10.14,0-18.99-.04-28.98,0-.64-.46-1.42-.94-1.9-4.96-4.9-9.73-8.29-14.61-13.16-.31-.3-.09-.83.34-.83h14.56c.55,0,.99-.45.99-.99V13.1c0-.55-.45-.99-.99-.99H16.21c-.55,0-.99.45-.99.99v16.59c0,.55.45.99.99.99h48c.27,0,.48.22.48.48,0,17.08,0,31.51,0,48.69h.05v10.9c0,14.66-8.99,24.5-22.38,24.5s-22.62-9.03-22.72-21.98v-1.07c0-.47-.38-.85-.85-.85H.75c-.41,0-.72.33-.74.74s0,1.5,0,1.5Z"/>
      <path class="cls-1" d="M379.88,22.38h19.39c.77,0,1.4-.63,1.4-1.4V5.91c0-.77-.63-1.4-1.4-1.4h-23.1c-12.49,0-19.37,8.39-19.37,23.62v3.6c0,.6-.49,1.09-1.09,1.09h-16.98c-.77,0-1.4.63-1.4,1.4v15.08c0,.77.63,1.4,1.4,1.4h16.98c.6,0,1.09.49,1.09,1.09v78.01c0,.77.63,1.4,1.4,1.4h16.84c.77,0,1.4-.63,1.4-1.4V52.32s0-.01,0-.02v-8.59c0-.6.71-.93,1.16-.53l8.39,7.01c.38.32.86.5,1.35.5h11.94c.77,0,1.4-.63,1.4-1.4v-15.08c0-.77-.63-1.4-1.4-1.4h-21.84c-.55,0-1-.45-1-1v-4.22c0-4.35,1.32-5.22,3.45-5.22Z"/>
    </g>
  </g>
</svg>