<svg width="46" height="46" viewBox="0 0 46 46" fill="none" xmlns="http://www.w3.org/2000/svg">
<path d="M8.62435 31.6252C5.74935 34.0402 4.79102 41.2085 4.79102 41.2085C4.79102 41.2085 11.9593 40.2502 14.3743 37.3752C15.7352 35.7652 15.716 33.2927 14.2018 31.7977C13.4569 31.0866 12.4755 30.6757 11.4461 30.6439C10.4167 30.612 9.41186 30.9615 8.62435 31.6252ZM22.9993 28.7502L17.2493 23.0002C18.2693 20.3541 19.5536 17.8176 21.0827 15.4293C23.3159 11.8585 26.4256 8.91849 30.1159 6.88882C33.8062 4.85916 37.9545 3.80736 42.166 3.83348C42.166 9.04682 40.671 18.2085 30.666 24.9168C28.2447 26.4471 25.6764 27.7313 22.9993 28.7502Z" stroke="black" stroke-width="2.5" stroke-linecap="round" stroke-linejoin="round"/>
<path d="M17.2493 22.9998H7.66602C7.66602 22.9998 8.72018 17.1923 11.4993 15.3331C14.6043 13.2631 21.0827 15.3331 21.0827 15.3331M22.9993 28.7498V38.3331C22.9993 38.3331 28.8068 37.2789 30.666 34.4998C32.736 31.3948 30.666 24.9164 30.666 24.9164" stroke="black" stroke-width="2.5" stroke-linecap="round" stroke-linejoin="round"/>
</svg>
