<svg width="16" height="17" viewBox="0 0 16 17" fill="none" xmlns="http://www.w3.org/2000/svg">
<path d="M8.44439 16.4448L8.43614 16.4463L8.38289 16.4725L8.36789 16.4755L8.35739 16.4725L8.30414 16.4463C8.29614 16.4438 8.29014 16.445 8.28614 16.45L8.28314 16.4575L8.27039 16.7785L8.27414 16.7935L8.28164 16.8033L8.35964 16.8588L8.37089 16.8618L8.37989 16.8588L8.45789 16.8033L8.46689 16.7913L8.46989 16.7785L8.45714 16.4583C8.45514 16.4503 8.45089 16.4458 8.44439 16.4448ZM8.64314 16.36L8.63339 16.3615L8.49464 16.4313L8.48714 16.4388L8.48489 16.447L8.49839 16.7695L8.50214 16.7785L8.50814 16.7838L8.65889 16.8535C8.66839 16.856 8.67564 16.854 8.68064 16.8475L8.68364 16.837L8.65814 16.3765C8.65564 16.3675 8.65064 16.362 8.64314 16.36ZM8.10689 16.3615C8.10359 16.3595 8.09964 16.3589 8.09586 16.3597C8.09209 16.3606 8.08879 16.3628 8.08664 16.366L8.08214 16.3765L8.05664 16.837C8.05714 16.846 8.06139 16.852 8.06939 16.855L8.08064 16.8535L8.23139 16.7838L8.23889 16.7778L8.24189 16.7695L8.25464 16.447L8.25239 16.438L8.24489 16.4305L8.10689 16.3615Z" fill="black"/>
<path d="M8 0.5C12.1423 0.5 15.5 3.85775 15.5 8C15.5 12.1423 12.1423 15.5 8 15.5H2C1.60218 15.5 1.22064 15.342 0.93934 15.0607C0.658035 14.7794 0.5 14.3978 0.5 14V8C0.5 3.85775 3.85775 0.5 8 0.5ZM8 2C6.4087 2 4.88258 2.63214 3.75736 3.75736C2.63214 4.88258 2 6.4087 2 8V14H8C9.5913 14 11.1174 13.3679 12.2426 12.2426C13.3679 11.1174 14 9.5913 14 8C14 6.4087 13.3679 4.88258 12.2426 3.75736C11.1174 2.63214 9.5913 2 8 2ZM8 9.5C8.19116 9.50021 8.37502 9.57341 8.51403 9.70464C8.65303 9.83586 8.73668 10.0152 8.74788 10.206C8.75908 10.3969 8.69699 10.5848 8.5743 10.7314C8.45161 10.878 8.27757 10.9722 8.08775 10.9948L8 11H5.75C5.55884 10.9998 5.37498 10.9266 5.23597 10.7954C5.09697 10.6641 5.01332 10.4848 5.00212 10.294C4.99092 10.1031 5.05301 9.91522 5.1757 9.76863C5.29839 9.62204 5.47243 9.52783 5.66225 9.50525L5.75 9.5H8ZM10.25 6.5C10.4489 6.5 10.6397 6.57902 10.7803 6.71967C10.921 6.86032 11 7.05109 11 7.25C11 7.44891 10.921 7.63968 10.7803 7.78033C10.6397 7.92098 10.4489 8 10.25 8H5.75C5.55109 8 5.36032 7.92098 5.21967 7.78033C5.07902 7.63968 5 7.44891 5 7.25C5 7.05109 5.07902 6.86032 5.21967 6.71967C5.36032 6.57902 5.55109 6.5 5.75 6.5H10.25Z" fill="black"/>
</svg>
