<svg width="18" height="20" viewBox="0 0 18 20" fill="none" xmlns="http://www.w3.org/2000/svg">
<path d="M9 0.5C7.23449 0.5 5.5413 1.2375 4.2929 2.55025C3.0445 3.86301 2.34315 5.64348 2.34315 7.5V11.028C2.34329 11.1831 2.3091 11.3362 2.2433 11.475L0.610468 14.908C0.530706 15.0757 0.493043 15.2621 0.501057 15.4494C0.50907 15.6368 0.562494 15.8188 0.656253 15.9783C0.750013 16.1379 0.880995 16.2695 1.03676 16.3608C1.19253 16.4521 1.3679 16.5 1.54623 16.5H16.4538C16.6321 16.5 16.8075 16.4521 16.9632 16.3608C17.119 16.2695 17.25 16.1379 17.3437 15.9783C17.4375 15.8188 17.4909 15.6368 17.4989 15.4494C17.507 15.2621 17.4693 15.0757 17.3895 14.908L15.7577 11.475C15.6915 11.3362 15.657 11.1832 15.6568 11.028V7.5C15.6568 5.64348 14.9555 3.86301 13.7071 2.55025C12.4587 1.2375 10.7655 0.5 9 0.5ZM9 19.5C8.40977 19.5003 7.83398 19.3081 7.35197 18.9499C6.86996 18.5917 6.50547 18.0852 6.30873 17.5H11.6913C11.4945 18.0852 11.13 18.5917 10.648 18.9499C10.166 19.3081 9.59023 19.5003 9 19.5Z" fill="black"/>
</svg>
