<svg width="20" height="20" viewBox="0 0 20 20" fill="none" xmlns="http://www.w3.org/2000/svg">
<path d="M9.69276 2C8.30263 2 6.96943 2.55223 5.98646 3.5352C5.00349 4.51817 4.45127 5.85136 4.45127 7.24149L4.45127 9.8832C4.45137 9.99936 4.42446 10.1139 4.37264 10.2179L3.08698 12.7885C3.02418 12.9141 2.99452 13.0536 3.00083 13.1939C3.00714 13.3342 3.04921 13.4705 3.12303 13.5899C3.19686 13.7094 3.29999 13.808 3.42264 13.8763C3.54528 13.9447 3.68337 13.9806 3.82379 13.9806L15.5617 13.9806C15.7021 13.9806 15.8402 13.9447 15.9629 13.8763C16.0855 13.808 16.1887 13.7094 16.2625 13.5899C16.3363 13.4705 16.3784 13.3342 16.3847 13.1939C16.391 13.0536 16.3613 12.9141 16.2985 12.7885L15.0136 10.2179C14.9615 10.114 14.9344 9.99942 14.9342 9.8832L14.9342 7.24149C14.9342 5.85136 14.382 4.51817 13.3991 3.5352C12.4161 2.55223 11.0829 2 9.69276 2ZM9.69276 16.2269C9.22802 16.2271 8.77465 16.0832 8.39513 15.815C8.0156 15.5468 7.72861 15.1675 7.5737 14.7293L11.8118 14.7293C11.6569 15.1675 11.3699 15.5468 10.9904 15.815C10.6109 16.0832 10.1575 16.2271 9.69276 16.2269Z" fill="black"/>
</svg>
