<svg width="46" height="46" viewBox="0 0 46 46" fill="none" xmlns="http://www.w3.org/2000/svg">
<path d="M28.7507 7.66634V21.083H9.90982L8.77898 22.2138L7.66732 23.3255V7.66634H28.7507ZM30.6673 3.83301H5.75065C4.69648 3.83301 3.83398 4.69551 3.83398 5.74967V32.583L11.5007 24.9163H30.6673C31.7215 24.9163 32.584 24.0538 32.584 22.9997V5.74967C32.584 4.69551 31.7215 3.83301 30.6673 3.83301ZM40.2506 11.4997H36.4173V28.7497H11.5007V32.583C11.5007 33.6372 12.3632 34.4997 13.4173 34.4997H34.5007L42.1673 42.1663V13.4163C42.1673 12.3622 41.3048 11.4997 40.2506 11.4997Z" fill="black"/>
</svg>
