<svg width="20" height="20" viewBox="0 0 20 20" fill="none" xmlns="http://www.w3.org/2000/svg">
<path d="M5.40625 5C4.76807 5 4.15603 5.26559 3.70477 5.73833C3.25351 6.21108 3 6.85227 3 7.52083V8.66667L17 8.66667V7.52083C17 6.85227 16.7465 6.21108 16.2952 5.73833C15.844 5.26559 15.2319 5 14.5938 5L5.40625 5ZM17 9.58333L3 9.58333L3 13.4792C3 14.1477 3.25351 14.7889 3.70477 15.2617C4.15603 15.7344 4.76807 16 5.40625 16H14.5937C15.2319 16 15.844 15.7344 16.2952 15.2617C16.7465 14.7889 17 14.1477 17 13.4792V9.58333ZM13.0625 13.25H14.8125C14.9285 13.25 15.0398 13.2983 15.1219 13.3842C15.2039 13.4702 15.25 13.5868 15.25 13.7083C15.25 13.8299 15.2039 13.9465 15.1219 14.0324C15.0398 14.1184 14.9285 14.1667 14.8125 14.1667H13.0625C12.9465 14.1667 12.8352 14.1184 12.7531 14.0324C12.6711 13.9465 12.625 13.8299 12.625 13.7083C12.625 13.5868 12.6711 13.4702 12.7531 13.3842C12.8352 13.2983 12.9465 13.25 13.0625 13.25Z" fill="black"/>
</svg>
