<svg width="226" height="21" viewBox="0 0 226 21" fill="none" xmlns="http://www.w3.org/2000/svg">
<g clip-path="url(#clip0_1067_4645)">
<path d="M4.90772 20.8961V19.5062C4.90772 18.9733 4.58351 18.6259 4.02779 18.6259C3.74999 18.6259 3.44898 18.7185 3.24057 19.0197C3.07857 18.7649 2.84707 18.6259 2.49976 18.6259C2.26815 18.6259 2.03675 18.6953 1.85145 18.9502V18.6722H1.36523V20.8961H1.85145V19.6683C1.85145 19.2746 2.05985 19.0891 2.38406 19.0891C2.70806 19.0891 2.87027 19.2977 2.87027 19.6683V20.8961H3.35648V19.6683C3.35648 19.2746 3.58788 19.0891 3.88889 19.0891C4.2131 19.0891 4.3751 19.2977 4.3751 19.6683V20.8961H4.90772ZM12.1082 18.6722H11.3211V18.0004H10.8349V18.6722H10.3949V19.1122H10.8347V20.1316C10.8347 20.6413 11.0432 20.9424 11.5989 20.9424C11.8073 20.9424 12.0387 20.873 12.2009 20.7803L12.0619 20.3633C11.923 20.4559 11.761 20.4791 11.6452 20.4791C11.4137 20.4791 11.3211 20.3402 11.3211 20.1084V19.1122H12.1082V18.6722ZM16.2295 18.6258C15.9517 18.6258 15.7665 18.7649 15.6507 18.9502V18.6722H15.1644V20.8961H15.6507V19.6452C15.6507 19.2746 15.8127 19.066 16.1137 19.066C16.2063 19.066 16.3221 19.0892 16.4147 19.1124L16.5536 18.6491C16.461 18.6259 16.3221 18.6259 16.2295 18.6259M10.0013 18.8576C9.76972 18.6954 9.44562 18.626 9.09831 18.626C8.5427 18.626 8.17229 18.9039 8.17229 19.3441C8.17229 19.7148 8.4501 19.9232 8.93631 19.9928L9.16781 20.016C9.42252 20.0622 9.56142 20.1318 9.56142 20.2476C9.56142 20.4097 9.37622 20.5256 9.05201 20.5256C8.7278 20.5256 8.47319 20.4097 8.31109 20.2939L8.07959 20.6646C8.33429 20.8499 8.6816 20.9425 9.0288 20.9425C9.67712 20.9425 10.0476 20.6414 10.0476 20.2244C10.0476 19.8306 9.74662 19.6221 9.28351 19.5526L9.05201 19.5294C8.8436 19.5062 8.6816 19.46 8.6816 19.321C8.6816 19.1588 8.8436 19.0661 9.09831 19.0661C9.37622 19.0661 9.65402 19.1819 9.79293 19.2514L10.0013 18.8576ZM22.9207 18.626C22.6428 18.626 22.4576 18.765 22.3418 18.9503V18.6723H21.8556V20.8962H22.3418V19.6453C22.3418 19.2747 22.5039 19.0661 22.8048 19.0661C22.8975 19.0661 23.0133 19.0893 23.1059 19.1125L23.2448 18.6492C23.1522 18.626 23.0133 18.626 22.9207 18.626ZM16.7157 19.7842C16.7157 20.456 17.1787 20.9425 17.8965 20.9425C18.2206 20.9425 18.4521 20.8731 18.6836 20.6878L18.4521 20.2939C18.2669 20.4329 18.0817 20.5024 17.8733 20.5024C17.4797 20.5024 17.2019 20.2244 17.2019 19.7842C17.2019 19.3673 17.4797 19.0892 17.8733 19.0661C18.0817 19.0661 18.2669 19.1356 18.4521 19.2747L18.6836 18.8808C18.4521 18.6954 18.2206 18.626 17.8965 18.626C17.1787 18.626 16.7157 19.1125 16.7157 19.7842ZM21.2074 19.7842V18.6723H20.7212V18.9503C20.5591 18.7418 20.3276 18.626 20.0266 18.626C19.4014 18.626 18.9152 19.1125 18.9152 19.7842C18.9152 20.456 19.4014 20.9425 20.0266 20.9425C20.3507 20.9425 20.5823 20.8268 20.7212 20.6182V20.8962H21.2074V19.7842ZM19.4245 19.7842C19.4245 19.3904 19.6793 19.0661 20.096 19.0661C20.4896 19.0661 20.7675 19.3673 20.7675 19.7842C20.7675 20.1781 20.4896 20.5024 20.096 20.5024C19.6793 20.4791 19.4245 20.1781 19.4245 19.7842ZM13.6132 18.626C12.9649 18.626 12.5018 19.0892 12.5018 19.7842C12.5018 20.4793 12.9648 20.9425 13.6363 20.9425C13.9604 20.9425 14.2846 20.8499 14.5393 20.6415L14.3077 20.2939C14.1225 20.4329 13.891 20.5256 13.6595 20.5256C13.3585 20.5256 13.0575 20.3866 12.988 19.9927H14.6319V19.8075C14.6551 19.0892 14.2384 18.626 13.6132 18.626ZM13.6131 19.0429C13.914 19.0429 14.1225 19.2283 14.1687 19.5758H13.0111C13.0574 19.2747 13.2658 19.0429 13.6131 19.0429ZM25.6758 19.7842V17.792H25.1896V18.9503C25.0275 18.7418 24.796 18.626 24.495 18.626C23.8698 18.626 23.3836 19.1125 23.3836 19.7842C23.3836 20.456 23.8698 20.9425 24.495 20.9425C24.8192 20.9425 25.0507 20.8268 25.1896 20.6182V20.8962H25.6758V19.7842ZM23.893 19.7842C23.893 19.3904 24.1476 19.0661 24.5645 19.0661C24.9581 19.0661 25.2359 19.3673 25.2359 19.7842C25.2359 20.1781 24.9581 20.5024 24.5645 20.5024C24.1476 20.4791 23.893 20.1781 23.893 19.7842ZM7.63957 19.7842V18.6723H7.15336V18.9503C6.99125 18.7418 6.75975 18.626 6.45874 18.626C5.83363 18.626 5.34742 19.1125 5.34742 19.7842C5.34742 20.456 5.83363 20.9425 6.45874 20.9425C6.78295 20.9425 7.01446 20.8268 7.15336 20.6182V20.8962H7.63957V19.7842ZM5.83363 19.7842C5.83363 19.3904 6.08834 19.0661 6.50504 19.0661C6.89865 19.0661 7.17656 19.3673 7.17656 19.7842C7.17656 20.1781 6.89865 20.5024 6.50504 20.5024C6.08834 20.4791 5.83363 20.1781 5.83363 19.7842Z" fill="black"/>
<path d="M9.83984 1.78418H17.133V14.8961H9.83984V1.78418Z" fill="#FF5F00"/>
<path d="M10.3031 8.33974C10.3031 5.6757 11.5534 3.31272 13.475 1.78373C12.0628 0.671789 10.28 0 8.3352 0C3.72758 0 0 3.72966 0 8.33974C0 12.9498 3.72758 16.6795 8.33509 16.6795C10.2799 16.6795 12.0627 16.0077 13.475 14.8956C11.5534 13.3899 10.3031 11.0038 10.3031 8.33974Z" fill="#EB001B"/>
<path d="M26.9731 8.33974C26.9731 12.9497 23.2455 16.6795 18.638 16.6795C16.6931 16.6795 14.9104 16.0077 13.498 14.8956C15.4429 13.3668 16.67 11.0038 16.67 8.33974C16.67 5.6757 15.4197 3.31272 13.498 1.78373C14.9103 0.671789 16.6931 0 18.638 0C23.2455 0 26.9731 3.75288 26.9731 8.33974Z" fill="#F79E1B"/>
</g>
<path d="M46.1904 15.6641C44.3037 15.6641 42.9092 14.4883 42.8066 12.8066H44.0166C44.126 13.8594 45.0215 14.584 46.2041 14.584C47.5439 14.584 48.4736 13.6543 48.4736 12.3281C48.4736 11.002 47.5371 10.0518 46.2246 10.0518C45.3018 10.0518 44.5156 10.4688 44.1123 11.1592H42.957L43.4971 5.63574H49.1436V6.72949H44.5088L44.208 9.94238H44.2354C44.6797 9.34766 45.5 8.99219 46.4434 8.99219C48.3369 8.99219 49.7041 10.3799 49.7041 12.2939C49.7041 14.2764 48.248 15.6641 46.1904 15.6641ZM54.3799 15.6641C52.2949 15.6641 50.8047 14.4814 50.8047 12.834C50.8047 11.6035 51.6523 10.5918 52.9238 10.2979V10.2705C51.8574 9.94238 51.1943 9.10156 51.1943 8.0625C51.1943 6.57227 52.5479 5.47168 54.3799 5.47168C56.2256 5.47168 57.5586 6.56543 57.5586 8.06934C57.5586 9.09473 56.9092 9.92871 55.8359 10.2705V10.2979C57.1143 10.5986 57.9619 11.6104 57.9619 12.834C57.9619 14.4883 56.4717 15.6641 54.3799 15.6641ZM54.3799 14.5908C55.7402 14.5908 56.7041 13.8184 56.7041 12.7451C56.7041 11.6582 55.7402 10.8926 54.3799 10.8926C53.0264 10.8926 52.0557 11.665 52.0557 12.7451C52.0557 13.8184 53.0264 14.5908 54.3799 14.5908ZM54.3799 9.8125C55.5283 9.8125 56.3418 9.13574 56.3418 8.17871C56.3418 7.20801 55.5352 6.53125 54.3799 6.53125C53.2246 6.53125 52.418 7.21484 52.418 8.17871C52.418 9.13574 53.2246 9.8125 54.3799 9.8125ZM62.7744 15.6641C60.6895 15.6641 59.1992 14.4814 59.1992 12.834C59.1992 11.6035 60.0469 10.5918 61.3184 10.2979V10.2705C60.252 9.94238 59.5889 9.10156 59.5889 8.0625C59.5889 6.57227 60.9424 5.47168 62.7744 5.47168C64.6201 5.47168 65.9531 6.56543 65.9531 8.06934C65.9531 9.09473 65.3037 9.92871 64.2305 10.2705V10.2979C65.5088 10.5986 66.3564 11.6104 66.3564 12.834C66.3564 14.4883 64.8662 15.6641 62.7744 15.6641ZM62.7744 14.5908C64.1348 14.5908 65.0986 13.8184 65.0986 12.7451C65.0986 11.6582 64.1348 10.8926 62.7744 10.8926C61.4209 10.8926 60.4502 11.665 60.4502 12.7451C60.4502 13.8184 61.4209 14.5908 62.7744 14.5908ZM62.7744 9.8125C63.9229 9.8125 64.7363 9.13574 64.7363 8.17871C64.7363 7.20801 63.9297 6.53125 62.7744 6.53125C61.6191 6.53125 60.8125 7.21484 60.8125 8.17871C60.8125 9.13574 61.6191 9.8125 62.7744 9.8125ZM70.916 15.6641C69.2344 15.6641 67.9424 14.6523 67.6416 13.1074H68.8926C69.1523 14.0029 69.9521 14.5908 70.9297 14.5908C72.5703 14.5908 73.5137 13.1006 73.5479 10.4824H73.541C73.5342 10.4824 73.5342 10.4824 73.5273 10.4824C73.1104 11.46 72.0303 12.0957 70.7725 12.0957C68.8926 12.0957 67.498 10.708 67.498 8.83496C67.498 6.88672 68.9678 5.46484 70.9912 5.46484C72.4746 5.46484 73.6504 6.26465 74.252 7.67969C74.5801 8.43848 74.7373 9.32715 74.7373 10.4004C74.7373 13.7227 73.3291 15.6641 70.916 15.6641ZM70.9844 11.0156C72.29 11.0156 73.2607 10.0859 73.2607 8.82812C73.2607 7.56348 72.2764 6.57227 71.0049 6.57227C69.7402 6.57227 68.7422 7.55664 68.7422 8.79395C68.7422 10.0791 69.6924 11.0156 70.9844 11.0156ZM80.6025 12.0547H76.1182V10.9473H80.6025V12.0547ZM81.0537 15.5L84.4102 10.5576V10.5098L81.0947 5.63574H82.5781L85.21 9.60059H85.2578L87.9238 5.63574H89.3252L85.9209 10.5713V10.6123L89.25 15.5H87.7734L85.1553 11.5693H85.1074L82.4482 15.5H81.0537ZM89.9404 15.5L93.2969 10.5576V10.5098L89.9814 5.63574H91.4648L94.0967 9.60059H94.1445L96.8105 5.63574H98.2119L94.8076 10.5713V10.6123L98.1367 15.5H96.6602L94.042 11.5693H93.9941L91.335 15.5H89.9404ZM98.8271 15.5L102.184 10.5576V10.5098L98.8682 5.63574H100.352L102.983 9.60059H103.031L105.697 5.63574H107.099L103.694 10.5713V10.6123L107.023 15.5H105.547L102.929 11.5693H102.881L100.222 15.5H98.8271ZM107.714 15.5L111.07 10.5576V10.5098L107.755 5.63574H109.238L111.87 9.60059H111.918L114.584 5.63574H115.985L112.581 10.5713V10.6123L115.91 15.5H114.434L111.815 11.5693H111.768L109.108 15.5H107.714ZM120.921 12.0547H116.437V10.9473H120.921V12.0547ZM121.372 15.5L124.729 10.5576V10.5098L121.413 5.63574H122.896L125.528 9.60059H125.576L128.242 5.63574H129.644L126.239 10.5713V10.6123L129.568 15.5H128.092L125.474 11.5693H125.426L122.767 15.5H121.372ZM130.259 15.5L133.615 10.5576V10.5098L130.3 5.63574H131.783L134.415 9.60059H134.463L137.129 5.63574H138.53L135.126 10.5713V10.6123L138.455 15.5H136.979L134.36 11.5693H134.312L131.653 15.5H130.259ZM139.146 15.5L142.502 10.5576V10.5098L139.187 5.63574H140.67L143.302 9.60059H143.35L146.016 5.63574H147.417L144.013 10.5713V10.6123L147.342 15.5H145.865L143.247 11.5693H143.199L140.54 15.5H139.146ZM148.032 15.5L151.389 10.5576V10.5098L148.073 5.63574H149.557L152.188 9.60059H152.236L154.902 5.63574H156.304L152.899 10.5713V10.6123L156.229 15.5H154.752L152.134 11.5693H152.086L149.427 15.5H148.032ZM161.239 12.0547H156.755V10.9473H161.239V12.0547ZM161.69 15.5L165.047 10.5576V10.5098L161.731 5.63574H163.215L165.847 9.60059H165.895L168.561 5.63574H169.962L166.558 10.5713V10.6123L169.887 15.5H168.41L165.792 11.5693H165.744L163.085 15.5H161.69ZM170.577 15.5L173.934 10.5576V10.5098L170.618 5.63574H172.102L174.733 9.60059H174.781L177.447 5.63574H178.849L175.444 10.5713V10.6123L178.773 15.5H177.297L174.679 11.5693H174.631L171.972 15.5H170.577ZM179.464 15.5L182.82 10.5576V10.5098L179.505 5.63574H180.988L183.62 9.60059H183.668L186.334 5.63574H187.735L184.331 10.5713V10.6123L187.66 15.5H186.184L183.565 11.5693H183.518L180.858 15.5H179.464ZM188.351 15.5L191.707 10.5576V10.5098L188.392 5.63574H189.875L192.507 9.60059H192.555L195.221 5.63574H196.622L193.218 10.5713V10.6123L196.547 15.5H195.07L192.452 11.5693H192.404L189.745 15.5H188.351Z" fill="black"/>
<path d="M215.733 14.5837L214.916 13.767L218.183 10.5003L214.916 7.23366L215.733 6.41699L218.999 9.68366L222.266 6.41699L223.083 7.23366L219.816 10.5003L223.083 13.767L222.266 14.5837L218.999 11.317L215.733 14.5837Z" fill="#F63939"/>
<defs>
<clipPath id="clip0_1067_4645">
<rect width="27" height="21" fill="white"/>
</clipPath>
</defs>
</svg>
