<svg width="14" height="14" viewBox="0 0 14 14" fill="none" xmlns="http://www.w3.org/2000/svg">
<path d="M0.833984 7.00065C0.833984 8.63615 1.48368 10.2047 2.64016 11.3611C3.79663 12.5176 5.36515 13.1673 7.00065 13.1673V0.833984C5.36515 0.833984 3.79663 1.48368 2.64016 2.64016C1.48368 3.79663 0.833984 5.36515 0.833984 7.00065Z" fill="#D98129"/>
<path fill-rule="evenodd" clip-rule="evenodd" d="M6.50065 1.35607C5.18104 1.47291 3.93792 2.0495 2.99371 2.99371C1.93101 4.05642 1.33398 5.49776 1.33398 7.00065C1.33398 8.50354 1.93101 9.94488 2.99371 11.0076C3.93792 11.9518 5.18104 12.5284 6.50065 12.6452V1.35607ZM7.50065 1.35607V12.6452C8.82027 12.5284 10.0634 11.9518 11.0076 11.0076C12.0703 9.94488 12.6673 8.50354 12.6673 7.00065C12.6673 5.49776 12.0703 4.05642 11.0076 2.99371C10.0634 2.0495 8.82027 1.47291 7.50065 1.35607ZM2.28661 2.28661C3.53685 1.03636 5.23254 0.333984 7.00065 0.333984C8.76876 0.333984 10.4645 1.03636 11.7147 2.28661C12.9649 3.53685 13.6673 5.23254 13.6673 7.00065C13.6673 8.76876 12.9649 10.4645 11.7147 11.7147C10.4645 12.9649 8.76876 13.6673 7.00065 13.6673C5.23254 13.6673 3.53685 12.9649 2.28661 11.7147C1.03636 10.4645 0.333984 8.76876 0.333984 7.00065C0.333984 5.23254 1.03636 3.53685 2.28661 2.28661Z" fill="#D98129"/>
</svg>
