<svg width="20" height="20" viewBox="0 0 20 20" fill="none" xmlns="http://www.w3.org/2000/svg">
<path fill-rule="evenodd" clip-rule="evenodd" d="M13.8916 10.9414C15.0333 11.7164 15.8333 12.7664 15.8333 14.1664V16.6664H18.3333C18.7916 16.6664 19.1666 16.2914 19.1666 15.8331V14.1664C19.1666 12.3497 16.1916 11.2747 13.8916 10.9414Z" fill="black"/>
<path d="M7.50008 9.99967C9.34103 9.99967 10.8334 8.50729 10.8334 6.66634C10.8334 4.82539 9.34103 3.33301 7.50008 3.33301C5.65913 3.33301 4.16675 4.82539 4.16675 6.66634C4.16675 8.50729 5.65913 9.99967 7.50008 9.99967Z" fill="black"/>
<path fill-rule="evenodd" clip-rule="evenodd" d="M12.4999 9.99967C14.3416 9.99967 15.8333 8.50801 15.8333 6.66634C15.8333 4.82467 14.3416 3.33301 12.4999 3.33301C12.1083 3.33301 11.7416 3.41634 11.3916 3.53301C12.1087 4.41986 12.4999 5.52584 12.4999 6.66634C12.4999 7.80684 12.1087 8.91283 11.3916 9.79967C11.7416 9.91634 12.1083 9.99967 12.4999 9.99967ZM7.49992 10.833C5.27492 10.833 0.833252 11.9497 0.833252 14.1663V15.833C0.833252 16.2913 1.20825 16.6663 1.66659 16.6663H13.3333C13.7916 16.6663 14.1666 16.2913 14.1666 15.833V14.1663C14.1666 11.9497 9.72492 10.833 7.49992 10.833Z" fill="black"/>
</svg>
