<svg width="47" height="46" viewBox="0 0 47 46" fill="none" xmlns="http://www.w3.org/2000/svg">
<path d="M19.9062 34.5C19.7156 34.5 19.5328 34.5757 19.398 34.7105C19.2632 34.8453 19.1875 35.0281 19.1875 35.2188C19.1875 35.4094 19.2632 35.5922 19.398 35.727C19.5328 35.8618 19.7156 35.9375 19.9062 35.9375H27.0938C27.2844 35.9375 27.4672 35.8618 27.602 35.727C27.7368 35.5922 27.8125 35.4094 27.8125 35.2188C27.8125 35.0281 27.7368 34.8453 27.602 34.7105C27.4672 34.5757 27.2844 34.5 27.0938 34.5H19.9062ZM15.2344 2.875C13.9953 2.875 12.807 3.36721 11.9309 4.24336C11.0547 5.11951 10.5625 6.30782 10.5625 7.54688V38.4531C10.5625 39.6922 11.0547 40.8805 11.9309 41.7566C12.807 42.6328 13.9953 43.125 15.2344 43.125H31.7656C33.0047 43.125 34.193 42.6328 35.0691 41.7566C35.9453 40.8805 36.4375 39.6922 36.4375 38.4531V7.54688C36.4375 6.30782 35.9453 5.11951 35.0691 4.24336C34.193 3.36721 33.0047 2.875 31.7656 2.875H15.2344ZM12 7.54688C12 6.68907 12.3408 5.86639 12.9473 5.25983C13.5539 4.65326 14.3766 4.3125 15.2344 4.3125H31.7656C32.6234 4.3125 33.4461 4.65326 34.0527 5.25983C34.6592 5.86639 35 6.68907 35 7.54688V38.4531C35 39.3109 34.6592 40.1336 34.0527 40.7402C33.4461 41.3467 32.6234 41.6875 31.7656 41.6875H15.2344C14.3766 41.6875 13.5539 41.3467 12.9473 40.7402C12.3408 40.1336 12 39.3109 12 38.4531V7.54688Z" fill="#6CCA6C"/>
</svg>
