<svg width="14" height="14" viewBox="0 0 14 14" fill="none" xmlns="http://www.w3.org/2000/svg">
<g opacity="0.5">
<path fill-rule="evenodd" clip-rule="evenodd" d="M4.00173 1.42668C4.66848 1.9126 5.18765 2.57585 5.63098 3.21051L5.88882 3.58618L6.13207 3.94493C6.25374 4.12269 6.30576 4.339 6.27822 4.55265C6.25069 4.76629 6.14551 4.96234 5.98273 5.10343L4.84465 5.94868C4.78967 5.98839 4.75096 6.0467 4.73573 6.11279C4.72049 6.17887 4.72976 6.24825 4.76182 6.30801C5.01965 6.77643 5.47815 7.4741 6.00315 7.9991C6.52815 8.5241 7.25907 9.01293 7.76015 9.29993C7.82298 9.3352 7.89693 9.34506 7.9668 9.32748C8.03667 9.3099 8.09716 9.26623 8.13582 9.20543L8.87665 8.07785C9.01285 7.89692 9.21377 7.77572 9.43734 7.73962C9.6609 7.70352 9.88976 7.75532 10.076 7.88418L10.4627 8.15193C11.1855 8.6536 11.9619 9.22351 12.5557 9.9836C12.6499 10.1048 12.7098 10.2491 12.7292 10.4014C12.7486 10.5536 12.7268 10.7083 12.666 10.8493C12.1777 11.9885 10.9422 12.9586 9.65715 12.9113L9.48215 12.9014L9.34623 12.8898L9.19573 12.8723L9.03182 12.8501L8.8539 12.8209L8.76057 12.8034L8.56457 12.7614L8.4619 12.7381L8.2484 12.6833L8.02382 12.6191L7.78932 12.5433C6.71248 12.1781 5.34573 11.4606 3.9434 10.0583C2.54107 8.65593 1.82415 7.28976 1.45898 6.21293L1.38315 5.97843L1.31898 5.75385L1.26415 5.54035L1.21865 5.33851C1.20552 5.2753 1.19327 5.2119 1.1819 5.14835L1.15273 4.97043L1.1294 4.80651L1.11248 4.65601L1.10082 4.5201L1.09148 4.3451C1.04423 3.0641 2.02482 1.81985 3.15882 1.33393C3.2953 1.27499 3.44477 1.25256 3.59254 1.26882C3.74032 1.28508 3.88133 1.33948 4.00173 1.42668ZM12.1871 2.17918C12.2962 2.28855 12.3576 2.43677 12.3576 2.59131C12.3576 2.74584 12.2962 2.89406 12.1871 3.00343L9.81523 5.37526C9.74752 5.44299 9.66713 5.49672 9.57865 5.53338C9.49017 5.57003 9.39534 5.5889 9.29957 5.5889C9.2038 5.5889 9.10896 5.57003 9.02048 5.53338C8.932 5.49672 8.85161 5.44299 8.7839 5.37526L7.64932 4.24126C7.53994 4.13181 7.47852 3.98338 7.47857 3.82864C7.47863 3.6739 7.54015 3.52552 7.64961 3.41614C7.75907 3.30676 7.90749 3.24534 8.06223 3.2454C8.21697 3.24545 8.36535 3.30697 8.47473 3.41643L9.29957 4.24126L11.3617 2.1786C11.4158 2.12436 11.4802 2.08134 11.551 2.05198C11.6218 2.02262 11.6977 2.00751 11.7744 2.00751C11.851 2.00751 11.9269 2.02262 11.9977 2.05198C12.0686 2.08134 12.1329 2.12494 12.1871 2.17918Z" fill="black"/>
<path d="M9.43658 10.7657C9.61158 10.8497 9.82917 11.0673 9.93475 11.2429C9.96975 11.4879 10.1447 10.5412 11.0011 9.97999M12.5417 10.5003C12.5417 11.1192 12.2958 11.7127 11.8582 12.1502C11.4207 12.5878 10.8272 12.8337 10.2083 12.8337C9.58949 12.8337 8.996 12.5878 8.55842 12.1502C8.12083 11.7127 7.875 11.1192 7.875 10.5003C7.875 9.88149 8.12083 9.28799 8.55842 8.85041C8.996 8.41282 9.58949 8.16699 10.2083 8.16699C10.8272 8.16699 11.4207 8.41282 11.8582 8.85041C12.2958 9.28799 12.5417 9.88149 12.5417 10.5003Z" stroke="black" stroke-width="0.875" stroke-linecap="round" stroke-linejoin="round"/>
<path d="M6.42057 8.16634C7.06491 8.16634 7.58724 7.64401 7.58724 6.99967C7.58724 6.35534 7.06491 5.83301 6.42057 5.83301C5.77624 5.83301 5.25391 6.35534 5.25391 6.99967C5.25391 7.64401 5.77624 8.16634 6.42057 8.16634Z" stroke="black" stroke-width="0.875" stroke-linecap="round" stroke-linejoin="round"/>
<path d="M4.37816 10.5001C4.93233 9.97512 5.399 9.68346 6.43441 9.62512M11.3782 6.70846C11.3782 6.24179 11.3927 4.81262 11.3198 4.22929C11.2761 3.74804 11.1448 3.09179 10.5469 2.71262C10.1823 2.52304 9.83233 2.34804 8.15525 2.33346M4.64066 2.33346C3.3865 2.33346 2.40941 2.43554 1.92816 3.03346C1.51983 3.59171 1.54375 4.22929 1.50525 4.43346C1.41775 5.52721 1.47608 9.34804 1.47608 9.98971C1.47608 10.6605 1.43233 12.0238 2.35108 12.4835C3.13858 12.8772 3.95525 12.8189 6.72608 12.8335M6.33233 1.16679C5.98233 1.16679 5.69066 1.16679 5.399 1.47304C5.15108 1.70637 5.189 1.91229 5.09275 2.27512C4.95625 2.78554 4.88858 3.05504 5.07816 3.26679C5.252 3.49429 5.54425 3.49546 5.80266 3.49604H5.80733C6.05525 3.51354 6.88825 3.50537 7.13441 3.49604C7.39808 3.48554 7.611 3.47096 7.79066 3.23762C7.95108 3.02937 7.85599 2.68229 7.76149 2.31887C7.66816 1.96071 7.70316 1.77929 7.45525 1.47304C7.10525 1.12304 6.68233 1.16679 6.33233 1.16679Z" stroke="black" stroke-width="0.875" stroke-linecap="round" stroke-linejoin="round"/>
</g>
</svg>
