<svg width="36" height="37" viewBox="0 0 36 37" fill="none" xmlns="http://www.w3.org/2000/svg">
<path d="M12.5357 3.07129C11.598 3.07129 10.6987 3.4438 10.0356 4.10688C9.37251 4.76995 9 5.66927 9 6.607V30.3927C9 31.3304 9.37251 32.2298 10.0356 32.8928C10.6987 33.5559 11.598 33.9284 12.5357 33.9284H23.4643C24.402 33.9284 25.3013 33.5559 25.9644 32.8928C26.6275 32.2298 27 31.3304 27 30.3927V6.607C27 5.66927 26.6275 4.76995 25.9644 4.10688C25.3013 3.4438 24.402 3.07129 23.4643 3.07129H12.5357ZM10.9286 6.607C10.9286 5.71986 11.6486 4.99986 12.5357 4.99986H23.4643C24.3514 4.99986 25.0714 5.71986 25.0714 6.607V30.3927C25.0714 31.2799 24.3514 31.9999 23.4643 31.9999H12.5357C11.6486 31.9999 10.9286 31.2799 10.9286 30.3927V6.607ZM15.75 27.4999C15.4943 27.4999 15.249 27.6015 15.0681 27.7823C14.8873 27.9631 14.7857 28.2084 14.7857 28.4641C14.7857 28.7199 14.8873 28.9652 15.0681 29.146C15.249 29.3268 15.4943 29.4284 15.75 29.4284H20.25C20.5057 29.4284 20.751 29.3268 20.9319 29.146C21.1127 28.9652 21.2143 28.7199 21.2143 28.4641C21.2143 28.2084 21.1127 27.9631 20.9319 27.7823C20.751 27.6015 20.5057 27.4999 20.25 27.4999H15.75Z" fill="black"/>
</svg>
