<svg width="20" height="21" viewBox="0 0 20 21" fill="none" xmlns="http://www.w3.org/2000/svg">
<path d="M12.5016 9.66621V9.67455M4.31248 7.48121C3.94698 7.2003 3.66627 6.8238 3.50137 6.39332C3.33646 5.96284 3.2938 5.49516 3.37808 5.04194C3.46236 4.58873 3.67031 4.16765 3.97894 3.82524C4.28757 3.48282 4.68487 3.23241 5.12693 3.10167C5.56898 2.97093 6.03857 2.96497 6.48381 3.08443C6.92904 3.20389 7.33257 3.44413 7.64981 3.77859C7.96704 4.11306 8.18562 4.52872 8.28139 4.97964C8.37716 5.43056 8.34639 5.89919 8.19248 6.33371" stroke="black" stroke-width="1.66667" stroke-linecap="round" stroke-linejoin="round"/>
<path d="M13.335 3.83301V7.00217C14.3663 7.599 15.1515 8.54342 15.55 9.66634H16.6675C16.8885 9.66634 17.1004 9.75414 17.2567 9.91042C17.413 10.0667 17.5008 10.2787 17.5008 10.4997V12.1663C17.5008 12.3874 17.413 12.5993 17.2567 12.7556C17.1004 12.9119 16.8885 12.9997 16.6675 12.9997H15.5491C15.2691 13.7913 14.7933 14.4997 14.1675 15.0605V16.7497C14.1675 17.0812 14.0358 17.3991 13.8014 17.6336C13.5669 17.868 13.249 17.9997 12.9175 17.9997C12.586 17.9997 12.268 17.868 12.0336 17.6336C11.7992 17.3991 11.6675 17.0812 11.6675 16.7497V16.2638C11.3921 16.3101 11.1134 16.3333 10.8341 16.333H7.50081C7.22158 16.3333 6.94283 16.3101 6.66747 16.2638V16.7497C6.66747 17.0812 6.53578 17.3991 6.30136 17.6336C6.06694 17.868 5.74899 17.9997 5.41747 17.9997C5.08595 17.9997 4.76801 17.868 4.53359 17.6336C4.29917 17.3991 4.16747 17.0812 4.16747 16.7497V15.0605C3.41244 14.3855 2.8802 13.4971 2.64121 12.5129C2.40221 11.5287 2.46773 10.4952 2.82909 9.54903C3.19045 8.6029 3.83061 7.78882 4.66484 7.21453C5.49906 6.64025 6.48802 6.33284 7.50081 6.33301H9.58414L13.335 3.83301Z" stroke="black" stroke-width="1.66667" stroke-linecap="round" stroke-linejoin="round"/>
</svg>
