<svg width="31" height="24" viewBox="0 0 31 24" fill="none" xmlns="http://www.w3.org/2000/svg">
<path d="M7.83301 6.2C7.83301 5.08 7.83301 4.52 8.10551 4.092C8.34519 3.71569 8.72762 3.40974 9.19801 3.218C9.73301 3 10.433 3 11.833 3H18.833C20.233 3 20.933 3 21.468 3.218C21.9384 3.40974 22.3208 3.71569 22.5605 4.092C22.833 4.52 22.833 5.08 22.833 6.2V19.505C22.833 19.991 22.833 20.234 22.7068 20.367C22.6522 20.4248 22.5826 20.4725 22.5027 20.5067C22.4229 20.5409 22.3347 20.5608 22.2443 20.565C22.0355 20.575 21.783 20.44 21.278 20.171L15.333 17L9.38801 20.17C8.88301 20.44 8.63051 20.575 8.42051 20.565C8.3303 20.5606 8.24235 20.5407 8.16272 20.5065C8.08309 20.4723 8.01368 20.4247 7.95926 20.367C7.83301 20.234 7.83301 19.991 7.83301 19.505V6.2Z" fill="url(#paint0_linear_2119_12824)"/>
<defs>
<linearGradient id="paint0_linear_2119_12824" x1="15.333" y1="3" x2="15.333" y2="20.5655" gradientUnits="userSpaceOnUse">
<stop stop-color="#543BA7"/>
<stop offset="1" stop-color="#7F78E9"/>
</linearGradient>
</defs>
</svg>
