<svg width="16" height="16" viewBox="0 0 16 16" fill="none" xmlns="http://www.w3.org/2000/svg">
<path d="M12.1968 4.74398C12.4564 4.48441 12.4564 4.06356 12.1968 3.80398C11.9373 3.54441 11.5164 3.54441 11.2568 3.80398L8.14158 6.91923C8.06348 6.99734 7.93685 6.99733 7.85874 6.91923L4.7435 3.80398C4.48392 3.54441 4.06307 3.54441 3.8035 3.80398C3.54392 4.06356 3.54392 4.48441 3.8035 4.74398L6.84803 7.78852C6.96519 7.90568 6.96519 8.09563 6.84803 8.21278L3.8035 11.2573C3.54392 11.5169 3.54392 11.9377 3.8035 12.1973C4.06307 12.4569 4.48392 12.4569 4.7435 12.1973L7.85874 9.08207C7.93685 9.00397 8.06348 9.00397 8.14158 9.08207L11.2568 12.1973C11.5164 12.4569 11.9373 12.4569 12.1968 12.1973C12.4564 11.9377 12.4564 11.5169 12.1968 11.2573L9.08158 8.14207C9.00348 8.06397 9.00348 7.93733 9.08158 7.85923L12.1968 4.74398Z" fill="url(#paint0_linear_2168_9413)"/>
<defs>
<linearGradient id="paint0_linear_2168_9413" x1="8.00016" y1="3.33398" x2="8.00016" y2="12.6673" gradientUnits="userSpaceOnUse">
<stop stop-color="#32216C"/>
<stop offset="1" stop-color="#6D4ED2"/>
</linearGradient>
</defs>
</svg>
