<svg width="24" height="25" viewBox="0 0 24 25" fill="none" xmlns="http://www.w3.org/2000/svg">
<g opacity="0.7">
<path d="M12 2.5C17.523 2.5 22 6.977 22 12.5C22 18.023 17.523 22.5 12 22.5C6.477 22.5 2 18.023 2 12.5C2 6.977 6.477 2.5 12 2.5ZM12 4.5C9.87827 4.5 7.84344 5.34285 6.34315 6.84315C4.84285 8.34344 4 10.3783 4 12.5C4 14.6217 4.84285 16.6566 6.34315 18.1569C7.84344 19.6571 9.87827 20.5 12 20.5C14.1217 20.5 16.1566 19.6571 17.6569 18.1569C19.1571 16.6566 20 14.6217 20 12.5C20 10.3783 19.1571 8.34344 17.6569 6.84315C16.1566 5.34285 14.1217 4.5 12 4.5ZM12 16.5C12.2652 16.5 12.5196 16.6054 12.7071 16.7929C12.8946 16.9804 13 17.2348 13 17.5C13 17.7652 12.8946 18.0196 12.7071 18.2071C12.5196 18.3946 12.2652 18.5 12 18.5C11.7348 18.5 11.4804 18.3946 11.2929 18.2071C11.1054 18.0196 11 17.7652 11 17.5C11 17.2348 11.1054 16.9804 11.2929 16.7929C11.4804 16.6054 11.7348 16.5 12 16.5ZM12 7C12.8423 7.00003 13.6583 7.29335 14.3078 7.8296C14.9573 8.36585 15.3998 9.11154 15.5593 9.93858C15.7188 10.7656 15.5853 11.6224 15.1818 12.3617C14.7783 13.101 14.1299 13.6768 13.348 13.99C13.2322 14.0326 13.1278 14.1014 13.043 14.191C12.999 14.241 12.992 14.305 12.993 14.371L13 14.5C12.9997 14.7549 12.9021 15 12.7272 15.1854C12.5522 15.3707 12.313 15.4822 12.0586 15.4972C11.8042 15.5121 11.5536 15.4293 11.3582 15.2657C11.1627 15.1021 11.0371 14.8701 11.007 14.617L11 14.5V14.25C11 13.097 11.93 12.405 12.604 12.134C12.8783 12.0245 13.1176 11.8423 13.2962 11.607C13.4748 11.3717 13.5859 11.0922 13.6176 10.7986C13.6493 10.5049 13.6004 10.2081 13.4762 9.94014C13.352 9.67215 13.1571 9.44307 12.9125 9.27748C12.6679 9.11189 12.3829 9.01606 12.0879 9.00027C11.793 8.98448 11.4993 9.04934 11.2384 9.18787C10.9775 9.3264 10.7593 9.53338 10.6072 9.78658C10.4551 10.0398 10.3748 10.3296 10.375 10.625C10.375 10.8902 10.2696 11.1446 10.0821 11.3321C9.89457 11.5196 9.64022 11.625 9.375 11.625C9.10978 11.625 8.85543 11.5196 8.66789 11.3321C8.48036 11.1446 8.375 10.8902 8.375 10.625C8.375 9.66359 8.75692 8.74156 9.43674 8.06174C10.1166 7.38192 11.0386 7 12 7Z" fill="black"/>
</g>
</svg>
