<svg width="48" height="48" viewBox="0 0 48 48" fill="none" xmlns="http://www.w3.org/2000/svg">
<path d="M13.5335 39.404L15.9822 28.8183C16.17 28.0063 15.8936 27.1571 15.2639 26.6112L7.05005 19.4899L17.908 18.5474C18.7386 18.4753 19.4613 17.9498 19.7859 17.1818L24 7.21089L28.2141 17.1818C28.5387 17.9498 29.2614 18.4753 30.092 18.5474L40.95 19.4899L32.7361 26.6112C32.1064 27.1571 31.83 28.0063 32.0178 28.8183L33.2357 28.5366L32.0178 28.8183L34.4665 39.404L25.1622 33.7913C24.4474 33.3601 23.5526 33.3601 22.8378 33.7913L13.5335 39.404ZM41.3962 19.1031L41.3958 19.1034L41.3962 19.1031ZM6.46166 19.541L6.46219 19.541C6.46201 19.541 6.46184 19.541 6.46166 19.541L6.44004 19.2919L6.46166 19.541Z" stroke="black" stroke-width="2.5"/>
</svg>
