<svg width="48" height="48" viewBox="0 0 48 48" fill="none" xmlns="http://www.w3.org/2000/svg">
<path d="M13.6733 40.7794C12.9168 41.2358 11.9834 40.5586 12.1825 39.6978L14.7643 28.5366C14.8478 28.1757 14.725 27.7983 14.4451 27.5556L5.78498 20.0475C5.11745 19.4688 5.4734 18.3721 6.35356 18.2957L17.7999 17.3021C18.1691 17.27 18.4902 17.0365 18.6345 16.6951L23.0789 6.17942C23.423 5.36515 24.577 5.36515 24.9211 6.17941L29.3655 16.6951C29.5098 17.0365 29.8309 17.27 30.2001 17.3021L41.6464 18.2957C42.5266 18.3721 42.8826 19.4688 42.215 20.0475L33.5549 27.5556C33.275 27.7983 33.1522 28.1757 33.2357 28.5366L35.8175 39.6978C36.0166 40.5586 35.0832 41.2358 34.3267 40.7794L24.5165 34.8616C24.1988 34.6699 23.8012 34.6699 23.4835 34.8616L13.6733 40.7794Z" fill="black"/>
</svg>
