<svg width="22" height="22" viewBox="0 0 22 22" fill="none" xmlns="http://www.w3.org/2000/svg">
<g opacity="0.6">
<path d="M19.8992 18.5975L16.4983 15.2242C17.8184 13.5782 18.4577 11.489 18.2847 9.38618C18.1118 7.28335 17.1397 5.32671 15.5684 3.91858C13.9971 2.51046 11.946 1.75788 9.83684 1.81559C7.72769 1.8733 5.72082 2.73692 4.22887 4.22887C2.73692 5.72082 1.8733 7.72769 1.81559 9.83684C1.75788 11.946 2.51046 13.9971 3.91858 15.5684C5.32671 17.1397 7.28335 18.1118 9.38618 18.2847C11.489 18.4577 13.5782 17.8184 15.2242 16.4983L18.5975 19.8717C18.6827 19.9576 18.7841 20.0258 18.8958 20.0723C19.0075 20.1188 19.1273 20.1428 19.2483 20.1428C19.3693 20.1428 19.4891 20.1188 19.6009 20.0723C19.7126 20.0258 19.8139 19.9576 19.8992 19.8717C20.0644 19.7007 20.1567 19.4723 20.1567 19.2346C20.1567 18.9969 20.0644 18.7684 19.8992 18.5975ZM10.0817 16.4983C8.81256 16.4983 7.57196 16.122 6.51675 15.4169C5.46153 14.7119 4.63909 13.7097 4.15343 12.5372C3.66777 11.3647 3.5407 10.0745 3.78829 8.82983C4.03587 7.58512 4.647 6.44178 5.54439 5.54439C6.44178 4.647 7.58512 4.03588 8.82983 3.78829C10.0745 3.5407 11.3647 3.66777 12.5372 4.15343C13.7097 4.63909 14.7119 5.46153 15.4169 6.51675C16.122 7.57197 16.4983 8.81256 16.4983 10.0817C16.4983 11.7835 15.8223 13.4156 14.6189 14.6189C13.4156 15.8223 11.7835 16.4983 10.0817 16.4983Z" fill="black"/>
</g>
</svg>
