<svg width="20" height="20" viewBox="0 0 20 20" fill="none" xmlns="http://www.w3.org/2000/svg">
<path d="M10.5 18C8.61771 17.5625 7.06367 16.5655 5.83788 15.009C4.61208 13.4525 3.99946 11.7245 4 9.825L4 5.25L10.5 3L17 5.25V9.825C17 11.725 16.3874 13.4533 15.1621 15.0098C13.9369 16.5662 12.3828 17.563 10.5 18ZM10.5 16.425C11.8135 16.05 12.9104 15.3092 13.7906 14.2028C14.6708 13.0963 15.1854 11.862 15.3344 10.5L10.5 10.5V4.59375L5.625 6.28125L5.625 10.1625C5.625 10.25 5.63854 10.3625 5.66563 10.5H10.5L10.5 16.425Z" fill="black"/>
</svg>
