<svg width="90" height="74" viewBox="0 0 90 74" fill="none" xmlns="http://www.w3.org/2000/svg">
<path fill-rule="evenodd" clip-rule="evenodd" d="M23.6777 31.8819C27.7364 27.8231 33.2413 25.543 38.9812 25.543C44.7211 25.543 50.2259 27.8231 54.2846 31.8819C56.2943 33.8916 57.8885 36.2774 58.9761 38.9032C60.0637 41.5289 60.6235 44.3432 60.6235 47.1853C60.6235 50.0274 60.0637 52.8417 58.9761 55.4675C57.8885 58.0933 56.2943 60.4791 54.2846 62.4888C52.275 64.4985 49.8891 66.0926 47.2633 67.1803C44.6376 68.2679 41.8233 68.8277 38.9812 68.8277C36.1391 68.8277 33.3248 68.2679 30.699 67.1803C29.0416 66.4937 27.4798 65.6054 26.0478 64.5381L18.043 72.543C16.8226 73.7633 14.8439 73.7633 13.6235 72.543C12.4032 71.3226 12.4032 69.3439 13.6235 68.1235L21.6283 60.1188C18.8597 56.4042 17.3388 51.8732 17.3388 47.1853C17.3388 41.4454 19.619 35.9406 23.6777 31.8819ZM38.9812 31.793C34.8989 31.793 30.9838 33.4147 28.0971 36.3013C25.2105 39.1879 23.5888 43.103 23.5888 47.1853C23.5888 51.2676 25.2105 55.1827 28.0971 58.0694C29.5264 59.4987 31.2233 60.6325 33.0908 61.406C34.9583 62.1796 36.9598 62.5777 38.9812 62.5777C41.0025 62.5777 43.0041 62.1796 44.8716 61.406C46.7391 60.6325 48.4359 59.4987 49.8652 58.0694C51.2945 56.6401 52.4283 54.9432 53.2019 53.0757C53.9754 51.2082 54.3735 49.2067 54.3735 47.1853C54.3735 45.164 53.9754 43.1624 53.2019 41.2949C52.4283 39.4274 51.2945 37.7306 49.8652 36.3013C46.9786 33.4147 43.0635 31.793 38.9812 31.793Z" fill="black"/>
<path fill-rule="evenodd" clip-rule="evenodd" d="M34.5833 6.79297C19.0359 6.79297 6.45829 19.3296 6.45829 34.7596L6.45828 34.7643C6.4509 39.6641 7.74293 44.4782 10.2027 48.7159C11.0691 50.2085 10.5614 52.1209 9.06872 52.9873C7.57607 53.8537 5.66366 53.3461 4.79725 51.8534C1.78271 46.6599 0.199242 40.7599 0.208291 34.7549L3.33329 34.7596H0.208287C0.208287 34.7581 0.208291 34.7565 0.208291 34.7549C0.210848 15.8454 15.6156 0.542969 34.5833 0.542969L55.4166 0.542969C74.3859 0.542969 89.7916 15.848 89.7916 34.7596C89.7916 49.6765 80.2118 62.3427 66.8696 67.0328C65.2414 67.6052 63.4575 66.7492 62.8851 65.121C62.3128 63.4928 63.1687 61.7089 64.7969 61.1365C75.7298 57.2933 83.5416 46.9261 83.5416 34.7596C83.5416 19.3296 70.964 6.79297 55.4166 6.79297L34.5833 6.79297Z" fill="black"/>
</svg>
