<svg width="20" height="20" viewBox="0 0 20 20" fill="none" xmlns="http://www.w3.org/2000/svg">
<path d="M3 4.25641C3 3.65797 3.243 3.08405 3.67554 2.66089C4.10809 2.23773 4.69474 2 5.30645 2L13.6935 2C14.3053 2 14.8919 2.23773 15.3245 2.66089C15.757 3.08405 16 3.65797 16 4.25641L16 8.76923C16 8.93244 15.9337 9.08897 15.8158 9.20437C15.6978 9.31978 15.5378 9.38462 15.371 9.38462C15.2041 9.38462 15.0441 9.31978 14.9262 9.20437C14.8082 9.08897 14.7419 8.93244 14.7419 8.76923L14.7419 4.25641C14.7419 3.69026 14.2723 3.23077 13.6935 3.23077L5.30645 3.23077C4.72774 3.23077 4.25806 3.69026 4.25806 4.25641L4.25806 15.7436C4.25806 16.3097 4.72774 16.7692 5.30645 16.7692H11.5968C11.7636 16.7692 11.9236 16.8341 12.0416 16.9495C12.1595 17.0649 12.2258 17.2214 12.2258 17.3846C12.2258 17.5478 12.1595 17.7044 12.0416 17.8198C11.9236 17.9352 11.7636 18 11.5968 18H5.30645C4.69474 18 4.10809 17.7623 3.67554 17.3391C3.243 16.916 3 16.342 3 15.7436L3 4.25641Z" fill="black"/>
<path d="M14.7627 10.8955C14.9245 10.8955 15.0797 10.9616 15.1942 11.0791C15.3086 11.1967 15.3729 11.3561 15.3729 11.5224V11.8718C16.2084 11.9035 17 12.5362 17 13.4724C17 13.6386 16.9357 13.7981 16.8213 13.9156C16.7069 14.0332 16.5517 14.0992 16.3898 14.0992C16.228 14.0992 16.0728 14.0332 15.9584 13.9156C15.8439 13.7981 15.7797 13.6386 15.7797 13.4724C15.7797 13.3537 15.6479 13.1247 15.307 13.1247H14.0818C13.9845 13.122 13.8896 13.1552 13.8141 13.2183C13.7588 13.2684 13.7458 13.3161 13.7458 13.347C13.7445 13.389 13.7495 13.431 13.7604 13.4715C13.7712 13.4797 13.7826 13.487 13.7946 13.4933C13.8271 13.51 13.8759 13.53 13.9516 13.5534L15.9188 14.1393C16.1433 14.2079 16.4313 14.3216 16.6575 14.5681C16.9016 14.8356 17 15.1783 17 15.5485C17 16.4404 16.2222 17.0246 15.4437 17.0246H15.3729V17.3731C15.3729 17.5394 15.3086 17.6988 15.1942 17.8164C15.0797 17.934 14.9245 18 14.7627 18C14.6009 18 14.4457 17.934 14.3313 17.8164C14.2168 17.6988 14.1525 17.5394 14.1525 17.3731V17.0238C13.317 16.992 12.5254 16.3593 12.5254 15.4232C12.5254 15.2569 12.5897 15.0975 12.7041 14.9799C12.8186 14.8623 12.9738 14.7963 13.1356 14.7963C13.2974 14.7963 13.4526 14.8623 13.567 14.9799C13.6815 15.0975 13.7458 15.2569 13.7458 15.4232C13.7458 15.5419 13.8776 15.7709 14.2184 15.7709H15.4437C15.5409 15.7735 15.6359 15.7403 15.7113 15.6773C15.7666 15.6271 15.7797 15.5795 15.7797 15.5485C15.7809 15.5065 15.776 15.4645 15.765 15.424C15.7542 15.4158 15.7428 15.4085 15.7308 15.4023C15.6983 15.3856 15.6495 15.3655 15.5738 15.3421L13.6066 14.7562C13.3821 14.6876 13.0941 14.574 12.8679 14.3274C12.6239 14.0599 12.5254 13.7173 12.5254 13.347C12.5254 12.4552 13.3032 11.8709 14.0818 11.8709H14.1525V11.5224C14.1525 11.3561 14.2168 11.1967 14.3313 11.0791C14.4457 10.9616 14.6009 10.8955 14.7627 10.8955ZM5.20339 9.01493C5.20339 8.84867 5.26768 8.68922 5.3821 8.57166C5.49653 8.4541 5.65173 8.38806 5.81356 8.38806H6.22034C6.38217 8.38806 6.53736 8.4541 6.65179 8.57166C6.76622 8.68922 6.83051 8.84867 6.83051 9.01493C6.83051 9.18118 6.76622 9.34063 6.65179 9.45819C6.53736 9.57575 6.38217 9.64179 6.22034 9.64179H5.81356C5.65173 9.64179 5.49653 9.57575 5.3821 9.45819C5.26768 9.34063 5.20339 9.18118 5.20339 9.01493ZM7.64407 9.01493C7.64407 8.84867 7.70835 8.68922 7.82278 8.57166C7.93721 8.4541 8.09241 8.38806 8.25424 8.38806H12.322C12.4839 8.38806 12.6391 8.4541 12.7535 8.57166C12.8679 8.68922 12.9322 8.84867 12.9322 9.01493C12.9322 9.18118 12.8679 9.34063 12.7535 9.45819C12.6391 9.57575 12.4839 9.64179 12.322 9.64179H8.25424C8.09241 9.64179 7.93721 9.57575 7.82278 9.45819C7.70835 9.34063 7.64407 9.18118 7.64407 9.01493ZM5.20339 11.5224C5.20339 11.3561 5.26768 11.1967 5.3821 11.0791C5.49653 10.9616 5.65173 10.8955 5.81356 10.8955H6.22034C6.38217 10.8955 6.53736 10.9616 6.65179 11.0791C6.76622 11.1967 6.83051 11.3561 6.83051 11.5224C6.83051 11.6886 6.76622 11.8481 6.65179 11.9656C6.53736 12.0832 6.38217 12.1493 6.22034 12.1493H5.81356C5.65173 12.1493 5.49653 12.0832 5.3821 11.9656C5.26768 11.8481 5.20339 11.6886 5.20339 11.5224ZM7.64407 11.5224C7.64407 11.3561 7.70835 11.1967 7.82278 11.0791C7.93721 10.9616 8.09241 10.8955 8.25424 10.8955H11.1017C11.2635 10.8955 11.4187 10.9616 11.5331 11.0791C11.6476 11.1967 11.7119 11.3561 11.7119 11.5224C11.7119 11.6886 11.6476 11.8481 11.5331 11.9656C11.4187 12.0832 11.2635 12.1493 11.1017 12.1493L8.25424 12.1493C8.09241 12.1493 7.93721 12.0832 7.82278 11.9656C7.70835 11.8481 7.64407 11.6886 7.64407 11.5224ZM5.20339 14.0299C5.20339 13.8636 5.26768 13.7041 5.3821 13.5866C5.49653 13.469 5.65173 13.403 5.81356 13.403H6.22034C6.38217 13.403 6.53736 13.469 6.65179 13.5866C6.76622 13.7041 6.83051 13.8636 6.83051 14.0299C6.83051 14.1961 6.76622 14.3556 6.65179 14.4731C6.53736 14.5907 6.38217 14.6567 6.22034 14.6567H5.81356C5.65173 14.6567 5.49653 14.5907 5.3821 14.4731C5.26768 14.3556 5.20339 14.1961 5.20339 14.0299ZM7.64407 14.0299C7.64407 13.8636 7.70835 13.7041 7.82278 13.5866C7.93721 13.469 8.09241 13.403 8.25424 13.403H9.88136C10.0432 13.403 10.1984 13.469 10.3128 13.5866C10.4272 13.7041 10.4915 13.8636 10.4915 14.0299C10.4915 14.1961 10.4272 14.3556 10.3128 14.4731C10.1984 14.5907 10.0432 14.6567 9.88136 14.6567H8.25424C8.09241 14.6567 7.93721 14.5907 7.82278 14.4731C7.70835 14.3556 7.64407 14.1961 7.64407 14.0299ZM5 5.25373C5 4.86424 5 4.66949 5.06183 4.5157C5.14458 4.31131 5.30287 4.14899 5.50197 4.06436C5.65166 4 5.84122 4 6.22034 4L11.9153 4C12.2944 4 12.4839 4 12.6336 4.06352C12.8326 4.14853 12.9906 4.31115 13.0729 4.5157C13.1356 4.66949 13.1356 4.86424 13.1356 5.25373C13.1356 5.64322 13.1356 5.83797 13.0738 5.99176C12.991 6.19615 12.8327 6.35847 12.6336 6.4431C12.4839 6.50746 12.2944 6.50746 11.9153 6.50746L6.22034 6.50746C5.84122 6.50746 5.65166 6.50746 5.50197 6.44394C5.30302 6.35893 5.14502 6.19631 5.06264 5.99176C5 5.83797 5 5.64322 5 5.25373Z" fill="black"/>
</svg>
