<svg width="14" height="14" viewBox="0 0 14 14" fill="none" xmlns="http://www.w3.org/2000/svg">
<g opacity="0.5" clip-path="url(#clip0_1258_4138)">
<path d="M7.00016 1.74967C6.31072 1.74967 5.62803 1.88547 4.99107 2.14931C4.35412 2.41314 3.77536 2.79986 3.28785 3.28736C2.80034 3.77487 2.41363 4.35363 2.1498 4.99059C1.88596 5.62755 1.75016 6.31023 1.75016 6.99967C1.75016 7.68911 1.88596 8.3718 2.1498 9.00876C2.41363 9.64572 2.80034 10.2245 3.28785 10.712C3.77536 11.1995 4.35412 11.5862 4.99107 11.85C5.62803 12.1139 6.31072 12.2497 7.00016 12.2497C8.39255 12.2497 9.72791 11.6966 10.7125 10.712C11.697 9.72742 12.2502 8.39206 12.2502 6.99967C12.2502 5.60729 11.697 4.27193 10.7125 3.28736C9.72791 2.3028 8.39255 1.74967 7.00016 1.74967ZM0.583496 6.99967C0.583496 3.45592 3.45641 0.583008 7.00016 0.583008C10.5439 0.583008 13.4168 3.45592 13.4168 6.99967C13.4168 10.5434 10.5439 13.4163 7.00016 13.4163C3.45641 13.4163 0.583496 10.5434 0.583496 6.99967ZM5.25016 4.66634V6.99967H4.0835V4.66634H5.25016ZM9.91683 4.66634V6.99967H8.75016V4.66634H9.91683ZM4.0835 7.58301H9.91683V8.16634C9.91683 8.93989 9.60954 9.68175 9.06256 10.2287C8.51558 10.7757 7.77371 11.083 7.00016 11.083C6.22661 11.083 5.48475 10.7757 4.93777 10.2287C4.39079 9.68175 4.0835 8.93989 4.0835 8.16634V7.58301ZM5.34933 8.74967C5.46985 9.09124 5.69334 9.387 5.98901 9.59621C6.28468 9.80542 6.63796 9.91777 7.00016 9.91777C7.36236 9.91777 7.71564 9.80542 8.01131 9.59621C8.30698 9.387 8.53048 9.09124 8.651 8.74967H5.34933Z" fill="black"/>
</g>
<defs>
<clipPath id="clip0_1258_4138">
<rect width="14" height="14" fill="white"/>
</clipPath>
</defs>
</svg>
