<svg width="11" height="12" viewBox="0 0 11 12" fill="none" xmlns="http://www.w3.org/2000/svg">
<path fill-rule="evenodd" clip-rule="evenodd" d="M6.02172 7.03125C6.02172 7.2211 5.87344 7.375 5.67842 7.375H5.15573C4.96613 7.375 4.81243 7.21555 4.81243 7.03125V6.6875C4.81243 6.23973 6.35938 5.35345 6.35938 4.625C6.35938 4.38575 6.20469 3.76562 5.5 3.76562C4.79806 3.76562 4.66675 4.44213 4.64406 4.625C4.64406 4.625 3.6223 4.64013 3.62299 4.625C3.6223 3.98269 4.12775 2.73438 5.5 2.73438C6.68319 2.73438 7.39062 3.6955 7.39062 4.625C7.39062 5.56894 6.02172 6.4189 6.02172 6.6875V7.03125ZM5.5 9.4375C5.1205 9.4375 4.8125 9.1295 4.8125 8.75C4.8125 8.3705 5.1205 8.0625 5.5 8.0625C5.8795 8.0625 6.1875 8.3705 6.1875 8.75C6.1875 9.1295 5.8795 9.4375 5.5 9.4375ZM0.6875 6C0.6875 8.65788 2.84212 10.8125 5.5 10.8125C8.15788 10.8125 10.3125 8.65788 10.3125 6C10.3125 3.34212 8.15788 1.1875 5.5 1.1875C2.84212 1.1875 0.6875 3.34212 0.6875 6Z" fill="black"/>
</svg>
