<svg width="92" height="68" viewBox="0 0 92 68" fill="none" xmlns="http://www.w3.org/2000/svg">
<g clip-path="url(#clip0_2207_36311)">
<path d="M89.8294 31.4424C90.4045 31.4424 90.9518 31.2003 91.36 30.7906C91.7774 30.3716 92 29.8129 92 29.2263C92 28.0065 91.0075 27.0195 89.7923 27.0195H80.7018C79.4866 27.0382 78.4941 28.0345 78.5034 29.2542C78.5034 30.0457 78.9301 30.7813 79.6072 31.1723C79.9412 31.3679 80.3215 31.461 80.7018 31.461H89.8202V31.4517L89.8294 31.4424Z" fill="#E5E5E5"/>
<path d="M76.5647 44.1991L84.2545 48.6406C84.7647 48.9385 85.3584 49.013 85.9335 48.864C86.4993 48.7057 86.9817 48.3426 87.2692 47.8305C87.5661 47.3184 87.6403 46.7224 87.4826 46.1545C87.3249 45.5865 86.9631 45.1023 86.4529 44.8136L78.7631 40.3722C78.4199 40.1766 78.0488 40.0742 77.6685 40.0742C77.4737 40.0742 77.2789 40.1022 77.0934 40.1487C76.5276 40.307 76.0452 40.6701 75.7576 41.1823C75.4608 41.6944 75.3866 42.2903 75.5443 42.8583C75.702 43.4263 76.0638 43.9105 76.5739 44.1991H76.5647Z" fill="#E5E5E5"/>
<path d="M75.7854 29.2466C75.7762 23.753 71.4999 19.0974 66.0456 18.6504H65.9343V18.5387L65.9157 6.8717C65.9157 4.32973 64.5892 2.08572 62.3723 0.865946C61.3241 0.288649 60.1924 0 59.0607 0C57.7992 0 56.5469 0.353827 55.4245 1.07079C53.8939 2.03916 52.3727 3.09133 50.8885 4.11557C44.5158 8.51048 37.2991 13.4827 27.8746 13.5013L15.7322 13.5199C11.5394 13.5199 7.58782 15.1773 4.6102 18.1755C1.63259 21.1738 0 25.1404 0 29.3583C0 33.567 1.65114 37.5336 4.63803 40.5225C5.63057 41.5188 6.7437 42.3755 7.94031 43.0645C9.65638 44.0515 11.5116 44.694 13.4688 44.9826L13.5709 45.0012V45.1037L13.5894 59.713C13.5894 62.674 15.1942 65.4301 17.7544 66.9013C18.9974 67.6182 20.4259 68 21.873 68H21.8822C24.0899 68 26.1678 67.1341 27.7262 65.5605C29.2845 63.9869 30.1472 61.9011 30.1472 59.6851L30.1287 45.2247H30.2585C38.5792 45.951 45.1652 50.4669 50.9627 54.4521L51.2224 54.6291C52.6973 55.6347 54.0887 56.5937 55.4987 57.4783C57.6415 58.8191 60.2388 58.8936 62.4465 57.6552C64.6542 56.4261 65.9714 54.1728 65.9714 51.6401L65.9528 39.8987L66.0641 39.8614C71.5185 39.4052 75.7854 34.7402 75.7762 29.2466H75.7854ZM15.7786 40.7274H15.76C12.7546 40.7274 9.91611 39.5448 7.76407 37.3939L7.68058 37.3101C5.58419 35.1686 4.42468 32.3473 4.41541 29.349C4.41541 26.3229 5.59347 23.4643 7.73624 21.3041C9.87901 19.1439 12.7268 17.9521 15.7415 17.9428L25.6761 17.9241V18.0359L25.704 40.7088L15.7693 40.7274H15.7786ZM21.8822 63.5772C19.758 63.5772 18.0234 61.836 18.0141 59.7037L17.9956 45.1502H25.7318V45.2526L25.7504 59.6944C25.7504 61.8266 24.025 63.5772 21.8915 63.5772H21.8822ZM53.4209 50.7742C47.0575 46.4165 39.85 41.4723 30.2307 40.7926L29.9802 40.7739L30.1287 40.625L30.1008 17.8403H30.2121C39.8407 17.1234 47.0296 12.1605 53.3745 7.7842L53.56 7.66315V7.88662L53.6249 50.9046L53.4394 50.7835L53.4209 50.7742ZM60.3501 53.7724L60.3222 53.791C59.9326 54.0052 59.5338 54.1169 59.1349 54.1169C58.7824 54.1169 58.4207 54.0331 58.0774 53.8562L58.0125 53.8283V53.7538L57.9476 4.71149L58.0125 4.68356C58.7453 4.31111 59.5245 4.32973 60.2573 4.73942L60.3037 4.76736C61.0922 5.22361 61.5189 5.95919 61.5189 6.88101L61.5838 51.6495C61.5838 52.5806 61.1664 53.3162 60.3593 53.7724H60.3501ZM65.9621 35.4293V35.2989L65.9435 23.0919L66.0734 23.1105C69.0696 23.5481 71.3329 26.146 71.37 29.1721V29.2559C71.37 32.3193 69.1067 34.9637 66.092 35.4107L65.9621 35.4293Z" fill="#E5E5E5"/>
<path d="M75.7205 17.3299C75.9153 17.6651 76.1935 17.9444 76.5275 18.14C77.2046 18.531 78.0488 18.531 78.7352 18.14L86.4158 13.6799C87.464 13.0653 87.8257 11.7152 87.2228 10.6537C86.6106 9.60155 85.2655 9.23841 84.2081 9.84364L76.6852 14.2106L76.5275 14.3037C75.4793 14.9183 75.1175 16.2684 75.7205 17.3299Z" fill="#E5E5E5"/>
</g>
<defs>
<clipPath id="clip0_2207_36311">
<rect width="92" height="68" fill="white"/>
</clipPath>
</defs>
</svg>
