<svg width="36" height="37" viewBox="0 0 36 37" fill="none" xmlns="http://www.w3.org/2000/svg">
<path fill-rule="evenodd" clip-rule="evenodd" d="M30.1625 11.446L19.1147 20.595C18.8008 20.8551 18.4059 20.9975 17.9983 20.9975C17.5906 20.9975 17.1957 20.8551 16.8818 20.595L5.83925 11.446C5.78 11.6244 5.74986 11.8111 5.75 11.999V25.999C5.75 26.4632 5.93437 26.9083 6.26256 27.2365C6.59075 27.5646 7.03587 27.749 7.5 27.749H28.5C28.9641 27.749 29.4092 27.5646 29.7374 27.2365C30.0656 26.9083 30.25 26.4632 30.25 25.999V11.999C30.2507 11.8112 30.2212 11.6245 30.1625 11.446ZM7.5 8.49902H28.5C29.4283 8.49902 30.3185 8.86777 30.9749 9.52415C31.6313 10.1805 32 11.0708 32 11.999V25.999C32 26.9273 31.6313 27.8175 30.9749 28.4739C30.3185 29.1303 29.4283 29.499 28.5 29.499H7.5C6.57174 29.499 5.6815 29.1303 5.02513 28.4739C4.36875 27.8175 4 26.9273 4 25.999V11.999C4 11.0708 4.36875 10.1805 5.02513 9.52415C5.6815 8.86777 6.57174 8.49902 7.5 8.49902ZM7.1325 10.249L16.8905 18.3043C17.203 18.5624 17.5955 18.704 18.0008 18.705C18.4062 18.706 18.7993 18.5662 19.113 18.3095L28.969 10.249H7.1325Z" fill="black"/>
</svg>
