<svg width="20" height="20" viewBox="0 0 20 20" fill="none" xmlns="http://www.w3.org/2000/svg">
<path d="M7.58877 4.54033C8.0871 3.08199 10.1021 3.03783 10.6929 4.40783L10.7429 4.54116L11.4154 6.50782C11.5696 6.95885 11.8186 7.37158 12.1458 7.71818C12.473 8.06477 12.8707 8.33717 13.3121 8.51699L13.4929 8.58449L15.4596 9.25616C16.9179 9.75449 16.9621 11.7695 15.5929 12.3603L15.4596 12.4103L13.4929 13.0828C13.0417 13.2368 12.6289 13.4858 12.2821 13.813C11.9354 14.1402 11.6628 14.538 11.4829 14.9795L11.4154 15.1595L10.7438 17.127C10.2454 18.5853 8.23043 18.6295 7.64043 17.2603L7.58877 17.127L6.9171 15.1603C6.76308 14.7091 6.51408 14.2962 6.18688 13.9495C5.85969 13.6028 5.46193 13.3302 5.02043 13.1503L4.84043 13.0828L2.87377 12.4112C1.4146 11.9128 1.37043 9.89782 2.74043 9.30782L2.87377 9.25616L4.84043 8.58449C5.29146 8.43037 5.70419 8.18132 6.05079 7.85413C6.39738 7.52695 6.66978 7.12923 6.8496 6.68782L6.9171 6.50782L7.58877 4.54033ZM9.16627 5.07866L8.4946 7.04533C8.25992 7.73308 7.87816 8.36141 7.37588 8.88657C6.8736 9.41173 6.26289 9.8211 5.58627 10.0862L5.37793 10.162L3.41127 10.8337L5.37793 11.5053C6.06568 11.74 6.69402 12.1218 7.21918 12.624C7.74434 13.1263 8.1537 13.737 8.41877 14.4137L8.4946 14.622L9.16627 16.5887L9.83793 14.622C10.0726 13.9342 10.4544 13.3059 10.9567 12.7807C11.4589 12.2556 12.0696 11.8462 12.7463 11.5812L12.9546 11.5062L14.9213 10.8337L12.9546 10.162C12.2668 9.92732 11.6385 9.54555 11.1134 9.04327C10.5882 8.54099 10.1788 7.93028 9.91377 7.25366L9.83877 7.04533L9.16627 5.07866ZM15.8329 1.66699C15.9888 1.66699 16.1416 1.71072 16.2739 1.79322C16.4062 1.87571 16.5127 1.99366 16.5813 2.13366L16.6213 2.23116L16.9129 3.08616L17.7688 3.37783C17.925 3.43091 18.062 3.52917 18.1623 3.66017C18.2626 3.79117 18.3218 3.94901 18.3323 4.11368C18.3429 4.27835 18.3043 4.44243 18.2214 4.58515C18.1386 4.72786 18.0153 4.84278 17.8671 4.91533L17.7688 4.95533L16.9138 5.24699L16.6221 6.10283C16.5689 6.25902 16.4706 6.39591 16.3395 6.49615C16.2085 6.5964 16.0506 6.65548 15.886 6.66593C15.7213 6.67637 15.5572 6.6377 15.4146 6.55481C15.2719 6.47192 15.1571 6.34855 15.0846 6.20033L15.0446 6.10283L14.7529 5.24783L13.8971 4.95616C13.7409 4.90308 13.6039 4.80481 13.5036 4.67381C13.4032 4.54281 13.3441 4.38498 13.3335 4.22031C13.323 4.05564 13.3616 3.89155 13.4444 3.74884C13.5272 3.60612 13.6506 3.49121 13.7988 3.41866L13.8971 3.37866L14.7521 3.08699L15.0438 2.23116C15.1 2.06651 15.2063 1.92358 15.3478 1.82241C15.4893 1.72123 15.659 1.66689 15.8329 1.66699Z" fill="#4A7358"/>
</svg>
