<svg width="46" height="20" viewBox="0 0 46 20" fill="none" xmlns="http://www.w3.org/2000/svg">
<rect width="46" height="20" rx="5" fill="black"/>
<path fill-rule="evenodd" clip-rule="evenodd" d="M10.2952 7.16056C10.1322 6.93656 9.86869 6.93556 9.70519 7.16056L8.29519 9.09906C8.13219 9.32306 8.22219 9.50506 8.50019 9.50506H9.00019V12.0021C9.00019 12.5561 9.44369 13.0051 10.0002 13.0051C10.5522 13.0051 11.0002 12.5616 11.0002 12.0021V9.50506H11.5002C11.7762 9.50506 11.8687 9.32456 11.7052 9.09906L10.2952 7.16056Z" fill="white"/>
<path d="M16.5801 7.98389C16.5801 6.63037 17.6758 5.62061 19.1367 5.62061C20.5225 5.62061 21.6128 6.56055 21.6128 7.74756C21.6128 8.6123 21.2207 9.25684 19.9263 10.5942L17.9658 12.6191V12.6406H21.7417V13.5H16.6284V12.834L19.3569 9.96045C20.3989 8.86475 20.646 8.45117 20.646 7.80664C20.646 7.06006 19.9639 6.46387 19.1099 6.46387C18.2021 6.46387 17.5146 7.11914 17.5146 7.98389V7.98926H16.5801V7.98389ZM23.4766 15.0415H22.6978L23.2188 12.3076H24.2124L23.4766 15.0415ZM29.3364 13.5V11.8887H25.4424V11.0132C26.103 9.78857 27.0107 8.37598 28.8423 5.74951H30.271V11.04H31.3667V11.8887H30.271V13.5H29.3364ZM26.3984 11.0186V11.04H29.3364V6.55518H29.3203C27.854 8.6499 27.0107 9.94434 26.3984 11.0186ZM35.207 7.58105C35.207 8.75195 34.5625 9.50928 33.5796 9.50928C32.5967 9.50928 31.9521 8.75195 31.9521 7.58105C31.9521 6.41016 32.5967 5.65283 33.5796 5.65283C34.5625 5.65283 35.207 6.41016 35.207 7.58105ZM33.5796 8.854C34.0522 8.854 34.3477 8.37061 34.3477 7.58105C34.3477 6.7915 34.0522 6.30811 33.5796 6.30811C33.1069 6.30811 32.8115 6.7915 32.8115 7.58105C32.8115 8.37061 33.1069 8.854 33.5796 8.854ZM33.3433 13.5H32.4087L35.4004 9.4126L38.0806 5.74951H39.0044L36.0933 9.73486L33.3433 13.5ZM39.4663 11.6523C39.4663 12.8232 38.8218 13.5806 37.8389 13.5806C36.856 13.5806 36.2114 12.8232 36.2114 11.6523C36.2114 10.4814 36.856 9.72412 37.8389 9.72412C38.8218 9.72412 39.4663 10.4814 39.4663 11.6523ZM37.8389 12.9253C38.3115 12.9253 38.6069 12.4419 38.6069 11.6523C38.6069 10.8628 38.3115 10.3794 37.8389 10.3794C37.3662 10.3794 37.0708 10.8628 37.0708 11.6523C37.0708 12.4419 37.3662 12.9253 37.8389 12.9253Z" fill="white"/>
</svg>
