<svg width="24" height="24" viewBox="0 0 24 24" fill="none" xmlns="http://www.w3.org/2000/svg">
<path d="M6.382 4.968L9.242 7.828C10.0606 7.28824 11.0195 7.00053 12 7.00053C12.9805 7.00053 13.9394 7.28824 14.758 7.828L17.618 4.968C16.0226 3.69416 14.0416 3.00034 12 3.00034C9.95841 3.00034 7.97744 3.69416 6.382 4.968ZM19.032 6.382L16.172 9.242C16.7118 10.0606 16.9995 11.0195 16.9995 12C16.9995 12.9805 16.7118 13.9394 16.172 14.758L19.032 17.618C20.3058 16.0226 20.9997 14.0416 20.9997 12C20.9997 9.95841 20.3058 7.97744 19.032 6.382ZM17.618 19.032L14.758 16.172C13.9394 16.7118 12.9805 16.9995 12 16.9995C11.0195 16.9995 10.0606 16.7118 9.242 16.172L6.382 19.032C7.97744 20.3058 9.95841 20.9997 12 20.9997C14.0416 20.9997 16.0226 20.3058 17.618 19.032ZM4.968 17.618L7.828 14.758C7.28824 13.9394 7.00053 12.9805 7.00053 12C7.00053 11.0195 7.28824 10.0606 7.828 9.242L4.968 6.382C3.69416 7.97744 3.00034 9.95841 3.00034 12C3.00034 14.0416 3.69416 16.0226 4.968 17.618ZM4.222 4.222C8.518 -0.0739999 15.482 -0.0739999 19.778 4.222C24.074 8.518 24.074 15.482 19.778 19.778C15.482 24.074 8.518 24.074 4.222 19.778C-0.0739999 15.482 -0.0739999 8.518 4.222 4.222ZM14.122 9.879C13.8443 9.59667 13.5134 9.37211 13.1485 9.21829C12.7836 9.06446 12.3918 8.98441 11.9958 8.98275C11.5998 8.98109 11.2074 9.05786 10.8412 9.20862C10.4749 9.35938 10.1422 9.58116 9.86216 9.86115C9.5821 10.1412 9.36024 10.4738 9.20939 10.84C9.05855 11.2062 8.98169 11.5986 8.98325 11.9946C8.98482 12.3906 9.06478 12.7824 9.21852 13.1474C9.37225 13.5123 9.59673 13.8432 9.879 14.121C10.4465 14.6578 11.2011 14.9521 11.9822 14.9412C12.7634 14.9304 13.5094 14.6152 14.0618 14.0628C14.6142 13.5104 14.9294 12.7644 14.9402 11.9832C14.9511 11.2021 14.6568 10.4475 14.12 9.88" fill="black"/>
</svg>
