<svg width="101" height="100" viewBox="0 0 101 100" fill="none" xmlns="http://www.w3.org/2000/svg">
<g opacity="0.1">
<path d="M22.375 12.5C19.8886 12.5 17.504 13.4877 15.7459 15.2459C13.9877 17.004 13 19.3886 13 21.875V28.125C13 28.9538 12.6708 29.7487 12.0847 30.3347C11.4987 30.9208 10.7038 31.25 9.875 31.25C9.0462 31.25 8.25134 30.9208 7.66529 30.3347C7.07924 29.7487 6.75 28.9538 6.75 28.125V21.875C6.75 17.731 8.3962 13.7567 11.3265 10.8265C14.2567 7.8962 18.231 6.25 22.375 6.25H28.625C29.4538 6.25 30.2487 6.57924 30.8347 7.16529C31.4208 7.75134 31.75 8.5462 31.75 9.375C31.75 10.2038 31.4208 10.9987 30.8347 11.5847C30.2487 12.1708 29.4538 12.5 28.625 12.5H22.375ZM22.375 87.5C19.8886 87.5 17.504 86.5123 15.7459 84.7541C13.9877 82.996 13 80.6114 13 78.125V71.875C13 71.0462 12.6708 70.2513 12.0847 69.6653C11.4987 69.0792 10.7038 68.75 9.875 68.75C9.0462 68.75 8.25134 69.0792 7.66529 69.6653C7.07924 70.2513 6.75 71.0462 6.75 71.875V78.125C6.75 82.269 8.3962 86.2433 11.3265 89.1735C14.2567 92.1038 18.231 93.75 22.375 93.75H28.625C29.4538 93.75 30.2487 93.4208 30.8347 92.8347C31.4208 92.2487 31.75 91.4538 31.75 90.625C31.75 89.7962 31.4208 89.0013 30.8347 88.4153C30.2487 87.8292 29.4538 87.5 28.625 87.5H22.375ZM88 21.875C88 19.3886 87.0123 17.004 85.2541 15.2459C83.496 13.4877 81.1114 12.5 78.625 12.5H72.375C71.5462 12.5 70.7513 12.1708 70.1653 11.5847C69.5792 10.9987 69.25 10.2038 69.25 9.375C69.25 8.5462 69.5792 7.75134 70.1653 7.16529C70.7513 6.57924 71.5462 6.25 72.375 6.25H78.625C82.769 6.25 86.7433 7.8962 89.6735 10.8265C92.6038 13.7567 94.25 17.731 94.25 21.875V28.125C94.25 28.9538 93.9208 29.7487 93.3347 30.3347C92.7487 30.9208 91.9538 31.25 91.125 31.25C90.2962 31.25 89.5013 30.9208 88.9153 30.3347C88.3292 29.7487 88 28.9538 88 28.125V21.875ZM78.625 87.5C81.1114 87.5 83.496 86.5123 85.2541 84.7541C87.0123 82.996 88 80.6114 88 78.125V71.875C88 71.0462 88.3292 70.2513 88.9153 69.6653C89.5013 69.0792 90.2962 68.75 91.125 68.75C91.9538 68.75 92.7487 69.0792 93.3347 69.6653C93.9208 70.2513 94.25 71.0462 94.25 71.875V78.125C94.25 82.269 92.6038 86.2433 89.6735 89.1735C86.7433 92.1038 82.769 93.75 78.625 93.75H72.375C71.5462 93.75 70.7513 93.4208 70.1653 92.8347C69.5792 92.2487 69.25 91.4538 69.25 90.625C69.25 89.7962 69.5792 89.0013 70.1653 88.4153C70.7513 87.8292 71.5462 87.5 72.375 87.5H78.625ZM28.625 50C28.625 49.1712 28.9542 48.3763 29.5403 47.7903C30.1263 47.2042 30.9212 46.875 31.75 46.875H69.25C70.0788 46.875 70.8737 47.2042 71.4597 47.7903C72.0458 48.3763 72.375 49.1712 72.375 50C72.375 50.8288 72.0458 51.6237 71.4597 52.2097C70.8737 52.7958 70.0788 53.125 69.25 53.125H31.75C30.9212 53.125 30.1263 52.7958 29.5403 52.2097C28.9542 51.6237 28.625 50.8288 28.625 50ZM31.75 62.5C30.9212 62.5 30.1263 62.8292 29.5403 63.4153C28.9542 64.0013 28.625 64.7962 28.625 65.625C28.625 66.4538 28.9542 67.2487 29.5403 67.8347C30.1263 68.4208 30.9212 68.75 31.75 68.75H53.625C54.4538 68.75 55.2487 68.4208 55.8347 67.8347C56.4208 67.2487 56.75 66.4538 56.75 65.625C56.75 64.7962 56.4208 64.0013 55.8347 63.4153C55.2487 62.8292 54.4538 62.5 53.625 62.5H31.75ZM28.625 34.375C28.625 33.5462 28.9542 32.7513 29.5403 32.1653C30.1263 31.5792 30.9212 31.25 31.75 31.25L69.25 31.25C70.0788 31.25 70.8737 31.5792 71.4597 32.1653C72.0458 32.7513 72.375 33.5462 72.375 34.375C72.375 35.2038 72.0458 35.9987 71.4597 36.5847C70.8737 37.1708 70.0788 37.5 69.25 37.5H31.75C30.9212 37.5 30.1263 37.1708 29.5403 36.5847C28.9542 35.9987 28.625 35.2038 28.625 34.375Z" fill="black"/>
</g>
</svg>
