<svg width="17" height="14" viewBox="0 0 17 14" fill="none" xmlns="http://www.w3.org/2000/svg">
<path d="M11.6814 5.29592C11.7379 5.23225 11.7657 5.15227 11.7593 5.07149C11.753 4.99072 11.713 4.91492 11.647 4.8588C11.5811 4.80268 11.494 4.77024 11.4026 4.76779C11.3112 4.76533 11.222 4.79303 11.1523 4.84551L4.53854 9.82702L1.04595 8.63119C0.894018 8.57971 0.761973 8.4907 0.665505 8.37474C0.569037 8.25877 0.512202 8.12073 0.501754 7.977C0.491307 7.83328 0.527685 7.68992 0.606567 7.56396C0.685449 7.43801 0.803518 7.33475 0.946744 7.26645L15.4462 0.0756902C15.5602 0.0213459 15.6886 -0.00458521 15.8179 0.000664573C15.9472 0.00591436 16.0725 0.0421481 16.1804 0.105498C16.2882 0.168849 16.3746 0.256938 16.4304 0.360364C16.4861 0.463791 16.509 0.578673 16.4968 0.692749L15.2249 12.4304C15.2122 12.5508 15.1679 12.6669 15.0955 12.7694C15.0232 12.872 14.9248 12.9582 14.8082 13.0212C14.6917 13.0841 14.5601 13.1222 14.424 13.1322C14.2879 13.1422 14.151 13.124 14.0242 13.079L9.77361 11.6219L7.1052 13.8357C7.00672 13.9171 6.88342 13.9712 6.75057 13.9913C6.61771 14.0114 6.48112 13.9965 6.3577 13.9486C6.23427 13.9007 6.12942 13.8218 6.05611 13.7216C5.98281 13.6215 5.94426 13.5046 5.94524 13.3852V11.6467L11.6814 5.29592Z" fill="black"/>
</svg>
