<svg width="30" height="24" viewBox="0 0 30 24" fill="none" xmlns="http://www.w3.org/2000/svg">
<path d="M7.5 6.2C7.5 5.08 7.5 4.52 7.7725 4.092C8.01218 3.71569 8.39462 3.40974 8.865 3.218C9.4 3 10.1 3 11.5 3H18.5C19.9 3 20.6 3 21.135 3.218C21.6054 3.40974 21.9878 3.71569 22.2275 4.092C22.5 4.52 22.5 5.08 22.5 6.2V19.505C22.5 19.991 22.5 20.234 22.3738 20.367C22.3192 20.4248 22.2496 20.4725 22.1697 20.5067C22.0899 20.5409 22.0017 20.5608 21.9112 20.565C21.7025 20.575 21.45 20.44 20.945 20.171L15 17L9.055 20.17C8.55 20.44 8.2975 20.575 8.0875 20.565C7.99729 20.5606 7.90935 20.5407 7.82972 20.5065C7.75009 20.4723 7.68067 20.4247 7.62625 20.367C7.5 20.234 7.5 19.991 7.5 19.505V6.2Z" stroke="black" stroke-width="1.5" stroke-linecap="round" stroke-linejoin="round"/>
</svg>
