<svg width="20" height="21" viewBox="0 0 20 21" fill="none" xmlns="http://www.w3.org/2000/svg">
<path d="M9.99992 17.1663C8.13881 17.1663 6.56242 16.5205 5.27075 15.2288C3.97909 13.9372 3.33325 12.3608 3.33325 10.4997C3.33325 8.63856 3.97909 7.06217 5.27075 5.77051C6.56242 4.47884 8.13881 3.83301 9.99992 3.83301C10.9583 3.83301 11.8749 4.03079 12.7499 4.42634C13.6249 4.8219 14.3749 5.38801 14.9999 6.12467V3.83301H16.6666V9.66634H10.8333V7.99967H14.3333C13.8888 7.2219 13.2813 6.61079 12.5108 6.16634C11.7402 5.7219 10.9033 5.49967 9.99992 5.49967C8.61103 5.49967 7.43047 5.98579 6.45825 6.95801C5.48603 7.93023 4.99992 9.11079 4.99992 10.4997C4.99992 11.8886 5.48603 13.0691 6.45825 14.0413C7.43047 15.0136 8.61103 15.4997 9.99992 15.4997C11.0694 15.4997 12.0346 15.1941 12.8958 14.583C13.7569 13.9719 14.361 13.1663 14.7083 12.1663H16.4583C16.0694 13.6386 15.2777 14.84 14.0833 15.7705C12.8888 16.7011 11.5277 17.1663 9.99992 17.1663Z" fill="black"/>
</svg>
