<svg width="22" height="22" viewBox="0 0 22 22" fill="none" xmlns="http://www.w3.org/2000/svg">
<path d="M7.43057 21.1959C5.70056 21.2026 4.03256 20.5521 2.7639 19.3759C2.14606 18.8046 1.65307 18.1117 1.31591 17.3407C0.97874 16.5698 0.804687 15.7374 0.804688 14.8959C0.804687 14.0544 0.97874 13.222 1.31591 12.4511C1.65307 11.6801 2.14606 10.9872 2.7639 10.4159L11.5839 2.08591C12.491 1.25789 13.6749 0.798828 14.9031 0.798828C16.1313 0.798828 17.3151 1.25789 18.2222 2.08591C18.6952 2.52497 19.0744 3.0552 19.3371 3.64466C19.5997 4.23413 19.7404 4.87065 19.7506 5.51591C19.7537 6.07354 19.6414 6.62578 19.4205 7.13781C19.1996 7.64985 18.875 8.11056 18.4672 8.49091L9.63557 16.8326C9.10265 17.327 8.40254 17.6018 7.67557 17.6018C6.94859 17.6018 6.24848 17.327 5.71557 16.8326C5.45113 16.5889 5.24007 16.2931 5.0957 15.9638C4.95134 15.6345 4.8768 15.2788 4.8768 14.9192C4.8768 14.5597 4.95134 14.204 5.0957 13.8747C5.24007 13.5454 5.45113 13.2496 5.71557 13.0059L13.8822 5.31757C14.0463 5.15372 14.2687 5.06168 14.5006 5.06168C14.7324 5.06168 14.9548 5.15372 15.1189 5.31757C15.2828 5.48164 15.3748 5.70403 15.3748 5.93591C15.3748 6.16778 15.2828 6.39018 15.1189 6.55424L6.95223 14.2426C6.86063 14.3225 6.78721 14.4211 6.7369 14.5318C6.68659 14.6425 6.66057 14.7627 6.66057 14.8842C6.66057 15.0058 6.68659 15.126 6.7369 15.2367C6.78721 15.3473 6.86063 15.446 6.95223 15.5259C7.16355 15.7067 7.43249 15.806 7.71057 15.806C7.98864 15.806 8.25758 15.7067 8.4689 15.5259L17.3006 7.20757C17.5253 6.98736 17.7031 6.72398 17.8234 6.43326C17.9437 6.14255 18.004 5.83051 18.0006 5.51591C17.9909 5.11041 17.8991 4.71109 17.7306 4.34211C17.5622 3.97313 17.3206 3.64216 17.0206 3.36924C16.4446 2.83543 15.6883 2.53885 14.9031 2.53885C14.1178 2.53885 13.3615 2.83543 12.7856 3.36924L4.00057 11.6876C3.55568 12.0953 3.20044 12.591 2.95742 13.1433C2.7144 13.6956 2.5889 14.2925 2.5889 14.8959C2.5889 15.4993 2.7144 16.0962 2.95742 16.6485C3.20044 17.2008 3.55568 17.6966 4.00057 18.1042C4.95083 18.9899 6.20154 19.4824 7.50057 19.4824C8.79959 19.4824 10.0503 18.9899 11.0006 18.1042L19.7389 9.83257C19.8193 9.75002 19.9155 9.68442 20.0217 9.63962C20.1279 9.59482 20.242 9.57174 20.3572 9.57174C20.4725 9.57174 20.5866 9.59482 20.6928 9.63962C20.799 9.68442 20.8951 9.75002 20.9756 9.83257C21.1394 9.99664 21.2315 10.219 21.2315 10.4509C21.2315 10.6828 21.1394 10.9052 20.9756 11.0692L12.1672 19.3759C10.8816 20.5698 9.1849 21.2217 7.43057 21.1959Z" fill="black"/>
</svg>
