<svg width="22" height="22" viewBox="0 0 22 22" fill="none" xmlns="http://www.w3.org/2000/svg">
<path d="M7.88366 20.625L6.14199 17.6917L2.84199 16.9583L3.16283 13.5667L0.916992 11L3.16283 8.43333L2.84199 5.04167L6.14199 4.30833L7.88366 1.375L11.0003 2.70417L14.117 1.375L15.8587 4.30833L19.1587 5.04167L18.8378 8.43333L21.0837 11L18.8378 13.5667L19.1587 16.9583L15.8587 17.6917L14.117 20.625L11.0003 19.2958L7.88366 20.625ZM10.0378 14.2542L15.217 9.075L13.9337 7.74583L10.0378 11.6417L8.06699 9.71667L6.78366 11L10.0378 14.2542Z" fill="url(#paint0_linear_1694_23482)"/>
<defs>
<linearGradient id="paint0_linear_1694_23482" x1="11.0003" y1="1.375" x2="11.0003" y2="20.625" gradientUnits="userSpaceOnUse">
<stop stop-color="#543BA7"/>
<stop offset="1" stop-color="#7F78E9"/>
</linearGradient>
</defs>
</svg>
