<svg width="101" height="100" viewBox="0 0 101 100" fill="none" xmlns="http://www.w3.org/2000/svg">
<g opacity="0.1">
<path d="M33.2899 19.5C29.9323 19.5 26.7122 20.8389 24.338 23.2222C21.9638 25.6055 20.63 28.8379 20.63 32.2083V32.7167C22.2842 31.8661 24.0229 31.1866 25.8459 30.6782C26.1971 28.9569 27.1298 27.4102 28.4862 26.2996C29.8426 25.189 31.5395 24.5827 33.2899 24.5833L58.6096 24.5833C60.6242 24.5833 62.5563 25.3867 63.9808 26.8166C65.4053 28.2466 66.2056 30.1861 66.2056 32.2083V57.625C66.2064 59.3814 65.6032 61.0842 64.4978 62.4457C63.3925 63.8072 61.8528 64.7439 60.139 65.0975C59.6326 66.9275 58.9574 68.6728 58.1134 70.3333H58.6096C60.2722 70.3333 61.9184 70.0046 63.4544 69.366C64.9903 68.7273 66.3859 67.7912 67.5615 66.6111C68.7371 65.4311 69.6696 64.0301 70.3058 62.4883C70.9421 60.9464 71.2695 59.2939 71.2695 57.625V56.9794L81.5747 64.1215C82.5244 64.7795 83.6353 65.1643 84.7872 65.2344C85.9391 65.3044 87.0882 65.0571 88.1102 64.519C89.1322 63.9809 89.9882 63.1726 90.5856 62.1815C91.1831 61.1905 91.4993 60.0543 91.5 58.8958V30.9477C91.4993 29.7892 91.1831 28.653 90.5856 27.662C89.9882 26.6709 89.1322 25.8626 88.1102 25.3245C87.0882 24.7864 85.9391 24.5391 84.7872 24.6091C83.6353 24.6792 82.5244 25.064 81.5747 25.722L71.2695 32.8641V32.2083C71.2695 30.5395 70.9421 28.8869 70.3058 27.3451C69.6696 25.8032 68.7371 24.4023 67.5615 23.2222C66.3859 22.0421 64.9903 21.106 63.4544 20.4674C61.9184 19.8287 60.2722 19.5 58.6096 19.5L33.2899 19.5ZM71.2695 39.0403L84.456 29.9005C84.6461 29.7688 84.8685 29.6918 85.0991 29.6779C85.3296 29.664 85.5596 29.7136 85.764 29.8215C85.9685 29.9293 86.1397 30.0913 86.259 30.2898C86.3784 30.4883 86.4413 30.7158 86.4411 30.9477V58.8958C86.4404 59.1273 86.3768 59.3541 86.2571 59.5519C86.1373 59.7497 85.9661 59.9109 85.7618 60.0181C85.5575 60.1254 85.3279 60.1746 85.0978 60.1604C84.8677 60.1463 84.6458 60.0694 84.456 59.9379L71.2695 50.8032V39.0403ZM33.2899 80.5C38.2892 80.4995 43.1497 78.8488 47.1223 75.802C51.0949 72.7553 53.9592 68.4817 55.2737 63.6398C56.5883 58.7979 56.2801 53.6565 54.3968 49.0077C52.5135 44.3589 49.1595 40.4609 44.8517 37.9142C40.5439 35.3675 35.5213 34.3135 30.558 34.9147C25.5946 35.5159 20.966 37.7389 17.3852 41.241C13.8045 44.7432 11.4705 49.3302 10.7427 54.2953C10.015 59.2603 10.934 64.3278 13.3582 68.7168L10.5983 77.8109C10.4915 78.1709 10.4835 78.5533 10.5754 78.9174C10.6672 79.2816 10.8554 79.6141 11.12 79.8797C11.3846 80.1454 11.7158 80.3343 12.0786 80.4265C12.4414 80.5186 12.8223 80.5107 13.1809 80.4034L22.2454 77.6381C25.6257 79.5165 29.4262 80.5013 33.2899 80.5ZM20.63 52.5417C20.63 51.8676 20.8968 51.2211 21.3716 50.7444C21.8464 50.2678 22.4905 50 23.162 50H43.4178C44.0893 50 44.7333 50.2678 45.2082 50.7444C45.683 51.2211 45.9498 51.8676 45.9498 52.5417C45.9498 53.2158 45.683 53.8622 45.2082 54.3389C44.7333 54.8156 44.0893 55.0833 43.4178 55.0833H23.162C22.4905 55.0833 21.8464 54.8156 21.3716 54.3389C20.8968 53.8622 20.63 53.2158 20.63 52.5417ZM23.162 65.25C22.4905 65.25 21.8464 64.9822 21.3716 64.5056C20.8968 64.0289 20.63 63.3824 20.63 62.7083C20.63 62.0342 20.8968 61.3878 21.3716 60.9111C21.8464 60.4344 22.4905 60.1667 23.162 60.1667H33.2899C33.9614 60.1667 34.6054 60.4344 35.0803 60.9111C35.5551 61.3878 35.8219 62.0342 35.8219 62.7083C35.8219 63.3824 35.5551 64.0289 35.0803 64.5056C34.6054 64.9822 33.9614 65.25 33.2899 65.25H23.162Z" fill="black"/>
</g>
</svg>
