<svg width="24" height="24" viewBox="0 0 24 24" fill="none" xmlns="http://www.w3.org/2000/svg">
<path fill-rule="evenodd" clip-rule="evenodd" d="M20.4096 9.85966C20.3513 9.85696 20.2929 9.85596 20.2346 9.85666H17.7996C15.8076 9.85666 14.1016 11.4377 14.1016 13.4997C14.1016 15.5617 15.8076 17.1427 17.8006 17.1427H20.2336C20.2949 17.1433 20.3532 17.142 20.4086 17.1387C20.8196 17.112 21.207 16.937 21.4987 16.6462C21.7904 16.3554 21.9666 15.9686 21.9946 15.5577C21.9986 15.4987 21.9986 15.4357 21.9986 15.3777V11.6217C21.9986 11.5637 21.9986 11.5007 21.9946 11.4417C21.9666 11.0309 21.7905 10.6442 21.499 10.3534C21.2075 10.0627 20.8204 9.88757 20.4096 9.86066M17.5866 14.4717C18.0996 14.4717 18.5166 14.0377 18.5166 13.5007C18.5166 12.9637 18.0996 12.5297 17.5866 12.5297C17.0736 12.5297 16.6576 12.9637 16.6576 13.5007C16.6576 14.0377 17.0726 14.4717 17.5866 14.4717Z" fill="black"/>
<path fill-rule="evenodd" clip-rule="evenodd" d="M20.234 18.6C20.2675 18.5988 20.3008 18.6055 20.3312 18.6196C20.3617 18.6337 20.3884 18.6547 20.4092 18.6809C20.43 18.7072 20.4444 18.738 20.4511 18.7708C20.4579 18.8037 20.4568 18.8377 20.448 18.87C20.254 19.562 19.947 20.152 19.454 20.648C18.733 21.375 17.818 21.698 16.688 21.851C15.59 22 14.188 22 12.416 22H10.379C8.608 22 7.205 22 6.107 21.851C4.977 21.698 4.062 21.375 3.341 20.648C2.62 19.923 2.3 19 2.148 17.862C2 16.754 2 15.34 2 13.555V13.445C2 11.66 2 10.245 2.148 9.139C2.3 8 2.62 7.08 3.34 6.351C4.061 5.625 4.976 5.301 6.106 5.149C7.205 5 8.608 5 10.379 5H12.416C14.187 5 15.59 5 16.688 5.149C17.818 5.302 18.733 5.625 19.454 6.351C19.947 6.848 20.254 7.438 20.448 8.131C20.4566 8.16328 20.4575 8.19714 20.4507 8.22984C20.4439 8.26255 20.4295 8.2932 20.4087 8.31935C20.3879 8.3455 20.3613 8.36641 20.3309 8.38042C20.3006 8.39442 20.2674 8.40113 20.234 8.4H17.801C15.067 8.4 12.658 10.577 12.658 13.5C12.658 16.423 15.068 18.6 17.802 18.6H20.234ZM5.614 8.886C5.51879 8.88639 5.42459 8.90554 5.33678 8.94233C5.24897 8.97913 5.16927 9.03287 5.10222 9.10047C5.03518 9.16807 4.98211 9.24821 4.94604 9.33633C4.90997 9.42444 4.89161 9.51879 4.892 9.614C4.892 10.017 5.215 10.343 5.614 10.343H9.47C9.87 10.343 10.193 10.017 10.193 9.614C10.1935 9.42163 10.1177 9.2369 9.98213 9.10041C9.84657 8.96391 9.66237 8.88679 9.47 8.886H5.614Z" fill="black"/>
<path d="M7.77344 4.02434L9.73144 2.58134C10.2424 2.20376 10.8611 2 11.4964 2C12.1318 2 12.7504 2.20376 13.2614 2.58134L15.2304 4.03234C14.4064 4.00034 13.4864 4.00034 12.4794 4.00034H10.3094C9.38744 4.00034 8.54044 4.00034 7.77344 4.02434Z" fill="black"/>
</svg>
