<svg width="21" height="20" viewBox="0 0 21 20" fill="none" xmlns="http://www.w3.org/2000/svg">
<path d="M10.5013 16.666C12.2694 16.666 13.9651 15.9636 15.2153 14.7134C16.4656 13.4632 17.168 11.7675 17.168 9.99935C17.168 8.23124 16.4656 6.53555 15.2153 5.2853C13.9651 4.03506 12.2694 3.33268 10.5013 3.33268C8.73319 3.33268 7.0375 4.03506 5.78726 5.2853C4.53701 6.53555 3.83464 8.23124 3.83464 9.99935C3.83464 11.7675 4.53701 13.4632 5.78726 14.7134C7.0375 15.9636 8.73319 16.666 10.5013 16.666ZM10.5013 18.3327C5.8988 18.3327 2.16797 14.6018 2.16797 9.99935C2.16797 5.39685 5.8988 1.66602 10.5013 1.66602C15.1038 1.66602 18.8346 5.39685 18.8346 9.99935C18.8346 14.6018 15.1038 18.3327 10.5013 18.3327ZM9.66797 13.3327H11.3346V14.9993H9.66797V13.3327ZM9.66797 4.99935H11.3346V11.666H9.66797V4.99935Z" fill="black"/>
</svg>
