<svg width="24" height="24" viewBox="0 0 24 24" fill="none" xmlns="http://www.w3.org/2000/svg">
<g opacity="1">
<path d="M12 2.5C10.2345 2.5 8.5413 3.2375 7.2929 4.55025C6.0445 5.86301 5.34315 7.64348 5.34315 9.5V13.028C5.34329 13.1831 5.3091 13.3362 5.2433 13.475L3.61047 16.908C3.53071 17.0757 3.49304 17.2621 3.50106 17.4494C3.50907 17.6368 3.56249 17.8188 3.65625 17.9783C3.75001 18.1379 3.881 18.2695 4.03676 18.3608C4.19253 18.4521 4.3679 18.5 4.54623 18.5H19.4538C19.6321 18.5 19.8075 18.4521 19.9632 18.3608C20.119 18.2695 20.25 18.1379 20.3437 17.9783C20.4375 17.8188 20.4909 17.6368 20.4989 17.4494C20.507 17.2621 20.4693 17.0757 20.3895 16.908L18.7577 13.475C18.6915 13.3362 18.657 13.1832 18.6568 13.028V9.5C18.6568 7.64348 17.9555 5.86301 16.7071 4.55025C15.4587 3.2375 13.7655 2.5 12 2.5ZM12 21.5C11.4098 21.5003 10.834 21.3081 10.352 20.9499C9.86996 20.5917 9.50547 20.0852 9.30873 19.5H14.6913C14.4945 20.0852 14.13 20.5917 13.648 20.9499C13.166 21.3081 12.5902 21.5003 12 21.5Z" fill="#EAEAEA"/>
</g>
</svg>
