<svg width="90" height="30" viewBox="0 0 90 30" fill="none" xmlns="http://www.w3.org/2000/svg">
<g clip-path="url(#clip0_2219_19241)">
<path d="M57.9221 0.628906H54.8015C54.6829 0.628906 54.5867 0.722701 54.5867 0.838403V3.77834C54.5867 3.89405 54.6829 3.98784 54.8015 3.98784H57.9221C58.0408 3.98784 58.137 3.89405 58.137 3.77834V0.838403C58.137 0.722701 58.0408 0.628906 57.9221 0.628906Z" fill="white"/>
<path d="M54.8194 23.5015H57.9042C58.0224 23.5015 58.1191 23.4072 58.1191 23.292V6.57062C58.1191 6.45365 58.0224 6.35938 57.9024 6.35938H54.8194C54.6995 6.35938 54.6028 6.45365 54.6028 6.57062V23.2902C54.6028 23.4072 54.6995 23.5015 54.8194 23.5015Z" fill="white"/>
<path d="M86.1381 6.53703L82.0579 17.5059C81.9666 17.7521 81.6103 17.7504 81.519 17.5059L77.5444 6.67321C77.4746 6.48466 77.2919 6.35721 77.086 6.35721H73.9636C73.8007 6.35721 73.6879 6.51434 73.7434 6.66273L79.8271 22.918C79.8969 23.103 79.8951 23.3038 79.8271 23.4888L79.0644 25.507C79.0644 25.507 79.059 25.5192 79.0555 25.5262C78.7028 26.1582 78.5756 26.2455 78.0511 26.2455H75.5463C75.4282 26.2455 75.3333 26.338 75.3333 26.4532V29.1557C75.3333 29.271 75.43 29.3652 75.5481 29.3652H79.1486C80.8243 29.3652 81.5136 28.4277 81.9738 27.4902C81.9738 27.4867 81.9773 27.4832 81.9791 27.4798L89.9892 6.65924C90.0465 6.51259 89.9337 6.35547 89.7726 6.35547H86.4049C86.2867 6.35547 86.1811 6.42705 86.1417 6.53529L86.1381 6.53703Z" fill="white"/>
<path d="M25.5429 6.25391C20.3455 6.25391 17.2428 9.54999 17.2428 15.072C17.2428 20.594 20.3455 23.9197 25.5429 23.9197C30.7404 23.9197 33.7518 20.6114 33.7518 15.072C33.7518 9.53253 30.6831 6.25391 25.5429 6.25391ZM25.5429 20.8C22.4492 20.8 20.6731 18.712 20.6731 15.0702C20.6731 11.4285 22.4474 9.37192 25.5429 9.37192C28.6385 9.37192 30.3196 11.4494 30.3196 15.0702C30.3196 18.691 28.5794 20.8 25.5429 20.8Z" fill="white"/>
<path d="M43.7911 6.11428C42.2962 6.11428 40.7332 6.69563 39.736 7.56854C39.6608 7.63488 39.5408 7.58076 39.5408 7.48125V1.63104C39.5408 1.50535 39.4352 1.40234 39.3063 1.40234H36.345C36.2161 1.40234 36.1105 1.50535 36.1105 1.63104V23.4152C36.1105 23.5305 36.2072 23.6247 36.3253 23.6247H39.2257C39.3457 23.6247 39.4423 23.5287 39.4406 23.4117L39.4191 21.83C39.4191 21.7236 39.548 21.6659 39.6285 21.7375L41.5138 23.3768C41.7555 23.5863 42.042 23.7417 42.3535 23.8168C42.8333 23.932 43.3221 23.9966 43.7929 23.9966C48.9904 23.9966 52.0931 20.6534 52.0931 15.0546C52.0931 9.45576 48.9904 6.11253 43.7929 6.11253L43.7911 6.11428ZM43.6981 20.8786C40.6688 20.8786 38.8605 18.7016 38.8605 15.0563C38.8605 11.4111 40.6688 9.23404 43.6981 9.23404C46.7274 9.23404 48.6592 11.4111 48.6592 15.0563C48.6592 18.7016 46.8043 20.8786 43.6981 20.8786Z" fill="white"/>
<path d="M0 16.9688C0.0483399 21.0365 3.15105 23.87 7.584 23.87C12.4699 23.87 15.1071 20.3923 15.1071 17.1224V13.8176C15.1071 12.0473 15.1071 10.5023 15.1 8.75824C15.1 8.64651 15.0176 8.51034 14.9317 8.42654C14.0436 7.57109 13.1896 6.97926 12.3159 6.12906C12.2604 6.07668 12.2998 5.98415 12.3768 5.98415H14.9836C15.0821 5.98415 15.1608 5.90559 15.1608 5.81132V2.91502C15.1608 2.819 15.0803 2.74219 14.9836 2.74219H2.90219C2.80372 2.74219 2.72494 2.82075 2.72494 2.91502V5.81132C2.72494 5.90734 2.80551 5.98415 2.90219 5.98415H11.496C11.5443 5.98415 11.5819 6.02256 11.5819 6.06795C11.5819 9.04979 11.5819 11.569 11.5819 14.5683H11.5908V16.4712C11.5908 19.0306 9.9813 20.7485 7.584 20.7485C5.1867 20.7485 3.53419 19.172 3.51628 16.9112V16.7244C3.51628 16.6423 3.44825 16.576 3.3641 16.576H0.134278C0.0608725 16.576 0.0053711 16.6336 0.00179037 16.7052C-0.00179037 16.7767 0.00179037 16.967 0.00179037 16.967L0 16.9688Z" fill="white"/>
<path d="M68.0129 4.53773H71.4844C71.6223 4.53773 71.7351 4.42774 71.7351 4.29332V1.66238C71.7351 1.52795 71.6223 1.41797 71.4844 1.41797H67.3487C65.1125 1.41797 63.8807 2.8827 63.8807 5.54157V6.17006C63.8807 6.27481 63.793 6.36035 63.6856 6.36035H60.6456C60.5077 6.36035 60.3949 6.47034 60.3949 6.60477V9.23744C60.3949 9.37187 60.5077 9.48186 60.6456 9.48186H63.6856C63.793 9.48186 63.8807 9.5674 63.8807 9.67215V23.2912C63.8807 23.4256 63.9935 23.5356 64.1314 23.5356H67.1464C67.2842 23.5356 67.397 23.4256 67.397 23.2912V9.76468C67.397 9.76468 67.397 9.76293 67.397 9.76119V8.26154C67.397 8.15679 67.5241 8.09918 67.6047 8.16901L69.1068 9.39282C69.1749 9.44869 69.2608 9.48011 69.3485 9.48011H71.4862C71.6241 9.48011 71.7369 9.37013 71.7369 9.2357V6.60302C71.7369 6.46859 71.6241 6.35861 71.4862 6.35861H67.5761C67.4776 6.35861 67.397 6.28005 67.397 6.18403V5.44729C67.397 4.68787 67.6334 4.53598 68.0147 4.53598L68.0129 4.53773Z" fill="white"/>
</g>
<defs>
<clipPath id="clip0_2219_19241">
<rect width="90" height="28.7395" fill="white" transform="translate(0 0.628906)"/>
</clipPath>
</defs>
</svg>
